<svg width="50" height="50" viewBox="0 0 50 50" fill="none" xmlns="http://www.w3.org/2000/svg">
<path d="M21.1286 6.48126H23.1137C23.1211 6.49718 23.1272 6.52657 23.1382 6.52902C24.8527 6.88049 26.3516 7.73894 27.842 8.59372C30.7957 10.2849 33.5327 12.2957 36.1877 14.418C38.038 15.8719 39.7289 17.518 41.2319 19.3287C42.2201 20.5374 42.6267 21.9003 42.3083 23.4397C42.1607 24.138 41.9484 24.821 41.6739 25.4799C41.1437 26.7584 40.3465 27.885 39.5395 29.0019C36.233 33.5868 32.2481 37.5423 27.9816 41.2235C27.536 41.6071 27.0551 41.9474 26.5451 42.2399C24.2845 43.5441 21.965 43.6935 19.6138 42.4848C19.0275 42.1809 18.4573 41.847 17.9055 41.4843C15.1574 39.6891 12.6984 37.5399 10.3239 35.2866C8.63995 33.6973 7.1188 31.9439 5.78302 30.0526C5.25935 29.3426 4.8689 28.5434 4.63066 27.694C4.59192 27.5996 4.54175 27.5104 4.48126 27.4282V25.2239C4.54494 25.0807 4.61964 24.9423 4.67108 24.7966C4.89396 24.1573 5.05316 23.4887 5.34094 22.88C7.95671 17.3472 11.6844 12.679 16.4102 8.80802C17.7732 7.68995 19.2991 6.86212 21.0674 6.56209C21.0919 6.55841 21.1078 6.50943 21.1286 6.48126ZM40.6808 22.5384C40.6939 22.0192 40.5152 21.5134 40.1787 21.1178C39.8113 20.6635 39.4329 20.1969 38.9823 19.832C37.7405 18.8278 36.4706 17.8579 35.186 16.9027C33.3821 15.5556 31.3897 14.6041 29.1756 14.151C28.1457 13.9404 27.1109 13.7689 26.065 13.9943C25.2948 14.1608 24.5257 14.3469 23.7738 14.5821C22.0218 15.1427 20.1859 15.3954 18.3475 15.3291C17.1731 15.2825 15.9951 15.3291 14.8207 15.2838C13.932 15.2455 13.0578 15.5179 12.3482 16.0541C10.7917 17.1917 9.62953 18.6698 8.70127 20.3402C8.47227 20.7541 8.34246 21.217 7.88446 21.4754C7.7424 21.555 7.65423 21.7595 7.58075 21.9236C7.42278 22.2751 7.23909 22.6265 7.15704 22.9976C7.00467 23.7164 6.67506 24.3857 6.19817 24.9447C5.78302 25.4346 5.52586 26.0322 5.70832 26.6825C5.82808 27.1051 6.02624 27.5014 6.29246 27.8507C6.94641 28.6896 7.64933 29.4917 8.35104 30.2926C8.60663 30.5807 8.88736 30.8454 9.18989 31.0837C9.87591 31.6676 10.8194 31.8455 11.671 31.5515C12.511 31.2931 13.3732 31.1094 14.2218 30.8792C17.1163 30.0923 20.0964 29.6638 23.0954 29.6032C24.0126 29.5848 24.9323 29.537 25.8458 29.4807C28.1935 29.3539 30.548 29.463 32.8739 29.8064C33.436 29.8848 34.0018 30.0183 34.5614 29.9999C35.3354 29.9742 36.0003 29.5836 36.593 29.0998C37.8016 28.1064 38.8363 26.9186 39.6546 25.5852C40.1946 24.7145 40.6526 23.7838 40.6808 22.5384ZM17.1425 35.9148C17.4315 35.8768 17.6324 35.8854 17.7989 35.8242C18.3157 35.6368 18.8153 35.4017 19.3346 35.2229C20.0926 34.9608 20.8506 34.5775 21.6295 34.5151C23.6635 34.3447 25.7111 34.5782 27.6546 35.2021C28.1518 35.3613 28.6649 35.4715 29.1682 35.6038C29.2821 35.1702 29.2907 35.1653 29.1339 34.9241C28.8905 34.5142 28.6252 34.1176 28.3391 33.7362C27.9718 33.2807 27.5725 32.8447 27.0006 32.6218C25.7769 32.1286 24.5107 31.7482 23.2178 31.4854C22.3606 31.3201 21.6895 31.5442 21.0135 32.0132C19.626 32.9684 18.4835 34.1771 17.3825 35.4323C17.2956 35.534 17.2576 35.6797 17.1425 35.9148Z" fill="#4CB6CD"/>
<path d="M40.6808 22.5384C40.6526 23.7838 40.1909 24.7145 39.6521 25.5852C38.8338 26.9186 37.7991 28.1064 36.5906 29.0998C35.9979 29.5897 35.3329 29.9742 34.5589 29.9999C33.9993 30.0183 33.4335 29.8848 32.8714 29.8064C30.5455 29.463 28.1911 29.3539 25.8434 29.4807C24.9274 29.537 24.0065 29.5848 23.0929 29.6031C20.0989 29.6649 17.1238 30.0935 14.2341 30.8792C13.3854 31.1094 12.5196 31.2931 11.6832 31.5515C10.8317 31.8455 9.88815 31.6676 9.20213 31.0837C8.8996 30.8454 8.61887 30.5807 8.36327 30.2926C7.66525 29.4917 6.95742 28.6896 6.30348 27.8507C6.0378 27.5028 5.83966 27.1082 5.71934 26.6873C5.53197 26.0371 5.78914 25.4395 6.20918 24.9496C6.68608 24.3906 7.01569 23.7213 7.16805 23.0025C7.2501 22.6351 7.43379 22.28 7.59177 21.9285C7.66524 21.7644 7.75342 21.5611 7.89547 21.4803C8.35348 21.2219 8.48329 20.759 8.71229 20.3451C9.64054 18.6747 10.8027 17.1966 12.3592 16.0589C13.0688 15.5227 13.9431 15.2504 14.8317 15.2887C16.0061 15.3303 17.1842 15.2887 18.3586 15.334C20.1969 15.4003 22.0328 15.1476 23.7848 14.587C24.5367 14.3518 25.3058 14.1657 26.0761 13.9991C27.1219 13.7738 28.1579 13.9453 29.1866 14.1559C31.4031 14.609 33.3931 15.5605 35.197 16.9076C36.4755 17.8628 37.7454 18.8327 38.9933 19.8369C39.4439 20.2042 39.8211 20.6684 40.1897 21.1227C40.5211 21.5186 40.6958 22.0223 40.6808 22.5384ZM32.9388 18.3747L31.604 17.722L29.1915 16.7202C28.3185 16.3768 27.3659 16.2885 26.4447 16.4655L23.9954 17.0778C23.8145 17.0889 23.6342 17.1094 23.4554 17.139C21.1629 17.6387 18.8582 17.9963 16.4984 17.8383C15.9902 17.804 15.477 17.8518 14.9652 17.8616C14.4129 17.8689 13.8789 17.9461 13.4087 18.2694C13.2278 18.3505 13.0531 18.4447 12.8858 18.551C12.0799 19.1602 11.4326 19.9545 10.9986 20.8668C10.9033 21.1015 10.8271 21.3435 10.7709 21.5905C10.6325 22.3375 10.8333 23.038 11.1211 23.7042C11.2974 24.087 11.5325 24.4399 11.8179 24.75C12.1375 25.1174 12.3433 25.0709 12.5821 24.6606C12.7939 24.2932 12.9825 23.9185 13.1735 23.5413C13.6291 22.6424 14.0577 21.7289 14.539 20.8472C14.8684 20.2349 15.2431 20.2263 15.684 20.7676C16.0085 21.1656 16.2963 21.5942 16.6172 21.9922C17.0972 22.5898 17.3813 22.5861 17.8993 22.0228C18.4173 21.4595 18.9672 20.8606 19.5195 20.2985C19.9163 19.8932 20.1575 19.8663 20.6412 20.1761C20.9149 20.358 21.1726 20.5628 21.4115 20.7884C21.725 21.07 22.0128 21.3811 22.3287 21.6603C22.8186 22.0901 23.0304 22.0608 23.3856 21.5378C23.5901 21.2329 23.7701 20.9121 23.9746 20.6084C24.1561 20.3122 24.3609 20.0309 24.5869 19.7671C24.9408 19.3899 25.2605 19.3752 25.6364 19.7291C25.9918 20.0712 26.329 20.4318 26.6467 20.8092C27.2835 21.544 27.9044 22.2922 28.5461 23.0221C28.7168 23.213 28.9144 23.378 29.1327 23.5119C29.5331 23.7568 29.7756 23.6834 29.9581 23.2499C30.0994 22.9314 30.2065 22.5989 30.2777 22.2579C30.4773 21.1962 30.6451 20.1283 30.8312 19.0629C30.879 18.7886 30.8778 18.4861 31.1411 18.2596C31.2794 18.3906 31.3945 18.5045 31.5084 18.6098L31.8366 19.3727C31.8734 19.6177 31.9101 19.8626 31.9468 20.1075C32.0006 20.097 32.0531 20.081 32.1036 20.0597C32.4159 19.8344 32.7257 19.6066 33.0367 19.3813C33.5633 18.9992 33.5633 18.9992 34.1107 19.1743C33.9013 18.8498 33.6601 18.6882 32.9388 18.371V18.3747ZM10.4304 25.1162L10.3422 24.9729C9.97483 24.3567 9.49309 23.8163 8.92292 23.3809C8.42348 23.9851 8.19374 24.7677 8.28735 25.546C8.37919 26.5049 8.81271 27.3719 9.4495 28.1054C9.93935 28.6639 10.5333 29.0276 11.3146 28.9725C12.1314 29.0141 12.8882 28.7533 13.6414 28.5034C13.8348 28.4508 14.0283 28.4006 14.2218 28.3455C18.0463 27.2617 21.9234 26.5661 25.9205 26.7535C26.4508 26.778 26.9823 26.7657 27.5125 26.7706C29.1951 26.8384 30.8778 26.9057 32.5604 26.9727C32.6146 26.9681 32.668 26.957 32.7196 26.9396H33.1164C33.7531 26.898 34.3912 26.8686 35.0255 26.8171C35.6856 26.7596 36.1938 26.4094 36.6175 25.9207C37.2057 25.2141 37.6699 24.4129 37.9903 23.5511C38.0493 23.3453 38.0922 23.1353 38.1189 22.9229C37.7442 23.0858 37.4747 23.1605 37.2543 23.3074C36.8718 23.5584 36.5094 23.8389 36.1705 24.1463C35.5643 24.7059 35.3684 24.6765 35.0451 23.9013C34.9104 23.5793 34.8002 23.245 34.6581 22.9302C34.5195 22.6108 34.3514 22.3049 34.156 22.0167C33.7752 21.4901 33.3454 21.4203 32.8347 21.8207C32.2799 22.2518 31.7901 22.7686 31.6003 23.5034C31.3762 24.3207 30.9957 25.0867 30.4798 25.7591C30.192 26.1461 30.0205 26.1901 29.5882 25.9709C29.3208 25.8495 29.0715 25.6917 28.8474 25.5019C28.0991 24.799 27.3778 24.0716 26.6431 23.3539C26.3687 23.0845 26.1177 22.7833 25.8115 22.5579C25.3988 22.2542 25.1417 22.3008 24.8037 22.6804C24.5477 22.9682 24.331 23.2927 24.0775 23.5793C23.5876 24.1414 23.2092 24.1916 22.5896 23.7764C22.2712 23.5621 21.9773 23.3013 21.6748 23.0698C21.5144 22.9474 21.3405 22.8506 21.1727 22.7429L20.8911 22.5886C20.3792 22.2604 20.1477 22.2726 19.7448 22.6829C19.2305 23.2058 18.7345 23.747 18.2165 24.2651C17.734 24.7476 17.5099 24.7549 16.9784 24.3728C16.8155 24.2504 16.6637 24.1206 16.5033 23.9981C15.733 23.4103 15.3901 23.4605 14.8317 24.243C14.7459 24.3655 14.6615 24.4879 14.5868 24.6104C14.1189 25.355 13.656 26.1032 13.1858 26.8478C12.9103 27.2862 12.6519 27.3805 12.2355 27.0866C11.8725 26.8108 11.5404 26.4967 11.2448 26.1497C10.9521 25.8277 10.7011 25.4676 10.4316 25.1247L10.4304 25.1162ZM34.3814 19.4144C34.6055 19.6593 34.8137 19.8834 35.0169 20.1112C35.3219 20.4516 35.6023 20.8153 35.9305 21.1301C36.2587 21.4448 36.4926 21.4485 36.9102 21.1668C35.884 20.1749 34.8516 19.4536 34.3814 19.4144Z" fill="#4D4040"/>
<path d="M17.1425 35.9148C17.2576 35.6797 17.2956 35.534 17.3874 35.4323C18.4896 34.1771 19.6309 32.9684 21.0184 32.0132C21.6981 31.5442 22.3655 31.3201 23.2227 31.4854C24.514 31.7485 25.7785 32.1289 27.0006 32.6218C27.5725 32.8447 27.9718 33.2807 28.3391 33.7362C28.6252 34.1176 28.8905 34.5142 29.1339 34.9241C29.2894 35.169 29.2821 35.169 29.1682 35.6038C28.6649 35.4715 28.1518 35.3588 27.6546 35.2021C25.7111 34.5782 23.6635 34.3447 21.6295 34.5151C20.8506 34.5775 20.0926 34.9608 19.3346 35.2229C18.8153 35.4017 18.3157 35.6368 17.7989 35.8242C17.6275 35.8854 17.4315 35.8719 17.1425 35.9148Z" fill="#3479B7"/>
<path d="M27.5186 26.7608C26.9884 26.7608 26.4569 26.7682 25.9266 26.7437C21.9295 26.5612 18.0524 27.2568 14.2279 28.3357C14.0344 28.3908 13.8409 28.441 13.6475 28.4936C13.6769 28.2573 13.7087 28.0222 13.7356 27.7858C13.8924 26.3861 14.4986 25.1982 15.4427 24.1732C15.6546 23.943 15.8603 23.9405 16.0306 24.2087C16.2853 24.6092 16.48 25.0451 16.709 25.4627C16.938 25.8803 17.1511 26.2624 17.3923 26.6494C17.4585 26.7559 17.6005 26.8159 17.7903 26.9592C18.0426 26.3836 18.2581 25.884 18.4822 25.388C18.8582 24.5528 19.2305 23.7177 19.8403 23.0135C20.1257 22.6841 20.4526 22.4882 20.8947 22.5837L21.1727 22.738C21.2829 22.9609 21.3858 23.1899 21.507 23.4078C21.9087 24.1279 22.3116 24.848 22.7255 25.5595C22.8406 25.7566 22.9447 26.0003 23.3072 25.9648C23.3917 25.8215 23.5007 25.6562 23.5889 25.475C23.8717 24.919 24.1277 24.3496 24.4302 23.8046C24.5948 23.5201 24.7943 23.2572 25.0241 23.0221C25.3143 22.7159 25.4539 22.7367 25.7393 23.06C25.8208 23.1595 25.8968 23.2634 25.9671 23.3711C26.6862 24.3972 27.212 25.5459 27.5186 26.7608Z" fill="#E3DEDE"/>
<path d="M31.5047 18.6049L31.1374 18.2547C30.8741 18.4812 30.8753 18.7837 30.8275 19.058C30.6414 20.1234 30.4736 21.1913 30.274 22.2531C30.2028 22.5941 30.0957 22.9266 29.9544 23.245C29.7719 23.6785 29.5294 23.7544 29.129 23.5071C28.9107 23.3732 28.7131 23.2081 28.5424 23.0172C27.9007 22.2824 27.2798 21.5391 26.643 20.8043C26.3276 20.4233 25.9924 20.0591 25.6389 19.7132C25.2629 19.3593 24.9433 19.374 24.5894 19.7512C24.3633 20.015 24.1586 20.2963 23.9771 20.5925C23.7725 20.8962 23.5925 21.217 23.388 21.522C23.0329 22.0498 22.8161 22.0792 22.3312 21.6444C22.0152 21.3652 21.7274 21.0542 21.4139 20.7725C21.175 20.5469 20.9173 20.3421 20.6437 20.1602C20.1599 19.8565 19.9187 19.8834 19.5219 20.2826C18.9696 20.8447 18.4357 21.4264 17.9018 22.0069C17.3678 22.5874 17.0996 22.5739 16.6196 21.9763C16.2975 21.5771 16.0073 21.1484 15.6864 20.7517C15.2456 20.2104 14.8708 20.2239 14.5414 20.8313C14.0601 21.7179 13.6315 22.6315 13.176 23.5254C12.9849 23.9026 12.7963 24.2798 12.5845 24.6447C12.3396 25.055 12.14 25.0954 11.8203 24.7341C11.535 24.424 11.2998 24.0711 11.1235 23.6883C10.8357 23.0221 10.6337 22.3216 10.7733 21.5746C10.886 21.9004 10.9839 22.2335 11.115 22.5543C11.3109 23.0246 11.5228 23.4911 11.9967 23.7618C12.0628 23.7152 12.1277 23.6944 12.1461 23.6516C12.6053 22.6535 13.0866 21.6652 13.5042 20.65C13.8438 19.8803 13.8094 18.997 13.4111 18.2559C13.8814 17.9326 14.4153 17.8555 14.9676 17.8481C14.9198 19.2319 15.597 20.2655 16.5767 21.1399C17.0164 21.533 17.2686 21.5158 17.7389 21.1497C17.842 21.0732 17.9357 20.9849 18.0181 20.8864C18.4626 20.3267 18.8974 19.7597 19.3407 19.2001C19.4803 19.0237 19.6383 18.8633 19.7926 18.6907C20.509 19.2711 21.1604 19.8051 21.8181 20.3304C22.3361 20.7443 22.7757 20.7088 23.2031 20.2018C23.5215 19.8234 23.8277 19.434 24.113 19.0311C24.5147 18.4641 24.5747 17.8849 24.102 17.3166C24.0557 17.2404 24.0207 17.1579 23.9979 17.0717L26.4471 16.4594C26.429 16.5461 26.3958 16.629 26.3491 16.7043C25.6878 17.4073 25.7466 18.1739 26.1985 18.9295C26.6281 19.6527 27.0983 20.351 27.6068 21.0211C27.8962 21.3762 28.2411 21.6822 28.6281 21.9273C29.0225 22.1918 29.3176 22.0314 29.4131 21.5599C29.4638 21.3276 29.4969 21.0918 29.5123 20.8545C29.5872 19.4632 29.4801 18.068 29.1939 16.7043L31.6064 17.7061L31.5047 18.6049Z" fill="#AEA2B5"/>
<path d="M27.5187 26.7608C27.2109 25.5493 26.6852 24.404 25.9671 23.3809C25.8968 23.2732 25.8208 23.1693 25.7393 23.0699C25.454 22.7466 25.3144 22.7257 25.0241 23.0319C24.7944 23.267 24.5948 23.5299 24.4302 23.8144C24.1277 24.3594 23.8718 24.9288 23.5889 25.4848C23.5007 25.6611 23.3917 25.8265 23.3072 25.9746C22.9398 26.0102 22.8406 25.7665 22.7255 25.5693C22.3116 24.8578 21.9087 24.1377 21.507 23.4176C21.3846 23.1997 21.2829 22.9707 21.1727 22.7478C21.3405 22.8556 21.5144 22.956 21.6748 23.0748C21.9834 23.3062 22.2712 23.5646 22.5896 23.7814C23.2093 24.199 23.5828 24.1487 24.0775 23.5842C24.331 23.2952 24.5478 22.9719 24.8037 22.6853C25.1417 22.3069 25.3989 22.2604 25.8116 22.5629C26.1177 22.7882 26.3688 23.0895 26.6431 23.3589C27.3778 24.0765 28.0991 24.8039 28.8474 25.5068C29.0715 25.6966 29.3208 25.8544 29.5883 25.9759C30.0205 26.1951 30.192 26.151 30.4798 25.764C30.9963 25.0902 31.3768 24.3224 31.6003 23.5034C31.7913 22.7686 32.2738 22.2506 32.8396 21.8061C33.3503 21.4056 33.7801 21.4754 34.161 22.002C34.3564 22.2902 34.5245 22.5961 34.6631 22.9156C34.81 23.2303 34.9153 23.5646 35.05 23.8867C35.3733 24.6606 35.5693 24.69 36.1754 24.1316C36.5143 23.8242 36.8767 23.5437 37.2592 23.2927C37.4797 23.1458 37.7491 23.0711 38.1238 22.9082C38.0972 23.1206 38.0542 23.3306 37.9952 23.5364C37.6748 24.3982 37.2106 25.1994 36.6224 25.9061C36.1999 26.3959 35.6917 26.7449 35.0304 26.8025C34.3961 26.8588 33.7581 26.8882 33.1213 26.9249C33.1886 26.7559 33.2437 26.5808 33.3282 26.4204C33.7092 25.7034 33.8747 24.8915 33.8046 24.0826C33.7458 23.4066 33.5756 22.7662 33.1298 22.2286C31.4742 23.2719 31.4411 25.6869 32.7245 26.9249C32.673 26.9424 32.6195 26.9535 32.5653 26.958C30.8835 26.8951 29.2013 26.8294 27.5187 26.7608Z" fill="#ADA1B5"/>
<path d="M23.9942 17.0717C24.017 17.1579 24.0521 17.2404 24.0983 17.3166C24.571 17.8898 24.511 18.469 24.1093 19.0311C23.824 19.434 23.5178 19.8234 23.1994 20.2018C22.772 20.7088 22.3324 20.7443 21.8144 20.3304C21.1568 19.805 20.5053 19.2711 19.7889 18.6907C19.6346 18.8633 19.4766 19.0237 19.337 19.2001C18.8937 19.7597 18.459 20.3267 18.0144 20.8864C17.9321 20.9848 17.8383 21.0732 17.7352 21.1497C17.265 21.5171 17.0127 21.533 16.5731 21.1399C15.5934 20.2655 14.9162 19.2319 14.9639 17.8481C15.4758 17.8383 15.9889 17.7906 16.4971 17.8249C18.857 17.9841 21.1617 17.6252 23.4542 17.1256C23.6331 17.0984 23.8134 17.0804 23.9942 17.0717Z" fill="#E4DFDE"/>
<path d="M29.1914 16.7166C29.4777 18.0802 29.5847 19.4754 29.5098 20.8668C29.4945 21.1041 29.4613 21.3399 29.4107 21.5722C29.3151 22.0387 29.02 22.1992 28.6257 21.9396C28.2387 21.6945 27.8938 21.3884 27.6044 21.0333C27.0958 20.3632 26.6257 19.6649 26.196 18.9417C25.7442 18.1861 25.6854 17.4195 26.3467 16.7166C26.3934 16.6413 26.4265 16.5584 26.4446 16.4717C27.365 16.2915 28.3175 16.3765 29.1914 16.7166Z" fill="#E4DFDF"/>
<path d="M20.891 22.5886C20.4428 22.4931 20.122 22.689 19.8367 23.0184C19.2243 23.7226 18.857 24.5578 18.4786 25.393C18.2545 25.8828 18.0389 26.3886 17.7867 26.9641C17.5968 26.8208 17.4548 26.7608 17.3887 26.6543C17.1437 26.2673 16.9257 25.8669 16.7053 25.4677C16.4849 25.0684 16.2816 24.6104 16.0269 24.2137C15.8567 23.9455 15.6509 23.9479 15.4391 24.1781C14.4949 25.2031 13.8887 26.391 13.732 27.7907C13.705 28.0271 13.6732 28.2622 13.6438 28.4986C12.8845 28.7435 12.1277 29.0092 11.317 28.9676C11.3513 28.5524 11.4628 28.1238 11.3991 27.7246C11.328 27.2838 11.0966 26.8674 10.9349 26.4412C10.7733 26.0151 10.6006 25.5583 10.4341 25.1174C10.7035 25.4603 10.9545 25.8203 11.2472 26.1424C11.5428 26.4894 11.875 26.8035 12.2379 27.0792C12.6543 27.3731 12.9127 27.2789 13.1882 26.8404C13.6585 26.0959 14.1214 25.3476 14.5892 24.6031C14.6676 24.4806 14.7521 24.3582 14.8341 24.2357C15.3925 23.4568 15.7354 23.4066 16.5057 23.9908C16.6661 24.1132 16.818 24.2467 16.9809 24.3655C17.5123 24.7513 17.7364 24.7402 18.2189 24.2577C18.7369 23.7397 19.2329 23.1984 19.7473 22.6755C20.1563 22.2788 20.3828 22.2604 20.891 22.5886Z" fill="#AEA2B5"/>
<path d="M10.4317 25.1174C10.5949 25.5583 10.7619 25.9995 10.9325 26.4412C11.0942 26.8674 11.3256 27.2838 11.3967 27.7246C11.4603 28.1238 11.3489 28.5525 11.3146 28.9676C10.5333 29.0227 9.93325 28.659 9.44953 28.1006C8.81273 27.3658 8.37922 26.5 8.28737 25.5411C8.19515 24.7645 8.42481 23.9839 8.92294 23.3809C9.49311 23.8164 9.97485 24.3567 10.3423 24.9729L10.4304 25.1113L10.4317 25.1174Z" fill="#E3DEDD"/>
<path d="M13.4075 18.2632C13.8058 19.0043 13.8401 19.8876 13.5005 20.6574C13.0829 21.6726 12.6017 22.6608 12.1424 23.6589C12.1241 23.7017 12.0592 23.7226 11.993 23.7691C11.5191 23.4985 11.3073 23.0343 11.1113 22.5616C10.9803 22.2432 10.8823 21.9101 10.7697 21.5819C10.8259 21.3349 10.9021 21.0929 10.9974 20.8582C11.4317 19.9468 12.079 19.1534 12.8846 18.5449C13.0518 18.4385 13.2266 18.3444 13.4075 18.2632Z" fill="#E3DEDE"/>
<path d="M32.7257 26.9323C31.4423 25.6942 31.4754 23.2793 33.131 22.2359C33.5768 22.7735 33.7433 23.414 33.8058 24.09C33.8759 24.8989 33.7104 25.7108 33.3294 26.4277C33.2462 26.5882 33.1898 26.7633 33.1225 26.9323H32.7257Z" fill="#E4DFDE"/>
<path d="M31.5048 18.6049L31.604 17.7146L32.9388 18.3673C32.6608 19.1609 32.4489 19.347 31.8366 19.3678C31.724 19.1156 31.6133 18.8612 31.5048 18.6049Z" fill="#E2DDDC"/>
<path d="M34.3814 19.4144C34.8529 19.4536 35.884 20.1749 36.9139 21.1668C36.4926 21.4484 36.2747 21.4619 35.9342 21.13C35.5938 20.7982 35.3219 20.4516 35.0207 20.1112C34.8137 19.8834 34.6067 19.6581 34.3814 19.4144Z" fill="#A99DB0"/>
<path d="M31.8329 19.3715C32.4538 19.3519 32.6608 19.1646 32.9351 18.371C33.6564 18.6882 33.8976 18.8535 34.1034 19.1781C33.556 19.0029 33.556 19.0029 33.0294 19.385C32.7183 19.6103 32.4085 19.8381 32.0962 20.0634C32.0458 20.0847 31.9932 20.1007 31.9395 20.1112C31.9125 19.8602 31.8697 19.6152 31.8329 19.3715Z" fill="#AB9FB2"/>
<path d="M10.4595 25.1292L10.347 24.9729L10.4595 25.1292Z" fill="#AEA2B5"/>
</svg>
