<svg width="50" height="50" viewBox="0 0 50 50" fill="none" xmlns="http://www.w3.org/2000/svg">
<path d="M24.6325 7C24.8137 7.06001 24.9998 7.10899 25.1762 7.18247C26.0885 7.5572 27.0058 7.92581 27.9071 8.32625C28.2024 8.4643 28.529 8.52176 28.8537 8.4928C29.8591 8.41198 30.867 8.37034 31.8748 8.32625C32.4772 8.28501 33.051 8.58806 33.3566 9.10878C33.5758 9.44677 33.806 9.77864 34.0436 10.1056C34.2812 10.4326 34.5959 10.5648 35.0441 10.4816C36.8737 10.146 38.7179 9.96846 40.5671 10.3199C41.2419 10.4485 41.897 10.7093 42.5449 10.9543C43.0739 11.1551 43.3102 11.5996 43.3849 12.1495C43.5672 13.5538 43.5469 14.977 43.3249 16.3756C43.1743 17.3688 42.9135 18.346 42.6845 19.3257C42.6404 19.5119 42.5889 19.66 42.7322 19.8315C44.274 21.6806 44.1773 23.6902 43.3004 25.7721C42.6477 27.3286 41.6766 28.6818 40.6859 30.0227C37.8411 33.8851 34.4943 37.281 30.9417 40.4833C30.3147 41.0491 29.6803 41.6088 29.0117 42.1231C27.5911 43.2154 25.9942 43.8461 24.1757 43.818C23.0735 43.8008 22.0485 43.4714 21.0737 42.973C19.6458 42.2382 18.349 41.3112 17.0852 40.3364C14.391 38.2545 11.8487 36.0049 9.58934 33.4553C8.69415 32.4462 7.9055 31.3306 7.08868 30.2468C6.66471 29.6682 6.35734 29.0127 6.18369 28.3168C6.1355 28.1883 6.07393 28.0651 6 27.9494V25.7451C6.0649 25.6031 6.13961 25.4647 6.19104 25.3177C6.42127 24.6626 6.58536 23.9768 6.88172 23.3522C9.47912 17.8709 13.1787 13.2455 17.8408 9.38799C19.0935 8.35197 20.4957 7.5572 22.1024 7.18369C22.2886 7.13961 22.4698 7.06123 22.6474 7.0049L24.6325 7ZM17.4636 37.543C17.5052 37.5773 17.5481 37.6104 17.5861 37.6435L17.793 37.7537C17.8778 37.8841 17.9799 38.0024 18.0967 38.1051C19.1537 38.8276 20.3083 39.3958 21.5256 39.7927C22.149 40.008 22.8284 39.9972 23.4446 39.762C24.8064 39.2526 26.0775 38.6489 26.751 37.243C26.7822 37.1772 26.8195 37.1145 26.8625 37.0556C27.2789 36.464 27.9308 36.0813 28.6504 36.0062C29.3742 35.9266 30.1065 35.9217 30.8363 35.8837C31.5246 35.8506 32.1553 35.6388 32.5508 35.0583C32.8104 34.6738 32.9684 34.2096 33.1154 33.7639C33.3407 33.0806 33.7656 32.6323 34.4624 32.4511C34.7387 32.3625 35.0217 32.2961 35.3086 32.2527C36.9937 32.0984 38.195 31.1506 39.1049 29.8353C39.6952 28.9879 40.1581 28.0425 40.5941 27.1032C41.2693 25.6881 41.7536 24.1895 42.0342 22.6469C42.1799 21.7994 41.7231 20.9496 40.8414 20.9985C40.8659 20.8761 40.8843 20.7536 40.9186 20.6312C41.1635 19.7531 41.4354 18.88 41.6754 17.9995C42.1444 16.2764 42.382 14.5399 42.0746 12.7508C41.9754 12.174 41.7072 11.8715 41.161 11.7515C40.167 11.5133 39.1425 11.4282 38.1228 11.4992C36.4769 11.6388 34.8567 11.8666 33.2978 12.4324C33.1661 12.4717 33.0325 12.504 32.8974 12.5291C32.8974 12.0919 32.928 11.7062 32.8974 11.3278C32.7908 10.2354 32.53 9.94397 31.7058 9.79579C30.8486 9.64271 29.9375 9.56066 29.0876 9.6917C26.718 10.0591 24.5725 11.0241 22.6523 12.4691C22.1441 12.8512 21.6518 13.2553 21.1068 13.6839C20.5937 13.0545 19.8822 13.0802 19.2234 13.1941C18.4143 13.3355 17.6199 13.5507 16.8501 13.837C14.3713 14.7482 12.1906 16.3228 10.5458 18.3889C8.6672 20.745 7.49525 23.3743 7.64955 26.4713C7.67905 27.0385 7.81707 27.5947 8.05612 28.1099C8.26729 28.6316 8.74715 28.9958 9.30645 29.0589C9.65914 29.2794 10.0167 29.4949 10.3645 29.7227C11.914 30.7187 13.3454 31.8876 14.6311 33.2067C14.7916 33.346 14.9655 33.469 15.1503 33.5741L15.2568 33.797L15.3634 34.0137C15.4785 34.2586 15.5875 34.5097 15.7075 34.7485C16.1618 35.6706 16.4545 36.6858 17.2517 37.4083L17.4599 37.5406L17.4636 37.543Z" fill="#4CB6CD"/>
<path d="M17.7979 37.7537L17.591 37.6435L17.4685 37.543L17.2603 37.4108C16.4631 36.6883 16.1704 35.6731 15.7161 34.7509C15.5936 34.506 15.4871 34.2611 15.372 34.0162L15.2654 33.7994L15.1503 33.5741C15.1432 33.5019 15.1276 33.4308 15.1038 33.3622C14.6262 32.3752 14.167 31.3771 13.6575 30.4072C13.3406 29.8291 12.9919 29.269 12.6129 28.7295C12.0582 27.9127 11.6136 27.8502 10.8458 28.4417C10.7601 28.5079 10.6658 28.5642 10.5813 28.634C10.2216 28.9249 9.76877 29.0758 9.30647 29.0589C8.747 28.9965 8.26665 28.6327 8.05492 28.1111C7.81613 27.5955 7.67853 27.0388 7.64957 26.4713C7.49527 23.3755 8.66723 20.7463 10.5458 18.3889C12.1879 16.3253 14.3646 14.7517 16.8391 13.8395C17.6089 13.5532 18.4033 13.338 19.2124 13.1965C19.8773 13.0741 20.5827 13.052 21.0958 13.6864C21.6408 13.2578 22.1331 12.8537 22.6413 12.4716C24.5615 11.0216 26.707 10.0615 29.0766 9.69415C29.9265 9.56312 30.84 9.64517 31.6948 9.79825C32.5251 9.94642 32.7798 10.2379 32.8864 11.3302C32.9231 11.7086 32.8864 12.0944 32.8864 12.5316C33.0215 12.5064 33.1551 12.4741 33.2868 12.4348C34.8458 11.8654 36.4708 11.6413 38.1118 11.5017C39.1315 11.4306 40.156 11.5157 41.1501 11.754C41.6987 11.8764 41.9644 12.1764 42.0636 12.7532C42.371 14.5424 42.1334 16.2789 41.6644 18.0019C41.4195 18.8824 41.1586 19.7556 40.9076 20.6336C40.8733 20.7561 40.8549 20.8785 40.8304 21.001C40.7539 21.1419 40.6864 21.2875 40.6284 21.437C40.1243 22.9856 39.4783 24.4844 38.6984 25.9141C37.7383 27.6751 36.3716 28.9757 34.3535 29.4129C33.2513 29.6578 32.6292 29.4888 32.2716 28.3389C32.2009 28.0553 32.1092 27.7774 31.9973 27.5074C31.8748 27.2624 31.6814 27.0469 31.4413 26.7101C31.3458 26.9979 31.2821 27.1436 31.2491 27.2943C31.1266 27.8466 31.0678 28.4136 30.9037 28.9512C30.5363 30.1525 30.1273 31.3416 29.722 32.5319C29.5738 32.9691 29.2627 33.1785 28.7876 33.2606C28.0649 33.3678 27.3298 33.3616 26.609 33.2422C25.8057 33.1308 25.5436 32.9079 25.3024 32.1401C25.1595 31.6693 24.9794 31.2106 24.7635 30.7685C24.4066 30.048 23.7659 29.5085 22.9952 29.2794C22.9535 29.8158 22.9009 30.3044 22.8788 30.7942C22.8323 31.8731 22.8188 32.9532 22.7564 34.0309C22.6927 35.133 22.3523 36.169 21.86 37.1659C21.342 38.2166 20.2937 38.4382 19.4683 38.2545C18.9038 38.1247 18.3539 37.9227 17.7979 37.7537ZM40.2892 15.271C40.3234 15.1667 40.3472 15.0592 40.3602 14.9502C40.3883 13.804 40.0626 13.3276 38.8466 13.2847H38.7363C37.7175 13.259 36.7378 13.4598 35.7581 13.728C34.7429 14.0072 33.7779 14.404 32.9745 15.1094C32.8344 15.2194 32.7363 15.3741 32.6966 15.5478C32.5606 16.9194 32.4516 18.2885 32.3292 19.6588C32.2337 20.3617 32.1385 21.0647 32.0438 21.7676C31.93 22.6175 31.821 23.4698 31.6997 24.3197C31.6581 24.6087 31.7107 24.8034 32.0218 24.9124C32.492 25.0777 32.8166 25.4341 33.0566 25.8566C33.2464 26.1897 33.4142 26.5375 33.5709 26.8877C33.6934 27.1767 33.8489 27.2735 34.2041 27.222C34.921 27.1343 35.5709 26.7574 36.003 26.1787C36.4757 25.5517 36.9496 24.9087 37.2938 24.2083C38.2238 22.3421 39.0146 20.4097 39.6597 18.4269C39.9903 17.3982 40.2892 16.3634 40.2892 15.271ZM30.8939 13.9325C30.905 13.3692 30.9576 12.8022 30.9135 12.2426C30.8756 11.7772 30.5682 11.5249 30.0979 11.5078C29.6961 11.4838 29.2929 11.5106 28.8978 11.5874C26.26 12.1936 24.0214 13.5235 22.0877 15.3959C21.9077 15.5711 21.8771 15.7254 21.9334 15.9764C22.1282 16.8496 22.2898 17.7301 22.4466 18.6118C22.5604 19.2584 22.6449 19.9099 22.7429 20.5589C22.7429 20.7059 22.7429 20.8528 22.7429 20.9998C22.8164 22.924 22.8915 24.8479 22.9682 26.7714C22.9787 26.8318 22.9955 26.8909 23.0185 26.9477C23.2242 27.0028 23.4373 27.0518 23.6455 27.1192C24.9925 27.5514 25.8559 28.4981 26.4621 29.7398C26.6373 30.1209 26.8653 30.4754 27.1393 30.793C27.4564 31.1432 27.7944 31.1053 28.1532 30.793C28.5432 30.45 28.8125 29.9905 28.9211 29.4827C29.1366 28.503 29.3179 27.5123 29.4783 26.5215C29.7101 25.0961 29.9232 23.6674 30.1175 22.2354C30.262 21.1663 30.3624 20.0911 30.4849 19.0171C30.5902 18.0374 30.6968 17.0577 30.78 16.0683C30.8315 15.358 30.8596 14.6453 30.8939 13.9325ZM20.5251 18.4636C20.3843 17.7288 20.2974 16.9794 20.088 16.2593C19.843 15.4094 19.3446 15.1682 18.496 15.3764C18.1907 15.444 17.8956 15.551 17.6179 15.6948C16.6076 16.2458 15.5826 16.781 14.6164 17.4019C12.5529 18.7208 11.0932 20.5712 10.1184 22.8097C9.73019 23.7037 9.45833 24.6344 9.462 25.6141C9.43873 26.3085 9.56119 26.4542 10.2262 26.393C10.5345 26.3617 10.8345 26.2746 11.1116 26.1358C11.4863 25.9484 11.4863 25.7684 11.1899 25.4757C11.1042 25.3888 11.0344 25.2871 10.9548 25.1916C11.1177 24.8953 11.3222 24.8242 11.6173 24.9014C12.4745 25.1083 13.1971 25.521 13.6857 26.2485C14.1775 26.955 14.6191 27.6953 15.007 28.4638C15.7271 29.9664 16.3615 31.5094 17.0509 33.0267C17.3926 33.7761 17.7502 34.5219 18.1531 35.242C18.4655 35.8092 19.1107 36.107 19.7451 35.9768C20.3892 35.869 20.6745 35.422 20.7774 34.8428C20.8991 34.2524 20.9736 33.6533 21.0003 33.0512C21.0297 30.7236 21.0354 28.3968 21.0174 26.0709C21.0089 24.7691 20.9746 23.4661 20.895 22.1668C20.808 20.9336 20.6488 19.698 20.5251 18.4599V18.4636Z" fill="#4E4040"/>
<path d="M17.7979 37.7537C18.3539 37.9227 18.9001 38.1211 19.4695 38.2509C20.2949 38.4346 21.3432 38.2129 21.8612 37.1622C22.351 36.1654 22.6939 35.1342 22.7576 34.0272C22.82 32.9495 22.8335 31.8694 22.8801 30.7905C22.9021 30.3007 22.9548 29.8109 22.9964 29.2757C23.7671 29.5048 24.4078 30.0443 24.7647 30.7648C24.9806 31.2069 25.1607 31.6656 25.3036 32.1364C25.5485 32.9079 25.8069 33.1308 26.6102 33.2385C27.331 33.3579 28.0661 33.3641 28.7888 33.2569C29.264 33.1749 29.575 32.9655 29.7232 32.5283C30.1285 31.3379 30.5376 30.1488 30.9049 28.9475C31.069 28.4099 31.1327 27.8453 31.2503 27.2906C31.2833 27.14 31.347 26.9942 31.4425 26.7065C31.6875 27.0432 31.8761 27.2551 31.9985 27.5037C32.1104 27.7737 32.2021 28.0516 32.2728 28.3352C32.6402 29.4851 33.2525 29.6517 34.3547 29.4092C36.3777 28.9659 37.7395 27.6715 38.6996 25.9105C39.4795 24.4807 40.1255 22.9819 40.6296 21.4333C40.6876 21.2838 40.7551 21.1382 40.8316 20.9973C41.7134 20.9483 42.1701 21.7982 42.0244 22.6456C41.7438 24.1883 41.2595 25.6869 40.5843 27.102C40.1483 28.0413 39.6854 28.9867 39.0951 29.8341C38.1816 31.1445 36.9802 32.0972 35.2988 32.2515C35.0119 32.2949 34.729 32.3613 34.4526 32.4499C33.7558 32.6311 33.3309 33.0793 33.1056 33.7627C32.9586 34.2084 32.8006 34.6726 32.541 35.0571C32.1491 35.6388 31.5185 35.8494 30.8266 35.8825C30.0918 35.9168 29.3644 35.9217 28.6406 36.0049C27.921 36.0801 27.2691 36.4628 26.8527 37.0544C26.8098 37.1133 26.7724 37.176 26.7413 37.2418C26.0702 38.6477 24.799 39.2514 23.4348 39.7608C22.8186 39.996 22.1393 40.0068 21.5158 39.7914C20.2985 39.3946 19.144 38.8264 18.0869 38.1039C17.9754 38.0006 17.8782 37.8828 17.7979 37.7537ZM9.30646 29.0589C9.76834 29.0755 10.2206 28.9246 10.5801 28.634C10.6646 28.5654 10.7588 28.5115 10.8446 28.4417C11.6124 27.8502 12.0569 27.9127 12.6117 28.7295C12.9905 29.2678 13.3392 29.8267 13.6563 30.4036C14.1657 31.3735 14.6249 32.3715 15.1025 33.3586C15.1264 33.4271 15.142 33.4982 15.1491 33.5704C14.9643 33.4654 14.7904 33.3423 14.6298 33.203C13.3445 31.884 11.9136 30.7151 10.3645 29.719C10.018 29.4949 9.66037 29.2794 9.30646 29.0589Z" fill="#3479B7"/>
<path d="M15.1525 33.5741L15.2884 33.797L15.1525 33.5741ZM15.2602 33.7933L15.3962 34.0101L15.2602 33.7933Z" fill="#017B8F"/>
<path d="M17.2529 37.4095L17.4611 37.5658L17.2529 37.4095ZM17.4636 37.5461L17.6198 37.6742L17.4636 37.5461Z" fill="#E27B11"/>
<path d="M20.5251 18.4599C20.6476 19.698 20.808 20.9337 20.8925 22.173C20.9758 23.4723 21.015 24.7753 21.015 26.077C21.0305 28.4062 21.0248 30.733 20.9978 33.0573C20.9711 33.6595 20.8966 34.2586 20.7749 34.8489C20.6721 35.4282 20.3867 35.8752 19.7426 35.9829C19.1083 36.1132 18.463 35.8154 18.1506 35.2481C17.7526 34.5281 17.395 33.7786 17.0484 33.0328C16.359 31.5155 15.7246 29.9713 15.0046 28.4699C14.6166 27.7014 14.1751 26.9611 13.6832 26.2546C13.1934 25.5198 12.4659 25.1096 11.6148 24.9075C11.3246 24.8365 11.1152 24.9014 10.9523 25.1978C11.0319 25.2933 11.1017 25.3949 11.1874 25.4819C11.4838 25.7782 11.4838 25.9546 11.1091 26.1419C10.832 26.2807 10.532 26.3679 10.2237 26.3991C9.55871 26.4603 9.43625 26.3146 9.45952 25.6203C9.63097 25.4721 9.85507 25.3545 9.96161 25.1696C10.438 24.3491 10.8825 23.509 11.3344 22.6751C11.6161 22.1534 12.0153 22.0248 12.4966 22.375C12.8685 22.6697 13.2223 22.9866 13.5558 23.3241C14.2563 23.9805 15.034 24.3295 15.994 23.9364C16.6765 23.6597 17.2754 23.2102 17.7318 22.6322C18.7751 21.3182 19.805 19.9907 20.5251 18.4599ZM30.8939 13.9326C30.8547 14.6453 30.8314 15.358 30.7714 16.0695C30.6882 17.0492 30.5816 18.0362 30.4763 19.0184C30.3624 20.0924 30.2583 21.1676 30.1089 22.2366C29.9154 23.6686 29.7024 25.0973 29.4697 26.5228C29.3093 27.5135 29.128 28.503 28.9125 29.4839C28.8039 29.9918 28.5346 30.4512 28.1446 30.7942C27.7858 31.109 27.4478 31.1469 27.1307 30.7942C26.8567 30.4767 26.6287 30.1221 26.4535 29.7411C25.8522 28.4993 24.9839 27.5527 23.6369 27.1204C23.4287 27.053 23.2156 27.0041 23.0099 26.949C22.9869 26.8921 22.9701 26.833 22.9596 26.7726C22.8837 24.8492 22.8086 22.9253 22.7343 21.001C22.7343 20.8541 22.7343 20.7071 22.7343 20.5602C23.4801 21.0353 23.8842 21.0194 24.4769 20.4193C25.6297 19.2649 26.767 18.0983 27.8887 16.9194C28.6173 16.1528 29.3019 15.3433 30.0318 14.5792C30.2779 14.3244 30.6049 14.1469 30.8939 13.9326ZM40.2891 15.2711C40.2891 16.3634 39.9879 17.3982 39.6584 18.4269C39.0134 20.4097 38.2226 22.3421 37.2925 24.2083C36.9484 24.9088 36.4745 25.5553 36.0018 26.1787C35.5685 26.7585 34.9166 27.1356 34.1979 27.222C33.8428 27.2735 33.6934 27.1767 33.5648 26.8877C33.408 26.5375 33.2403 26.1897 33.0504 25.8566C32.8055 25.4341 32.4859 25.0777 32.0156 24.9124C31.7046 24.8034 31.6483 24.6087 31.6936 24.3197C31.816 23.4698 31.9238 22.6175 32.0377 21.7676C32.134 21.0663 32.2312 20.3634 32.3291 19.6588C32.4063 19.9711 32.4516 20.3079 32.928 20.4806C33.0504 20.3275 33.1729 20.1401 33.3199 19.9797C34.2071 19.028 35.184 18.1639 36.2369 17.3994C37.4823 16.4969 38.7926 15.7021 40.2891 15.2711Z" fill="#D8A87C"/>
<path d="M20.5251 18.4599C19.805 19.9907 18.7751 21.3182 17.7342 22.6334C17.2778 23.2114 16.679 23.6609 15.9965 23.9376C15.0364 24.3283 14.2588 23.9793 13.5583 23.3253C13.2247 22.9878 12.871 22.6709 12.499 22.3762C12.0177 22.026 11.6185 22.1546 11.3369 22.6763C10.885 23.5102 10.4404 24.3503 9.96407 25.1708C9.85752 25.3557 9.63342 25.4733 9.46198 25.6215C9.46198 24.6332 9.73016 23.7062 10.1184 22.8122C11.0981 20.5736 12.5529 18.7232 14.6164 17.3982C15.5826 16.7749 16.6076 16.2397 17.6179 15.6948C17.8941 15.5519 18.1875 15.4452 18.491 15.3776C19.3483 15.1694 19.8381 15.4107 20.083 16.2605C20.2973 16.9757 20.3843 17.7252 20.5251 18.4599ZM30.8939 13.9325C30.6049 14.1469 30.2816 14.3244 30.0367 14.5816C29.3019 15.3458 28.6222 16.1552 27.8936 16.9218C26.7686 18.1015 25.6346 19.2682 24.4916 20.4218C23.8989 21.0218 23.4948 21.0341 22.749 20.5626C22.651 19.9136 22.5665 19.2621 22.4527 18.6155C22.2959 17.7337 22.1343 16.8532 21.9395 15.9801C21.8832 15.7352 21.9138 15.5748 22.0938 15.3996C24.0214 13.5272 26.26 12.1973 28.9002 11.5911C29.2953 11.5143 29.6986 11.4875 30.1004 11.5115C30.5706 11.525 30.878 11.7772 30.9159 12.2463C30.9576 12.8022 30.9049 13.368 30.8939 13.9325ZM40.2891 15.271C38.7902 15.7021 37.4799 16.4957 36.2308 17.3994C35.1787 18.1644 34.2026 19.0289 33.3162 19.9809C33.1656 20.1413 33.0431 20.3287 32.9243 20.4818C32.4443 20.3091 32.4026 19.9723 32.3255 19.6601C32.4516 18.2885 32.5606 16.9194 32.6965 15.5478C32.735 15.3748 32.8313 15.2202 32.9696 15.1094C33.773 14.404 34.738 14.0073 35.7532 13.728C36.7329 13.4598 37.7125 13.259 38.7351 13.2835H38.8453C40.0613 13.3264 40.3871 13.8027 40.3589 14.949C40.3464 15.0584 40.323 15.1663 40.2891 15.271Z" fill="#FCE3C2"/>
</svg>
