<svg width="32" height="28" viewBox="0 0 32 28" fill="none" xmlns="http://www.w3.org/2000/svg">
<path d="M9.31485 25.7799L9.12436 25.6796L9.01265 25.5879L8.82216 25.4662C8.09029 24.8031 7.82247 23.8736 7.40569 23.0285C7.29397 22.8037 7.19658 22.5788 7.0906 22.354L6.9932 22.1563L6.88722 21.9486C6.88149 21.8828 6.86717 21.8183 6.84425 21.7553C6.40742 20.8501 5.98635 19.9349 5.51944 19.0469C5.2287 18.517 4.90931 18.0028 4.56128 17.5087C4.05284 16.7597 3.64608 16.7024 2.94143 17.2452C2.86265 17.3053 2.77672 17.3569 2.69938 17.4214C2.36997 17.6878 1.95462 17.8267 1.53068 17.8109C1.01794 17.7536 0.578246 17.4199 0.383463 16.9416C0.164332 16.4689 0.0382956 15.9591 0.0125155 15.4392C-0.129275 12.6005 0.944897 10.1915 2.66644 8.03023C4.17171 6.13825 6.16681 4.696 8.43546 3.85957C9.14155 3.59747 9.86912 3.39983 10.611 3.27093C11.2197 3.15778 11.8671 3.13773 12.3369 3.71921C12.8367 3.32678 13.2879 2.95584 13.7533 2.60637C15.5135 1.27726 17.48 0.396441 19.6527 0.059867C20.4318 -0.0604403 21.2697 0.0154679 22.0531 0.155826C22.8136 0.291888 23.0471 0.558283 23.1445 1.55941C23.1788 1.90744 23.1445 2.25977 23.1445 2.6608C23.2691 2.63788 23.3908 2.6078 23.5125 2.572C24.9405 2.05067 26.43 1.84443 27.9353 1.71696C28.8691 1.65251 29.8086 1.72985 30.7195 1.94898C31.2222 2.06069 31.4657 2.33568 31.5574 2.86417C31.8381 4.50408 31.6204 6.09528 31.1907 7.67503C30.9659 8.48281 30.7281 9.28343 30.4975 10.0883C30.466 10.2001 30.4488 10.3118 30.4259 10.4249C30.3557 10.5538 30.2942 10.687 30.2412 10.8245C29.78 12.2438 29.187 13.6174 28.4724 14.9278C27.5915 16.542 26.3398 17.7336 24.4893 18.1346C23.4796 18.3595 22.9096 18.2048 22.5816 17.1507C22.5171 16.89 22.4326 16.6365 22.3295 16.3887C22.2178 16.1639 22.0402 15.9662 21.8196 15.6569C21.7323 15.9218 21.675 16.055 21.6435 16.1925C21.5318 16.6995 21.4773 17.2194 21.327 17.7121C20.9904 18.8135 20.6151 19.9034 20.2442 20.9933C20.1081 21.3944 19.8231 21.5863 19.3877 21.6622C18.726 21.7596 18.0515 21.7539 17.3912 21.645C16.655 21.5433 16.4144 21.3385 16.1924 20.6353C16.0621 20.2027 15.8974 19.7831 15.6997 19.3778C15.3718 18.7175 14.7845 18.222 14.0784 18.0129C14.0398 18.5041 13.9925 18.9524 13.971 19.4007C13.9295 20.3904 13.9166 21.38 13.8593 22.3683C13.8006 23.378 13.4884 24.3276 13.0372 25.2413C12.5631 26.2052 11.6021 26.4072 10.8459 26.2396C10.3274 26.1207 9.82329 25.936 9.31485 25.7799ZM29.9304 5.1715C29.9619 5.07697 29.9834 4.97814 29.9948 4.87789C30.022 3.82806 29.7227 3.39123 28.6084 3.35113H28.5067C27.5729 3.32822 26.6749 3.51154 25.7769 3.75789C24.846 4.01425 23.9623 4.37804 23.2261 5.02398C23.0972 5.12423 23.007 5.26602 22.9712 5.42643C22.8466 6.6825 22.7463 7.93856 22.6346 9.19463C22.5472 9.83913 22.4599 10.4822 22.3725 11.1267C22.2679 11.9058 22.1677 12.6878 22.0574 13.467C22.0187 13.7319 22.0674 13.9095 22.3524 14.0098C22.7835 14.1616 23.0814 14.4882 23.3006 14.8749C23.4753 15.1799 23.6286 15.4993 23.7718 15.8201C23.8849 16.0851 24.0267 16.1739 24.3533 16.1266C25.0092 16.0464 25.605 15.7013 26.0018 15.1699C26.4343 14.5956 26.8697 14.0069 27.1848 13.3639C28.037 11.6538 28.7617 9.8821 29.3532 8.0646C29.6568 7.12219 29.9304 6.17406 29.9304 5.1715ZM21.3184 3.94551C21.3284 3.42847 21.3771 2.90857 21.337 2.39583C21.3012 1.96903 21.0205 1.73844 20.5894 1.72269C20.2213 1.7012 19.8503 1.72555 19.4894 1.79573C17.0704 2.35144 15.0194 3.57026 13.2463 5.28607C13.0816 5.44648 13.053 5.58827 13.1045 5.81886C13.2836 6.61948 13.4311 7.42583 13.5757 8.23504C13.6803 8.82655 13.7576 9.42379 13.8464 10.0196V10.4235C13.9137 12.1866 13.9839 13.9511 14.0541 15.7141C14.0627 15.7686 14.0784 15.823 14.0999 15.876C14.2876 15.9261 14.4838 15.9705 14.6743 16.0321C15.9088 16.4288 16.7009 17.2968 17.2566 18.4339C17.417 18.7834 17.6261 19.1085 17.8767 19.4007C18.1675 19.7215 18.4768 19.6857 18.8062 19.4007C19.1643 19.0856 19.4106 18.6645 19.5095 18.1991C19.7071 17.3011 19.8732 16.393 20.0208 15.485C20.2327 14.1774 20.429 12.8683 20.6066 11.5564C20.7397 10.5753 20.8314 9.58993 20.9431 8.60598C21.0405 7.70798 21.1379 6.80997 21.2138 5.90337C21.2611 5.2517 21.2869 4.5986 21.3184 3.94551ZM11.8141 8.09897C11.6852 7.42439 11.605 6.73836 11.4131 6.0781C11.1896 5.29896 10.7328 5.0784 9.95362 5.26889C9.67434 5.33047 9.40365 5.4293 9.14871 5.56106C8.22349 6.06521 7.28395 6.55646 6.3974 7.12506C4.50685 8.33386 3.16915 10.0311 2.27544 12.082C1.91881 12.9012 1.66961 13.7549 1.6739 14.6529C1.65242 15.2888 1.76413 15.4234 2.37426 15.3661C2.65641 15.3389 2.9314 15.2587 3.1849 15.1312C3.52864 14.9594 3.52864 14.7946 3.25795 14.5254C3.17918 14.4466 3.11473 14.3535 3.04168 14.2662C3.19063 13.994 3.37826 13.9296 3.64895 13.9998C4.43524 14.1888 5.09693 14.5669 5.54522 15.2343C5.99637 15.8817 6.40026 16.5606 6.75545 17.2652C7.41571 18.6416 7.9972 20.0567 8.63024 21.4474C8.94247 22.1348 9.27045 22.818 9.63997 23.4783C9.92641 23.9982 10.5179 24.2703 11.0994 24.1514C11.6895 24.0526 11.9516 23.643 12.0461 23.1116C12.1564 22.5717 12.2251 22.0217 12.2495 21.4703C12.2767 19.3363 12.2824 17.2037 12.2652 15.0711C12.2581 13.878 12.2266 12.6835 12.1535 11.4934C12.0733 10.3633 11.9272 9.23044 11.8141 8.09468V8.09897Z" fill="#4E4040"/>
<path d="M9.31487 25.7799C9.82331 25.936 10.3246 26.1164 10.8459 26.2367C11.6036 26.4043 12.5646 26.2009 13.0387 25.2385C13.4884 24.3247 13.802 23.3795 13.8608 22.364C13.9181 21.3772 13.9295 20.3861 13.9725 19.3979C13.9925 18.9481 14.0412 18.4998 14.0799 18.0086C14.786 18.2191 15.3732 18.7132 15.6998 19.3735C15.8988 19.7788 16.0635 20.1999 16.1939 20.631C16.4187 21.3385 16.655 21.5433 17.3926 21.6422C18.0529 21.751 18.7261 21.7567 19.3892 21.6579C19.8246 21.5834 20.1096 21.3915 20.2456 20.9905C20.6166 19.8991 20.9918 18.8092 21.3284 17.7078C21.4788 17.2151 21.5375 16.6981 21.6449 16.1897C21.675 16.0522 21.7337 15.9175 21.8211 15.654C22.046 15.9634 22.2193 16.1567 22.331 16.3844C22.4341 16.6322 22.5172 16.8872 22.583 17.1478C22.9196 18.2005 23.4811 18.3538 24.4908 18.1318C26.3455 17.725 27.593 16.5391 28.4738 14.925C29.1885 13.6145 29.78 12.2396 30.2426 10.8202C30.2956 10.6842 30.3572 10.5495 30.4274 10.4206C31.2366 10.3762 31.6548 11.1554 31.5216 11.9316C31.2638 13.3467 30.8198 14.7202 30.2011 16.0164C29.8015 16.8771 29.3775 17.7436 28.8362 18.5213C27.9983 19.7215 26.8969 20.5952 25.3558 20.737C25.0937 20.7771 24.8345 20.8372 24.581 20.9189C23.9422 21.085 23.5527 21.4961 23.3464 22.122C23.2118 22.5301 23.0657 22.9555 22.828 23.3093C22.4685 23.8421 21.8913 24.0354 21.2568 24.0655C20.5837 24.097 19.9162 24.1013 19.2531 24.1772C18.5929 24.2459 17.9956 24.5968 17.6146 25.1397C17.5745 25.1927 17.5402 25.2514 17.5115 25.3115C16.8971 26.5991 15.7313 27.1534 14.4809 27.6203C13.9166 27.8351 13.2936 27.8451 12.7221 27.6489C11.6064 27.2851 10.548 26.7638 9.57983 26.1021C9.47671 26.0062 9.38792 25.8987 9.31487 25.7799ZM1.5307 17.8109C1.95464 17.8253 2.36856 17.6878 2.69797 17.4214C2.77531 17.3584 2.86267 17.3082 2.94145 17.2452C3.64467 16.7024 4.05143 16.7597 4.55987 17.5087C4.9079 18.0014 5.22729 18.5142 5.51803 19.0427C5.98494 19.9321 6.40601 20.8473 6.84427 21.751C6.86576 21.814 6.88008 21.8799 6.88581 21.9458C6.71681 21.8498 6.55783 21.7367 6.41031 21.6092C5.23158 20.4004 3.92109 19.3291 2.50032 18.4153C2.18237 18.2105 1.85582 18.0129 1.5307 17.8109Z" fill="black" fill-opacity="0.3"/>
<path d="M6.89008 21.9486L7.01468 22.1534L6.89008 21.9486ZM6.9889 22.1506L7.1135 22.3482L6.9889 22.1506Z" fill="#017B8F"/>
<path d="M8.815 25.4648L9.00549 25.608L8.815 25.4648ZM9.00835 25.5894L9.15158 25.7068L9.00835 25.5894Z" fill="#E27B11"/>
<path d="M11.8141 8.09467C11.9258 9.23043 12.0733 10.3633 12.1507 11.4991C12.2266 12.6893 12.2638 13.8837 12.2638 15.0768C12.2781 17.2122 12.2724 19.3448 12.2481 21.476C12.2237 22.0274 12.155 22.5759 12.0433 23.1173C11.9487 23.6487 11.6881 24.0583 11.0966 24.1571C10.5151 24.276 9.92356 24.0039 9.63712 23.484C9.27333 22.8237 8.94535 22.1362 8.62739 21.4531C7.99578 20.0624 7.41429 18.6473 6.75404 17.271C6.39884 16.5663 5.99352 15.8874 5.54237 15.2401C5.09408 14.5669 4.42666 14.1902 3.64753 14.0055C3.38114 13.9396 3.18922 13.9998 3.03883 14.2719C3.11188 14.3592 3.17633 14.4523 3.2551 14.5311C3.52722 14.8032 3.52722 14.9651 3.18349 15.1369C2.92855 15.2644 2.65356 15.3432 2.37141 15.3718C1.76272 15.4291 1.64957 15.2945 1.67105 14.6586C1.8286 14.5225 2.03341 14.4151 2.1308 14.2461C2.56763 13.4927 2.97581 12.7236 3.38973 11.9588C3.64753 11.4805 4.01418 11.363 4.45531 11.6838C4.79618 11.9545 5.11986 12.2438 5.42636 12.5532C6.068 13.1547 6.78125 13.4756 7.66064 13.1146C8.28652 12.8611 8.83507 12.4501 9.25328 11.9202C10.21 10.7156 11.1538 9.49825 11.8141 8.09467ZM21.3184 3.9455C21.2826 4.59859 21.2611 5.25169 21.2067 5.90335C21.1293 6.80136 21.0319 7.70653 20.936 8.6074C20.8314 9.59135 20.7355 10.5767 20.5994 11.5564C20.4218 12.8697 20.227 14.1788 20.0136 15.4864C19.8661 16.3944 19.7 17.301 19.5023 18.2005C19.4021 18.666 19.1557 19.087 18.7991 19.4007C18.4697 19.69 18.1603 19.7244 17.8696 19.4007C17.6175 19.1099 17.4084 18.7848 17.248 18.4354C16.6966 17.2982 15.9017 16.4302 14.6671 16.0335C14.4752 15.9719 14.2804 15.9275 14.0914 15.876C14.0713 15.8244 14.0555 15.77 14.0455 15.7141C13.9768 13.9511 13.908 12.188 13.8393 10.4249V10.0196C14.5225 10.4564 14.8934 10.4407 15.4362 9.89068C16.4932 8.8337 17.5359 7.76382 18.5642 6.68249C19.2316 5.98069 19.8589 5.2388 20.5278 4.53844C20.7541 4.30499 21.0534 4.14171 21.3184 3.9455ZM29.9304 5.17149C29.9304 6.17405 29.654 7.12218 29.3518 8.06459C28.7617 9.88209 28.0355 11.6538 27.1834 13.3638C26.8683 14.0069 26.4343 14.5984 26.0003 15.1699C25.6036 15.7012 25.0064 16.0478 24.3476 16.1266C24.021 16.1739 23.8849 16.0851 23.7661 15.8201C23.6228 15.4993 23.4696 15.1799 23.2949 14.8748C23.0714 14.4881 22.7778 14.1616 22.3467 14.0098C22.0617 13.9095 22.0102 13.7319 22.0517 13.467C22.1634 12.6878 22.2622 11.9058 22.3668 11.1267C22.4556 10.4836 22.5444 9.84056 22.6346 9.19462C22.7048 9.47963 22.7463 9.789 23.1831 9.94797C23.2949 9.80761 23.408 9.63575 23.5426 9.48823C24.3561 8.616 25.2513 7.82398 26.2166 7.12361C27.3581 6.29579 28.5583 5.56678 29.9304 5.17149Z" fill="#D8A87C"/>
<path d="M11.8141 8.0947C11.1538 9.49828 10.21 10.7157 9.25611 11.9202C8.8379 12.4501 8.28936 12.8626 7.66347 13.1161C6.78265 13.4742 6.07083 13.1548 5.42776 12.5547C5.1227 12.2453 4.79758 11.9546 4.45671 11.6853C4.01558 11.3645 3.65037 11.4819 3.39256 11.9603C2.97722 12.7251 2.57046 13.4942 2.13363 14.2461C2.03624 14.4166 1.83 14.524 1.67389 14.66C1.67389 13.7534 1.9188 12.9041 2.27543 12.0849C3.17343 10.0325 4.50684 8.33674 6.39738 7.12221C7.28393 6.55075 8.22348 6.0595 9.1487 5.56108C9.4022 5.42932 9.67146 5.33193 9.94931 5.27034C10.7356 5.07842 11.1839 5.30042 11.4088 6.07955C11.605 6.73408 11.6852 7.42155 11.8141 8.0947ZM21.3184 3.94553C21.0534 4.14174 20.7569 4.30502 20.5321 4.5399C19.8589 5.24026 19.2359 5.98216 18.5685 6.68538C17.5373 7.76672 16.4975 8.83659 15.4505 9.89358C14.9063 10.4436 14.5367 10.455 13.8521 10.0225C13.7633 9.4281 13.686 8.83086 13.5814 8.23792C13.4368 7.43014 13.2893 6.62236 13.1102 5.82175C13.0587 5.59689 13.0873 5.4508 13.252 5.29039C15.0194 3.57315 17.0704 2.35432 19.4908 1.79861C19.8532 1.72843 20.2227 1.70409 20.5908 1.72557C21.0219 1.73846 21.304 1.96905 21.3384 2.40015C21.3771 2.90859 21.3284 3.42849 21.3184 3.94553ZM29.9304 5.17152C28.5568 5.56681 27.3552 6.29438 26.2109 7.12365C25.2455 7.82401 24.3518 8.61603 23.5383 9.48969C23.4008 9.63578 23.2891 9.80764 23.1803 9.948C22.7391 9.79046 22.7019 9.4811 22.6303 9.19465C22.7463 7.93858 22.8465 6.68252 22.9712 5.42645C23.0055 5.26748 23.0943 5.12568 23.2218 5.024C23.958 4.37806 24.8416 4.01427 25.7726 3.7579C26.6706 3.51156 27.5686 3.32824 28.5053 3.34972H28.607C29.7212 3.38982 30.0206 3.82665 29.9948 4.87648C29.9833 4.97673 29.9619 5.07556 29.9304 5.17152Z" fill="#FCE3C2"/>
</svg>
