<svg width="50" height="50" viewBox="0 0 50 50" fill="none" xmlns="http://www.w3.org/2000/svg">
<path d="M23.1286 6.48126H25.1137C25.1211 6.49718 25.1272 6.52657 25.1382 6.52902C26.8527 6.88049 28.3516 7.73894 29.842 8.59372C32.7957 10.2849 35.5327 12.2957 38.1877 14.418C40.038 15.8719 41.7289 17.518 43.2319 19.3287C44.2201 20.5374 44.6267 21.9003 44.3083 23.4397C44.1607 24.138 43.9484 24.821 43.6739 25.4799C43.1437 26.7584 42.3465 27.885 41.5395 29.0019C38.233 33.5868 34.2481 37.5423 29.9816 41.2235C29.536 41.6071 29.0551 41.9474 28.5451 42.2399C26.2845 43.5441 23.965 43.6935 21.6138 42.4848C21.0275 42.1809 20.4573 41.847 19.9055 41.4843C17.1574 39.6891 14.6984 37.5399 12.3239 35.2866C10.64 33.6973 9.1188 31.9439 7.78302 30.0526C7.25935 29.3426 6.8689 28.5434 6.63066 27.694C6.59192 27.5996 6.54175 27.5104 6.48126 27.4282V25.2239C6.54494 25.0807 6.61964 24.9423 6.67108 24.7966C6.89396 24.1573 7.05316 23.4887 7.34094 22.88C9.95671 17.3472 13.6844 12.679 18.4102 8.80802C19.7732 7.68995 21.2991 6.86212 23.0674 6.56209C23.0919 6.55841 23.1078 6.50943 23.1286 6.48126ZM42.6808 22.5384C42.6939 22.0192 42.5152 21.5134 42.1787 21.1178C41.8113 20.6635 41.4329 20.1969 40.9823 19.832C39.7405 18.8278 38.4706 17.8579 37.186 16.9027C35.3821 15.5556 33.3897 14.6041 31.1756 14.151C30.1457 13.9404 29.1109 13.7689 28.065 13.9943C27.2948 14.1608 26.5257 14.3469 25.7738 14.5821C24.0218 15.1427 22.1859 15.3954 20.3475 15.3291C19.1731 15.2825 17.9951 15.3291 16.8207 15.2838C15.932 15.2455 15.0578 15.5179 14.3482 16.0541C12.7917 17.1917 11.6295 18.6698 10.7013 20.3402C10.4723 20.7541 10.3425 21.217 9.88446 21.4754C9.7424 21.555 9.65423 21.7595 9.58075 21.9236C9.42278 22.2751 9.23909 22.6265 9.15704 22.9976C9.00467 23.7164 8.67506 24.3857 8.19817 24.9447C7.78302 25.4346 7.52586 26.0322 7.70832 26.6825C7.82808 27.1051 8.02624 27.5014 8.29246 27.8507C8.94641 28.6896 9.64933 29.4917 10.351 30.2926C10.6066 30.5807 10.8874 30.8454 11.1899 31.0837C11.8759 31.6676 12.8194 31.8455 13.671 31.5515C14.511 31.2931 15.3732 31.1094 16.2218 30.8792C19.1163 30.0923 22.0964 29.6638 25.0954 29.6032C26.0126 29.5848 26.9323 29.537 27.8458 29.4807C30.1935 29.3539 32.548 29.463 34.8739 29.8064C35.436 29.8848 36.0018 30.0183 36.5614 29.9999C37.3354 29.9742 38.0003 29.5836 38.593 29.0998C39.8016 28.1064 40.8363 26.9186 41.6546 25.5852C42.1946 24.7145 42.6526 23.7838 42.6808 22.5384ZM19.1425 35.9148C19.4315 35.8768 19.6324 35.8854 19.7989 35.8242C20.3157 35.6368 20.8153 35.4017 21.3346 35.2229C22.0926 34.9608 22.8506 34.5775 23.6295 34.5151C25.6635 34.3447 27.7111 34.5782 29.6546 35.2021C30.1518 35.3613 30.6649 35.4715 31.1682 35.6038C31.2821 35.1702 31.2907 35.1653 31.1339 34.9241C30.8905 34.5142 30.6252 34.1176 30.3391 33.7362C29.9718 33.2807 29.5725 32.8447 29.0006 32.6218C27.7769 32.1286 26.5107 31.7482 25.2178 31.4854C24.3606 31.3201 23.6895 31.5442 23.0135 32.0132C21.626 32.9684 20.4835 34.1771 19.3825 35.4323C19.2956 35.534 19.2576 35.6797 19.1425 35.9148Z" fill="#FDB610"/>
<path d="M42.6808 22.5384C42.6526 23.7838 42.1909 24.7145 41.6521 25.5852C40.8338 26.9186 39.7991 28.1064 38.5906 29.0998C37.9979 29.5897 37.3329 29.9742 36.5589 29.9999C35.9993 30.0183 35.4335 29.8848 34.8714 29.8064C32.5455 29.463 30.1911 29.3539 27.8434 29.4807C26.9274 29.537 26.0065 29.5848 25.0929 29.6031C22.0989 29.6649 19.1238 30.0935 16.2341 30.8792C15.3854 31.1094 14.5196 31.2931 13.6832 31.5515C12.8317 31.8455 11.8881 31.6676 11.2021 31.0837C10.8996 30.8454 10.6189 30.5807 10.3633 30.2926C9.66525 29.4917 8.95742 28.6896 8.30348 27.8507C8.0378 27.5028 7.83966 27.1082 7.71934 26.6873C7.53197 26.0371 7.78914 25.4395 8.20918 24.9496C8.68608 24.3906 9.01569 23.7213 9.16805 23.0025C9.2501 22.6351 9.43379 22.28 9.59177 21.9285C9.66524 21.7644 9.75342 21.5611 9.89547 21.4803C10.3535 21.2219 10.4833 20.759 10.7123 20.3451C11.6405 18.6747 12.8027 17.1966 14.3592 16.0589C15.0688 15.5227 15.9431 15.2504 16.8317 15.2887C18.0061 15.3303 19.1842 15.2887 20.3586 15.334C22.1969 15.4003 24.0328 15.1476 25.7848 14.587C26.5367 14.3518 27.3058 14.1657 28.0761 13.9991C29.1219 13.7738 30.1579 13.9453 31.1866 14.1559C33.4031 14.609 35.3931 15.5605 37.197 16.9076C38.4755 17.8628 39.7454 18.8327 40.9933 19.8369C41.4439 20.2042 41.8211 20.6684 42.1897 21.1227C42.5211 21.5186 42.6958 22.0223 42.6808 22.5384ZM34.9388 18.3747L33.604 17.722L31.1915 16.7202C30.3185 16.3768 29.3659 16.2885 28.4447 16.4655L25.9954 17.0778C25.8145 17.0889 25.6342 17.1094 25.4554 17.139C23.1629 17.6387 20.8582 17.9963 18.4984 17.8383C17.9902 17.804 17.477 17.8518 16.9652 17.8616C16.4129 17.8689 15.8789 17.9461 15.4087 18.2694C15.2278 18.3505 15.0531 18.4447 14.8858 18.551C14.0799 19.1602 13.4326 19.9545 12.9986 20.8668C12.9033 21.1015 12.8271 21.3435 12.7709 21.5905C12.6325 22.3375 12.8333 23.038 13.1211 23.7042C13.2974 24.087 13.5325 24.4399 13.8179 24.75C14.1375 25.1174 14.3433 25.0709 14.5821 24.6606C14.7939 24.2932 14.9825 23.9185 15.1735 23.5413C15.6291 22.6424 16.0577 21.7289 16.539 20.8472C16.8684 20.2349 17.2431 20.2263 17.684 20.7676C18.0085 21.1656 18.2963 21.5942 18.6172 21.9922C19.0972 22.5898 19.3813 22.5861 19.8993 22.0228C20.4173 21.4595 20.9672 20.8606 21.5195 20.2985C21.9163 19.8932 22.1575 19.8663 22.6412 20.1761C22.9149 20.358 23.1726 20.5628 23.4115 20.7884C23.725 21.07 24.0128 21.3811 24.3287 21.6603C24.8186 22.0901 25.0304 22.0608 25.3856 21.5378C25.5901 21.2329 25.7701 20.9121 25.9746 20.6084C26.1561 20.3122 26.3609 20.0309 26.5869 19.7671C26.9408 19.3899 27.2605 19.3752 27.6364 19.7291C27.9918 20.0712 28.329 20.4318 28.6467 20.8092C29.2835 21.544 29.9044 22.2922 30.5461 23.0221C30.7168 23.213 30.9144 23.378 31.1327 23.5119C31.5331 23.7568 31.7756 23.6834 31.9581 23.2499C32.0994 22.9314 32.2065 22.5989 32.2777 22.2579C32.4773 21.1962 32.6451 20.1283 32.8312 19.0629C32.879 18.7886 32.8778 18.4861 33.1411 18.2596C33.2794 18.3906 33.3945 18.5045 33.5084 18.6098L33.8366 19.3727C33.8734 19.6177 33.9101 19.8626 33.9468 20.1075C34.0006 20.097 34.0531 20.081 34.1036 20.0597C34.4159 19.8344 34.7257 19.6066 35.0367 19.3813C35.5633 18.9992 35.5633 18.9992 36.1107 19.1743C35.9013 18.8498 35.6601 18.6882 34.9388 18.371V18.3747ZM12.4304 25.1162L12.3422 24.9729C11.9748 24.3567 11.4931 23.8163 10.9229 23.3809C10.4235 23.9851 10.1937 24.7677 10.2873 25.546C10.3792 26.5049 10.8127 27.3719 11.4495 28.1054C11.9393 28.6639 12.5333 29.0276 13.3146 28.9725C14.1314 29.0141 14.8882 28.7533 15.6414 28.5034C15.8348 28.4508 16.0283 28.4006 16.2218 28.3455C20.0463 27.2617 23.9234 26.5661 27.9205 26.7535C28.4508 26.778 28.9823 26.7657 29.5125 26.7706C31.1951 26.8384 32.8778 26.9057 34.5604 26.9727C34.6146 26.9681 34.668 26.957 34.7196 26.9396H35.1164C35.7531 26.898 36.3912 26.8686 37.0255 26.8171C37.6856 26.7596 38.1938 26.4094 38.6175 25.9207C39.2057 25.2141 39.6699 24.4129 39.9903 23.5511C40.0493 23.3453 40.0922 23.1353 40.1189 22.9229C39.7442 23.0858 39.4747 23.1605 39.2543 23.3074C38.8718 23.5584 38.5094 23.8389 38.1705 24.1463C37.5643 24.7059 37.3684 24.6765 37.0451 23.9013C36.9104 23.5793 36.8002 23.245 36.6581 22.9302C36.5195 22.6108 36.3514 22.3049 36.156 22.0167C35.7752 21.4901 35.3454 21.4203 34.8347 21.8207C34.2799 22.2518 33.7901 22.7686 33.6003 23.5034C33.3762 24.3207 32.9957 25.0867 32.4798 25.7591C32.192 26.1461 32.0205 26.1901 31.5882 25.9709C31.3208 25.8495 31.0715 25.6917 30.8474 25.5019C30.0991 24.799 29.3778 24.0716 28.6431 23.3539C28.3687 23.0845 28.1177 22.7833 27.8115 22.5579C27.3988 22.2542 27.1417 22.3008 26.8037 22.6804C26.5477 22.9682 26.331 23.2927 26.0775 23.5793C25.5876 24.1414 25.2092 24.1916 24.5896 23.7764C24.2712 23.5621 23.9773 23.3013 23.6748 23.0698C23.5144 22.9474 23.3405 22.8506 23.1727 22.7429L22.8911 22.5886C22.3792 22.2604 22.1477 22.2726 21.7448 22.6829C21.2305 23.2058 20.7345 23.747 20.2165 24.2651C19.734 24.7476 19.5099 24.7549 18.9784 24.3728C18.8155 24.2504 18.6637 24.1206 18.5033 23.9981C17.733 23.4103 17.3901 23.4605 16.8317 24.243C16.7459 24.3655 16.6615 24.4879 16.5868 24.6104C16.1189 25.355 15.656 26.1032 15.1858 26.8478C14.9103 27.2862 14.6519 27.3805 14.2355 27.0866C13.8725 26.8108 13.5404 26.4967 13.2448 26.1497C12.9521 25.8277 12.7011 25.4676 12.4316 25.1247L12.4304 25.1162ZM36.3814 19.4144C36.6055 19.6593 36.8137 19.8834 37.0169 20.1112C37.3219 20.4516 37.6023 20.8153 37.9305 21.1301C38.2587 21.4448 38.4926 21.4485 38.9102 21.1668C37.884 20.1749 36.8516 19.4536 36.3814 19.4144Z" fill="#4D4040"/>
<path d="M19.1425 35.9148C19.2576 35.6797 19.2956 35.534 19.3874 35.4323C20.4896 34.1771 21.6309 32.9684 23.0184 32.0132C23.6981 31.5442 24.3655 31.3201 25.2227 31.4854C26.514 31.7485 27.7785 32.1289 29.0006 32.6218C29.5725 32.8447 29.9718 33.2807 30.3391 33.7362C30.6252 34.1176 30.8905 34.5142 31.1339 34.9241C31.2894 35.169 31.2821 35.169 31.1682 35.6038C30.6649 35.4715 30.1518 35.3588 29.6546 35.2021C27.7111 34.5782 25.6635 34.3447 23.6295 34.5151C22.8506 34.5775 22.0926 34.9608 21.3346 35.2229C20.8153 35.4017 20.3157 35.6368 19.7989 35.8242C19.6275 35.8854 19.4315 35.8719 19.1425 35.9148Z" fill="#E37C11"/>
<path d="M29.5186 26.7608C28.9884 26.7608 28.4569 26.7682 27.9266 26.7437C23.9295 26.5612 20.0524 27.2568 16.2279 28.3357C16.0344 28.3908 15.8409 28.441 15.6475 28.4936C15.6769 28.2573 15.7087 28.0222 15.7356 27.7858C15.8924 26.3861 16.4986 25.1982 17.4427 24.1732C17.6546 23.943 17.8603 23.9405 18.0306 24.2087C18.2853 24.6092 18.48 25.0451 18.709 25.4627C18.938 25.8803 19.1511 26.2624 19.3923 26.6494C19.4585 26.7559 19.6005 26.8159 19.7903 26.9592C20.0426 26.3836 20.2581 25.884 20.4822 25.388C20.8582 24.5528 21.2305 23.7177 21.8403 23.0135C22.1257 22.6841 22.4526 22.4882 22.8947 22.5837L23.1727 22.738C23.2829 22.9609 23.3858 23.1899 23.507 23.4078C23.9087 24.1279 24.3116 24.848 24.7255 25.5595C24.8406 25.7566 24.9447 26.0003 25.3072 25.9648C25.3917 25.8215 25.5007 25.6562 25.5889 25.475C25.8717 24.919 26.1277 24.3496 26.4302 23.8046C26.5948 23.5201 26.7943 23.2572 27.0241 23.0221C27.3143 22.7159 27.4539 22.7367 27.7393 23.06C27.8208 23.1595 27.8968 23.2634 27.9671 23.3711C28.6862 24.3972 29.212 25.5459 29.5186 26.7608Z" fill="#E3DEDE"/>
<path d="M33.5047 18.6049L33.1374 18.2547C32.8741 18.4812 32.8753 18.7837 32.8275 19.058C32.6414 20.1234 32.4736 21.1913 32.274 22.2531C32.2028 22.5941 32.0957 22.9266 31.9544 23.245C31.7719 23.6785 31.5294 23.7544 31.129 23.5071C30.9107 23.3732 30.7131 23.2081 30.5424 23.0172C29.9007 22.2824 29.2798 21.5391 28.643 20.8043C28.3276 20.4233 27.9924 20.0591 27.6389 19.7132C27.2629 19.3593 26.9433 19.374 26.5894 19.7512C26.3633 20.015 26.1586 20.2963 25.9771 20.5925C25.7725 20.8962 25.5925 21.217 25.388 21.522C25.0329 22.0498 24.8161 22.0792 24.3312 21.6444C24.0152 21.3652 23.7274 21.0542 23.4139 20.7725C23.175 20.5469 22.9173 20.3421 22.6437 20.1602C22.1599 19.8565 21.9187 19.8834 21.5219 20.2826C20.9696 20.8447 20.4357 21.4264 19.9018 22.0069C19.3678 22.5874 19.0996 22.5739 18.6196 21.9763C18.2975 21.5771 18.0073 21.1484 17.6864 20.7517C17.2456 20.2104 16.8708 20.2239 16.5414 20.8313C16.0601 21.7179 15.6315 22.6315 15.176 23.5254C14.9849 23.9026 14.7963 24.2798 14.5845 24.6447C14.3396 25.055 14.14 25.0954 13.8203 24.7341C13.535 24.424 13.2998 24.0711 13.1235 23.6883C12.8357 23.0221 12.6337 22.3216 12.7733 21.5746C12.886 21.9004 12.9839 22.2335 13.115 22.5543C13.3109 23.0246 13.5228 23.4911 13.9967 23.7618C14.0628 23.7152 14.1277 23.6944 14.1461 23.6516C14.6053 22.6535 15.0866 21.6652 15.5042 20.65C15.8438 19.8803 15.8094 18.997 15.4111 18.2559C15.8814 17.9326 16.4153 17.8555 16.9676 17.8481C16.9198 19.2319 17.597 20.2655 18.5767 21.1399C19.0164 21.533 19.2686 21.5158 19.7389 21.1497C19.842 21.0732 19.9357 20.9849 20.0181 20.8864C20.4626 20.3267 20.8974 19.7597 21.3407 19.2001C21.4803 19.0237 21.6383 18.8633 21.7926 18.6907C22.509 19.2711 23.1604 19.8051 23.8181 20.3304C24.3361 20.7443 24.7757 20.7088 25.2031 20.2018C25.5215 19.8234 25.8277 19.434 26.113 19.0311C26.5147 18.4641 26.5747 17.8849 26.102 17.3166C26.0557 17.2404 26.0207 17.1579 25.9979 17.0717L28.4471 16.4594C28.429 16.5461 28.3958 16.629 28.3491 16.7043C27.6878 17.4073 27.7466 18.1739 28.1985 18.9295C28.6281 19.6527 29.0983 20.351 29.6068 21.0211C29.8962 21.3762 30.2411 21.6822 30.6281 21.9273C31.0225 22.1918 31.3176 22.0314 31.4131 21.5599C31.4638 21.3276 31.4969 21.0918 31.5123 20.8545C31.5872 19.4632 31.4801 18.068 31.1939 16.7043L33.6064 17.7061L33.5047 18.6049Z" fill="#AEA2B5"/>
<path d="M29.5187 26.7608C29.2109 25.5493 28.6852 24.404 27.9671 23.3809C27.8968 23.2732 27.8208 23.1693 27.7393 23.0699C27.454 22.7466 27.3144 22.7257 27.0241 23.0319C26.7944 23.267 26.5948 23.5299 26.4302 23.8144C26.1277 24.3594 25.8718 24.9288 25.5889 25.4848C25.5007 25.6611 25.3917 25.8265 25.3072 25.9746C24.9398 26.0102 24.8406 25.7665 24.7255 25.5693C24.3116 24.8578 23.9087 24.1377 23.507 23.4176C23.3846 23.1997 23.2829 22.9707 23.1727 22.7478C23.3405 22.8556 23.5144 22.956 23.6748 23.0748C23.9834 23.3062 24.2712 23.5646 24.5896 23.7814C25.2093 24.199 25.5828 24.1487 26.0775 23.5842C26.331 23.2952 26.5478 22.9719 26.8037 22.6853C27.1417 22.3069 27.3989 22.2604 27.8116 22.5629C28.1177 22.7882 28.3688 23.0895 28.6431 23.3589C29.3778 24.0765 30.0991 24.8039 30.8474 25.5068C31.0715 25.6966 31.3208 25.8544 31.5883 25.9759C32.0205 26.1951 32.192 26.151 32.4798 25.764C32.9963 25.0902 33.3768 24.3224 33.6003 23.5034C33.7913 22.7686 34.2738 22.2506 34.8396 21.8061C35.3503 21.4056 35.7801 21.4754 36.161 22.002C36.3564 22.2902 36.5245 22.5961 36.6631 22.9156C36.81 23.2303 36.9153 23.5646 37.05 23.8867C37.3733 24.6606 37.5693 24.69 38.1754 24.1316C38.5143 23.8242 38.8767 23.5437 39.2592 23.2927C39.4797 23.1458 39.7491 23.0711 40.1238 22.9082C40.0972 23.1206 40.0542 23.3306 39.9952 23.5364C39.6748 24.3982 39.2106 25.1994 38.6224 25.9061C38.1999 26.3959 37.6917 26.7449 37.0304 26.8025C36.3961 26.8588 35.7581 26.8882 35.1213 26.9249C35.1886 26.7559 35.2437 26.5808 35.3282 26.4204C35.7092 25.7034 35.8747 24.8915 35.8046 24.0826C35.7458 23.4066 35.5756 22.7662 35.1298 22.2286C33.4742 23.2719 33.4411 25.6869 34.7245 26.9249C34.673 26.9424 34.6195 26.9535 34.5653 26.958C32.8835 26.8951 31.2013 26.8294 29.5187 26.7608Z" fill="#ADA1B5"/>
<path d="M25.9942 17.0717C26.017 17.1579 26.0521 17.2404 26.0983 17.3166C26.571 17.8898 26.511 18.469 26.1093 19.0311C25.824 19.434 25.5178 19.8234 25.1994 20.2018C24.772 20.7088 24.3324 20.7443 23.8144 20.3304C23.1568 19.805 22.5053 19.2711 21.7889 18.6907C21.6346 18.8633 21.4766 19.0237 21.337 19.2001C20.8937 19.7597 20.459 20.3267 20.0144 20.8864C19.9321 20.9848 19.8383 21.0732 19.7352 21.1497C19.265 21.5171 19.0127 21.533 18.5731 21.1399C17.5934 20.2655 16.9162 19.2319 16.9639 17.8481C17.4758 17.8383 17.9889 17.7906 18.4971 17.8249C20.857 17.9841 23.1617 17.6252 25.4542 17.1256C25.6331 17.0984 25.8134 17.0804 25.9942 17.0717Z" fill="#E4DFDE"/>
<path d="M31.1914 16.7166C31.4777 18.0802 31.5847 19.4754 31.5098 20.8668C31.4945 21.1041 31.4613 21.3399 31.4107 21.5722C31.3151 22.0387 31.02 22.1992 30.6257 21.9396C30.2387 21.6945 29.8938 21.3884 29.6044 21.0333C29.0958 20.3632 28.6257 19.6649 28.196 18.9417C27.7442 18.1861 27.6854 17.4195 28.3467 16.7166C28.3934 16.6413 28.4265 16.5584 28.4446 16.4717C29.365 16.2915 30.3175 16.3765 31.1914 16.7166Z" fill="#E4DFDF"/>
<path d="M22.891 22.5886C22.4428 22.4931 22.122 22.689 21.8367 23.0184C21.2243 23.7226 20.857 24.5578 20.4786 25.393C20.2545 25.8828 20.0389 26.3886 19.7867 26.9641C19.5968 26.8208 19.4548 26.7608 19.3887 26.6543C19.1437 26.2673 18.9257 25.8669 18.7053 25.4677C18.4849 25.0684 18.2816 24.6104 18.0269 24.2137C17.8567 23.9455 17.6509 23.9479 17.4391 24.1781C16.4949 25.2031 15.8887 26.391 15.732 27.7907C15.705 28.0271 15.6732 28.2622 15.6438 28.4986C14.8845 28.7435 14.1277 29.0092 13.317 28.9676C13.3513 28.5524 13.4628 28.1238 13.3991 27.7246C13.328 27.2838 13.0966 26.8674 12.9349 26.4412C12.7733 26.0151 12.6006 25.5583 12.4341 25.1174C12.7035 25.4603 12.9545 25.8203 13.2472 26.1424C13.5428 26.4894 13.875 26.8035 14.2379 27.0792C14.6543 27.3731 14.9127 27.2789 15.1882 26.8404C15.6585 26.0959 16.1214 25.3476 16.5892 24.6031C16.6676 24.4806 16.7521 24.3582 16.8341 24.2357C17.3925 23.4568 17.7354 23.4066 18.5057 23.9908C18.6661 24.1132 18.818 24.2467 18.9809 24.3655C19.5123 24.7513 19.7364 24.7402 20.2189 24.2577C20.7369 23.7397 21.2329 23.1984 21.7473 22.6755C22.1563 22.2788 22.3828 22.2604 22.891 22.5886Z" fill="#AEA2B5"/>
<path d="M12.4317 25.1174C12.5949 25.5583 12.7619 25.9995 12.9325 26.4412C13.0942 26.8674 13.3256 27.2838 13.3967 27.7246C13.4603 28.1238 13.3489 28.5525 13.3146 28.9676C12.5333 29.0227 11.9332 28.659 11.4495 28.1006C10.8127 27.3658 10.3792 26.5 10.2874 25.5411C10.1952 24.7645 10.4248 23.9839 10.9229 23.3809C11.4931 23.8164 11.9749 24.3567 12.3423 24.9729L12.4304 25.1113L12.4317 25.1174Z" fill="#E3DEDD"/>
<path d="M15.4075 18.2632C15.8058 19.0043 15.8401 19.8876 15.5005 20.6574C15.0829 21.6726 14.6017 22.6608 14.1424 23.6589C14.1241 23.7017 14.0592 23.7226 13.993 23.7691C13.5191 23.4985 13.3073 23.0343 13.1113 22.5616C12.9803 22.2432 12.8823 21.9101 12.7697 21.5819C12.8259 21.3349 12.9021 21.0929 12.9974 20.8582C13.4317 19.9468 14.079 19.1534 14.8846 18.5449C15.0518 18.4385 15.2266 18.3444 15.4075 18.2632Z" fill="#E3DEDE"/>
<path d="M34.7257 26.9323C33.4423 25.6942 33.4754 23.2793 35.131 22.2359C35.5768 22.7735 35.7433 23.414 35.8058 24.09C35.8759 24.8989 35.7104 25.7108 35.3294 26.4277C35.2462 26.5882 35.1898 26.7633 35.1225 26.9323H34.7257Z" fill="#E4DFDE"/>
<path d="M33.5048 18.6049L33.604 17.7146L34.9388 18.3673C34.6608 19.1609 34.4489 19.347 33.8366 19.3678C33.724 19.1156 33.6133 18.8612 33.5048 18.6049Z" fill="#E2DDDC"/>
<path d="M36.3814 19.4144C36.8529 19.4536 37.884 20.1749 38.9139 21.1668C38.4926 21.4484 38.2747 21.4619 37.9342 21.13C37.5938 20.7982 37.3219 20.4516 37.0207 20.1112C36.8137 19.8834 36.6067 19.6581 36.3814 19.4144Z" fill="#A99DB0"/>
<path d="M33.8329 19.3715C34.4538 19.3519 34.6608 19.1646 34.9351 18.371C35.6564 18.6882 35.8976 18.8535 36.1034 19.1781C35.556 19.0029 35.556 19.0029 35.0294 19.385C34.7183 19.6103 34.4085 19.8381 34.0962 20.0634C34.0458 20.0847 33.9932 20.1007 33.9395 20.1112C33.9125 19.8602 33.8697 19.6152 33.8329 19.3715Z" fill="#AB9FB2"/>
<path d="M12.4595 25.1292L12.347 24.9729L12.4595 25.1292Z" fill="#AEA2B5"/>
</svg>
