<svg width="50" height="50" viewBox="0 0 50 50" fill="none" xmlns="http://www.w3.org/2000/svg">
<path d="M5.55627 21.5191V15.8995C5.58985 15.8419 5.64742 15.7867 5.65341 15.7268C5.73376 14.9041 5.79612 14.0838 5.88367 13.2575C6.06116 11.6649 6.34538 10.0963 6.96298 8.60448C7.74129 6.72287 9.10003 5.52723 11.0968 5.0979C11.5357 5.01298 11.9821 4.9728 12.4291 4.97797C12.8391 4.9718 13.2128 5.21183 13.3777 5.58719C13.6176 6.08607 13.8802 6.58136 14.0853 7.09703C14.6849 8.59009 14.9547 10.1671 15.2845 11.7321C15.5452 12.9793 15.8306 14.2205 16.1408 15.4557C16.3554 16.2952 16.9287 16.7461 17.8113 16.8145C18.0602 16.8521 18.3123 16.7708 18.4925 16.595C19.8296 15.3238 21.2855 14.2241 23.0196 13.543C23.0628 13.3691 23.1132 13.2144 23.1396 13.0561C23.5415 10.6465 24.1321 8.27233 24.906 5.95535C25.5656 3.96701 26.8428 2.58669 28.9259 2.04823C28.9523 2.04103 28.9679 1.99666 28.9894 1.97028H30.6084C30.9274 2.06861 31.2428 2.17655 31.5678 2.26409C32.8966 2.62386 33.5753 3.55687 33.7265 4.85805C33.8168 5.71408 33.834 6.57626 33.778 7.43522C33.7073 8.70761 33.5382 9.97401 33.4482 11.2464C33.4267 11.7112 33.4532 12.177 33.5274 12.6363C33.5933 13.116 33.9171 13.4014 34.374 13.507C34.687 13.5789 35.0204 13.5645 35.3334 13.6389C35.728 13.7336 36.1729 13.7936 36.4871 14.0179C37.6288 14.8273 38.3267 15.8803 38.0281 17.3757C38.0137 17.4465 38.0065 17.5184 37.9982 17.5892C37.9082 18.2824 37.8183 18.9743 37.7259 19.6927L38.2752 20.122C39.9613 21.4412 41.5791 22.8371 43.029 24.4177C43.9884 25.4622 44.9609 26.5032 45.2476 27.9698C45.2476 27.9806 45.2775 27.9878 45.2931 27.9962V29.8311C45.2548 29.885 45.1936 29.9342 45.1804 29.9942C44.8374 31.528 44.1011 32.8783 43.2268 34.1603C39.7946 39.2067 35.5517 43.5072 30.9298 47.4503C29.9548 48.2842 28.787 48.8613 27.5324 49.1292C27.4031 49.166 27.2768 49.2125 27.1546 49.2684H25.1039C25.0679 49.2324 25.0368 49.1748 24.9948 49.1652C23.449 48.8342 22.1454 48.0128 20.867 47.1373C18.0979 45.2425 15.6203 43.0047 13.2362 40.6614C11.8091 39.241 10.5216 37.6868 9.39145 36.0203C8.88657 35.2876 8.48602 34.4997 8.37809 33.6111C8.28695 32.8579 8.05909 32.1564 7.83483 31.438C6.91262 28.4939 6.00599 25.5414 5.74096 22.4437C5.69675 22.1323 5.63509 21.8236 5.55627 21.5191ZM28.0121 33.3916C27.9473 33.4228 27.8837 33.4564 27.819 33.4863C27.0047 33.8581 26.8812 33.8269 26.3475 33.1038C25.911 32.5138 25.4637 31.9309 25.0547 31.3229C24.8545 31.0267 24.6386 30.9631 24.3268 31.0831C24.0414 31.185 23.75 31.2689 23.4609 31.3613C22.9117 30.8432 22.366 30.3227 21.8132 29.8083C21.2603 29.2938 20.8454 28.675 20.7687 27.9135C20.6995 27.1989 20.6795 26.4805 20.7087 25.7632C20.771 24.0387 20.8814 22.3154 20.9485 20.5909C20.9677 20.1004 20.915 19.5859 20.4556 19.2861C20.0429 19.0001 19.5977 18.7642 19.1293 18.5834C17.99 18.1804 17.2885 18.455 16.678 19.4984C16.425 19.9325 16.2259 20.3978 15.9957 20.8451C15.9302 20.9614 15.859 21.0742 15.7822 21.1833L15.6719 21.1737C15.1778 19.1146 14.6441 17.0639 14.2016 14.9928C13.7219 12.7443 13.3382 10.4765 12.8824 8.22072C12.7964 7.8175 12.6505 7.42944 12.4495 7.06945C12.1905 6.58975 11.7779 6.45784 11.2503 6.60055C10.6269 6.78568 10.0573 7.11803 9.58932 7.56953C8.71867 8.36823 8.22459 9.40677 7.93557 10.5317C7.06492 13.9495 6.9402 17.4225 7.22442 20.9231C7.39831 23.0577 7.74849 25.166 8.14783 27.2683C8.45838 28.8734 8.93795 30.4412 9.57853 31.9453C9.90822 32.7783 10.5953 33.4187 11.4493 33.689C12.0286 33.8833 12.6102 34.0704 13.1966 34.2407C14.0351 34.4743 14.7839 34.9549 15.3457 35.6198C16.1851 36.6068 16.9719 37.6321 17.7801 38.6419C17.4839 39.112 17.5919 39.5365 17.8605 39.991C18.1711 40.5151 18.3798 41.1015 18.7 41.6184C19.0386 42.1672 19.42 42.6885 19.8404 43.1774C20.247 43.6499 20.506 43.6439 21.0697 43.3429C22.2881 42.6893 23.5149 42.0525 24.7321 41.3989C25.7443 40.8545 26.7709 40.8425 27.8502 41.1867C29.2329 41.6268 30.642 41.9782 32.0343 42.3859C32.3107 42.4763 32.6142 42.4143 32.833 42.2228C34.8147 40.7335 36.6086 39.0097 38.1756 37.0889C38.7609 36.3609 39.1254 35.555 39.1626 34.586C39.1842 34.0488 39.1758 33.5223 39.1554 32.9863C39.1074 31.7606 38.8556 30.5734 38.6206 29.3789C38.5739 29.0075 38.274 28.7191 37.901 28.687C37.4969 28.608 37.0779 28.686 36.7294 28.9052C36.6502 28.7853 36.5627 28.6654 36.4955 28.5455C36.0158 27.6556 35.8539 26.6866 35.7879 25.6913C35.6908 24.2198 35.9894 22.7939 36.276 21.3656C36.5759 19.8678 36.8901 18.3747 36.9176 16.8361C36.9284 16.2365 36.7318 15.7747 36.2557 15.445C35.2039 14.717 33.832 14.4268 32.8474 15.9246C32.7047 16.1417 32.5512 16.3528 32.3797 16.6022C32.3617 16.5478 32.3481 16.4921 32.3389 16.4355C32.3573 13.216 32.3745 9.9964 32.3905 6.77684C32.4078 6.16641 32.3854 5.55551 32.3233 4.94799C32.171 3.75834 31.3639 3.0376 30.1767 3.15633C28.5433 3.31942 27.157 3.96222 26.4591 5.59079C26.312 5.91855 26.1862 6.25543 26.0825 6.59935C25.6755 8.01445 25.2758 9.43236 24.8832 10.8531C24.2177 13.2683 23.8939 15.7436 23.5641 18.2188C23.1875 21.0082 23.1084 23.8085 23.1599 26.6135C23.1791 27.6928 23.5113 28.6726 24.2668 29.4617C24.912 30.1345 25.586 30.7809 26.2804 31.4093C26.928 32.0113 27.5636 32.6133 28.0121 33.3916Z" fill="#FDB610"/>
<path d="M17.7801 38.6455C16.9718 37.6357 16.1815 36.6068 15.3457 35.6234C14.7839 34.9585 14.0351 34.4779 13.1966 34.2443C12.6102 34.074 12.0286 33.8845 11.4493 33.6926C10.596 33.423 9.90909 32.7841 9.57852 31.9525C8.93793 30.4483 8.45836 28.8806 8.14782 27.2755C7.74847 25.1732 7.39829 23.0649 7.2244 20.9303C6.94018 17.4297 7.06491 13.9567 7.93556 10.5389C8.22457 9.40797 8.71866 8.38022 9.6013 7.56953C10.0692 7.11802 10.6389 6.78568 11.2623 6.60055C11.7863 6.45784 12.1989 6.60055 12.4615 7.06945C12.6625 7.42944 12.8084 7.8175 12.8944 8.22072C13.3453 10.4765 13.7339 12.7443 14.2136 14.9928C14.6561 17.0639 15.1898 19.1146 15.6839 21.1737L15.7942 21.1833C15.8709 21.0742 15.9422 20.9614 16.0076 20.8451C16.2379 20.3978 16.437 19.9325 16.69 19.4984C17.3004 18.455 18.002 18.1792 19.1413 18.5834C19.6097 18.7642 20.0549 19.0001 20.4676 19.2861C20.9269 19.5859 20.9797 20.1004 20.9605 20.5909C20.8898 22.3154 20.7794 24.0387 20.7207 25.7632C20.6915 26.4805 20.7115 27.1989 20.7806 27.9135C20.8574 28.675 21.2687 29.2902 21.8252 29.8083C22.3816 30.3263 22.9237 30.8432 23.4729 31.3613C23.8183 31.8626 24.2081 32.3459 24.3016 32.9719C24.4759 34.0029 24.3779 35.0616 24.0174 36.0431C23.9742 36.163 23.8375 36.2374 23.744 36.3333C23.6 35.8716 23.4357 35.4159 23.3158 34.9482C23.0028 33.7346 22.3145 32.7896 21.3467 32.0101C20.7912 31.5575 20.2589 31.0771 19.7517 30.571C19.1521 29.9714 18.7395 29.2602 18.6796 28.3992C18.6412 27.8475 18.6796 27.2887 18.688 26.7334C18.7203 25.3903 18.7611 24.0471 18.7983 22.704C18.8151 22.2387 18.8534 21.7722 18.8427 21.3056C18.8343 20.9387 18.6028 20.8439 18.3042 21.0586C18.2298 21.1098 18.1652 21.174 18.1135 21.2481C17.1685 22.7136 16.1564 24.1574 16.3998 26.045C16.4076 26.1524 16.4076 26.2603 16.3998 26.3676C16.1324 26.5775 16.0496 26.3077 15.9597 26.171C15.7426 25.8424 15.5795 25.4778 15.3601 25.154C14.9266 24.4955 14.5917 23.7771 14.3659 23.0218C13.9498 21.747 13.4988 20.483 13.0635 19.2142C12.9436 18.7273 12.7985 18.244 12.6953 17.7523C12.1429 15.1467 11.602 12.5424 11.0728 9.93923C11.0236 9.69939 11.026 9.43795 10.7034 9.26766C10.5712 9.40442 10.4538 9.55476 10.3532 9.71617C10.2407 9.96055 10.148 10.2136 10.0762 10.4729C9.42381 12.6447 9.19716 14.8753 9.15398 17.1263C9.08588 20.3473 9.44887 23.563 10.2333 26.6878C10.4887 27.712 10.8437 28.711 11.1543 29.7207C11.4074 30.6861 11.9266 31.4476 12.8333 31.8973C13.1538 32.0629 13.4876 32.2017 13.831 32.3123C15.4068 32.792 16.6001 33.7921 17.5894 35.0633C18.008 35.6006 18.3965 36.1606 18.8007 36.7099C19.5394 37.7149 20.5216 38.1586 21.7532 37.9091C22.1274 37.8336 22.4668 37.5925 22.8325 37.4462C22.9728 37.3899 23.1084 37.1572 23.2894 37.3899C23.2151 38.1562 22.8265 38.7786 22.348 39.3446C21.2951 40.587 20.253 40.707 18.977 39.7236C18.5524 39.3974 18.1771 39.0064 17.7801 38.6455ZM28.0121 33.3916C27.5635 32.6181 26.9327 32.0161 26.2744 31.4224C25.5836 30.7892 24.906 30.1429 24.2644 29.4701C23.5089 28.681 23.1767 27.706 23.1575 26.6219C23.106 23.8145 23.1851 21.0142 23.5617 18.2272C23.8963 15.752 24.2201 13.2767 24.8808 10.8615C25.2718 9.44155 25.6715 8.02365 26.0801 6.60774C26.1838 6.26383 26.3096 5.92694 26.4566 5.59918C27.1594 3.97061 28.5457 3.32782 30.1743 3.16472C31.3591 3.0448 32.1686 3.76434 32.3209 4.95639C32.3829 5.5639 32.4054 6.1748 32.3881 6.78523C32.3761 10.004 32.3589 13.2236 32.3365 16.4439C32.3457 16.5005 32.3593 16.5562 32.3773 16.6106C32.5488 16.3612 32.7023 16.1501 32.845 15.933C33.8296 14.4304 35.2015 14.7206 36.2532 15.4533C36.7329 15.7831 36.926 16.246 36.9152 16.8445C36.8876 18.3831 36.5734 19.8761 36.2736 21.374C35.987 22.8023 35.6884 24.2282 35.7855 25.6997C35.8515 26.695 36.0122 27.664 36.4931 28.5539C36.5602 28.6738 36.6478 28.7937 36.7269 28.9136C36.7587 29.0151 36.7988 29.1138 36.8469 29.2086C37.1915 29.7558 37.3901 30.3821 37.4237 31.0279C37.4993 32.3591 36.944 33.4636 36.2448 34.5249C36.1909 34.6076 36.0446 34.6304 35.9402 34.682C35.9246 34.3414 35.9115 34.0008 35.8911 33.6614C35.7927 32.0185 35.5313 30.4175 34.7146 28.9532C34.5306 28.6026 34.3649 28.2428 34.2181 27.8751C33.8871 27.1076 33.6725 26.3065 33.754 25.4682C33.8847 24.1311 34.043 22.7951 34.2205 21.4639C34.3189 20.7192 34.4796 19.9841 34.6127 19.2441C34.6303 19.2323 34.6389 19.2109 34.6343 19.1902L34.6894 19.0247C34.7758 18.587 34.8801 18.1528 34.9293 17.7115C34.9264 17.5604 34.8487 17.4207 34.7218 17.3386C34.6019 17.287 34.41 17.3386 34.2781 17.4033C34.1775 17.4778 34.0978 17.5769 34.0466 17.6911C33.6869 18.2908 33.3151 18.8808 32.9673 19.49C32.823 19.7167 32.7252 19.9699 32.6795 20.2347C32.5788 21.1593 32.5212 22.0887 32.4469 23.0158L32.3353 23.565L32.2154 23.5926C32.0998 23.4419 31.9974 23.2813 31.9096 23.1129C31.7081 22.6332 31.4803 22.1595 31.3531 21.6606C31.1205 20.7432 30.9526 19.809 30.7535 18.882C30.6516 17.7547 30.5233 16.6298 30.4537 15.5013C30.2642 12.4708 30.1647 9.43795 30.3638 6.40147C30.3886 6.20501 30.3943 6.0066 30.3806 5.80905C30.3338 5.43728 30.0783 5.27538 29.7258 5.39771C29.5771 5.45823 29.4406 5.54518 29.3228 5.65434C28.8192 6.09412 28.4459 6.66364 28.2435 7.3009C27.6811 8.97984 27.0443 10.6516 26.6365 12.3713C25.8162 15.7819 25.4037 19.2597 25.243 22.7651C25.1878 23.9644 25.1998 25.172 25.4601 26.3628L25.52 26.5008C25.5116 27.1365 25.7403 27.7526 26.1616 28.2289C26.748 28.8812 27.3749 29.4961 28.0384 30.0697C28.7349 30.6571 29.3244 31.3607 29.7809 32.1492C30.2259 32.9287 30.6828 33.6998 31.1325 34.4745C31.4425 35.0596 32.0151 35.4599 32.6711 35.5502C33.5202 35.663 34.3812 35.6786 35.2375 35.7361C35.2375 36.1642 34.9808 36.4497 34.6571 36.6463C34.136 36.9601 33.5988 37.2463 33.0477 37.5038C32.1446 37.9283 31.3507 37.7305 30.6348 37.0517C30.0036 36.4373 29.4586 35.7402 29.0146 34.9794C28.6908 34.4385 28.3418 33.9157 28.0121 33.3916Z" fill="#4F403F"/>
<path d="M35.9426 34.6736C36.047 34.622 36.1933 34.5992 36.2473 34.5165C36.944 33.4552 37.5017 32.3507 37.4261 31.0195C37.3926 30.3737 37.1939 29.7474 36.8493 29.2003C36.8012 29.1054 36.7611 29.0067 36.7293 28.9052C37.0779 28.686 37.4969 28.608 37.901 28.687C38.274 28.7191 38.5739 29.0075 38.6206 29.3789C38.8604 30.5782 39.1074 31.7606 39.1554 32.9863C39.1758 33.5223 39.1842 34.0488 39.1626 34.5861C39.1254 35.555 38.7609 36.3609 38.1756 37.0889C36.6101 39.0094 34.8178 40.7333 32.8378 42.2228C32.6182 42.4156 32.3129 42.4777 32.0355 42.3859C30.6432 41.977 29.2341 41.6256 27.8514 41.1867C26.7649 40.8425 25.7431 40.8545 24.7333 41.3989C23.5161 42.0525 22.2893 42.6893 21.0709 43.3429C20.5072 43.6439 20.2482 43.6499 19.8416 43.1774C19.4212 42.6885 19.0398 42.1672 18.7012 41.6184C18.3822 41.1015 18.1735 40.5151 17.8617 39.991C17.5931 39.5365 17.4851 39.112 17.7813 38.6419C18.1783 39.0017 18.5536 39.3938 18.9806 39.7212C20.253 40.707 21.2951 40.5871 22.3456 39.3482C22.8253 38.7822 23.2127 38.1598 23.2871 37.3935L23.7368 36.3262C23.8303 36.2302 23.967 36.1511 24.0102 36.0359C24.3707 35.0544 24.4687 33.9957 24.2944 32.9647C24.2009 32.3387 23.8147 31.8554 23.4657 31.3541C23.7548 31.2618 24.0462 31.1778 24.3316 31.0759C24.6434 30.9631 24.8593 31.0219 25.0595 31.3157C25.4685 31.9237 25.9158 32.5066 26.3523 33.0966C26.886 33.8161 27.0095 33.8509 27.8238 33.4792C27.8885 33.4492 27.9521 33.4156 28.0169 33.3844C28.3514 33.9133 28.6956 34.4361 29.0194 34.971C29.4634 35.7318 30.0084 36.4289 30.6396 37.0433C31.3591 37.7221 32.1494 37.9199 33.0525 37.4954C33.6036 37.238 34.1408 36.9517 34.6619 36.638C34.9857 36.4413 35.2447 36.1583 35.2423 35.7277L35.9426 34.6736Z" fill="#E37C11"/>
<path d="M23.732 36.3261L23.2823 37.3935C23.1012 37.1608 22.9657 37.3935 22.8254 37.4498C22.4656 37.5961 22.1226 37.8372 21.746 37.9127C20.5144 38.1622 19.5322 37.7185 18.7935 36.7135C18.3894 36.1642 18.0008 35.6042 17.5823 35.0669C16.5953 33.7957 15.4021 32.798 13.8311 32.3123C13.4908 32.2 13.1603 32.0601 12.8429 31.8937C11.9303 31.444 11.411 30.6825 11.1639 29.7171C11.2623 29.7939 11.3642 29.8646 11.4578 29.9474C12.0634 30.4762 12.6006 30.3335 12.8225 29.5468C12.973 28.9942 13.0225 28.4189 12.9688 27.8487C12.8729 26.6878 12.8405 25.5222 12.8237 24.3577C12.8129 23.6238 12.8729 22.8886 12.9076 22.1547C12.9544 21.1713 13.0084 20.1879 13.0599 19.2034C13.4953 20.4722 13.9462 21.7362 14.3623 23.011C14.5881 23.7663 14.923 24.4847 15.3565 25.1432C15.5795 25.467 15.7426 25.8316 15.9561 26.1602C16.0461 26.2969 16.1288 26.5667 16.3962 26.3568C16.461 26.4192 16.5245 26.4768 16.5905 26.5427C17.0366 26.9553 17.3736 26.8833 17.6099 26.3101C17.7178 26.045 17.7838 25.7632 17.8725 25.491C18.1787 24.5572 18.4857 23.6234 18.7935 22.6896C18.7563 24.0327 18.7156 25.3759 18.6832 26.719C18.67 27.2743 18.6364 27.8331 18.6748 28.3848C18.7348 29.2458 19.1449 29.9618 19.7469 30.5566C20.2541 31.0627 20.7864 31.5431 21.3419 31.9957C22.3097 32.774 22.9981 33.7202 23.3111 34.9338C23.425 35.4087 23.5881 35.8644 23.732 36.3261Z" fill="#D8A87C"/>
<path d="M13.0491 19.207C12.9976 20.1915 12.9436 21.1749 12.8968 22.1583C12.8621 22.8922 12.8021 23.6274 12.8129 24.3613C12.8297 25.5258 12.8621 26.6914 12.958 27.8523C13.0122 28.4237 12.9626 29.0002 12.8117 29.554C12.5898 30.3407 12.0526 30.4834 11.447 29.9546C11.3534 29.8718 11.2515 29.801 11.1531 29.7243C10.8425 28.7145 10.4876 27.712 10.2333 26.6878C9.44889 23.563 9.0859 20.3473 9.15401 17.1263C9.20198 14.8753 9.42864 12.6423 10.0798 10.4729C10.1505 10.2137 10.2419 9.96064 10.3533 9.71616C10.4524 9.55497 10.5681 9.40464 10.6986 9.26764C11.0212 9.43793 11.0188 9.70176 11.068 9.93921C11.6045 12.5424 12.1421 15.1443 12.681 17.7451C12.7841 18.2368 12.9256 18.7201 13.0491 19.207Z" fill="#FCE3C2"/>
<path d="M18.7863 22.6932C18.4793 23.6278 18.1723 24.5616 17.8653 25.4946C17.7766 25.7668 17.7106 26.0487 17.6027 26.3137C17.3628 26.8869 17.0294 26.9589 16.5833 26.5463C16.5174 26.4864 16.4538 26.4264 16.389 26.3605C16.3968 26.2531 16.3968 26.1452 16.389 26.0379C16.1492 24.1467 17.1577 22.7028 18.1027 21.2409C18.1544 21.1668 18.219 21.1026 18.2934 21.0514C18.5884 20.8367 18.8235 20.9315 18.8319 21.2985C18.8415 21.759 18.8031 22.2279 18.7863 22.6932Z" fill="#FBE2C1"/>
<path d="M25.4493 26.3592C25.189 25.1732 25.177 23.9691 25.2322 22.7615C25.3929 19.2561 25.8054 15.7783 26.6257 12.3677C27.0395 10.648 27.6703 8.97862 28.2327 7.29729C28.4351 6.66002 28.8084 6.0905 29.312 5.65073C29.4297 5.54156 29.5663 5.45461 29.715 5.39409C30.0675 5.27417 30.323 5.43367 30.3698 5.80543C30.389 6.00204 30.389 6.20005 30.3698 6.39666C30.1707 9.43314 30.2702 12.466 30.4597 15.4965C30.5293 16.625 30.6576 17.7499 30.7595 18.8772C30.7331 19.0714 30.7115 19.2669 30.6804 19.4612C30.3913 21.2732 29.8661 23.0217 29.2413 24.7379C29.1597 24.9633 29.0314 25.2415 28.8431 25.3375C28.6548 25.4334 28.3814 25.3207 28.0912 25.2955C28.036 25.6097 27.9785 25.9575 27.9137 26.3041C27.7194 27.351 26.8764 27.6496 26.0657 26.9612L25.4996 26.4816L25.4493 26.3592Z" fill="#FCE3C2"/>
<path d="M25.5068 26.4948L26.0729 26.9745C26.8836 27.6628 27.7266 27.3642 27.9209 26.3173C27.9857 25.9707 28.0408 25.6229 28.0984 25.3087C28.3886 25.3339 28.674 25.4442 28.8503 25.3507C29.0266 25.2572 29.1669 24.9729 29.2485 24.7511C29.8721 23.0302 30.3973 21.2817 30.6876 19.4744C30.7187 19.2801 30.7403 19.0847 30.7667 18.8904C30.9622 19.8174 31.1265 20.7516 31.3663 21.669C31.4934 22.1679 31.7261 22.644 31.9228 23.1213C32.0106 23.2898 32.113 23.4503 32.2286 23.601L32.3485 23.5734L32.46 23.0242C32.5176 22.9354 32.58 22.8503 32.6303 22.7567C33.0776 21.9065 33.5106 21.0502 33.9723 20.2083C34.1558 19.8738 34.4016 19.5715 34.6187 19.2549C34.4856 19.9949 34.3249 20.73 34.2265 21.4747C34.049 22.8059 33.8907 24.1419 33.76 25.479C33.6785 26.3185 33.8931 27.1184 34.2241 27.8859C34.3714 28.252 34.5376 28.6102 34.7218 28.9592C35.5433 30.4235 35.8011 32.0245 35.8983 33.6674C35.9186 34.0068 35.9318 34.3474 35.9474 34.688L35.2423 35.7445C34.386 35.687 33.525 35.6714 32.6759 35.5586C32.0162 35.4669 31.4416 35.0616 31.1337 34.4709C30.684 33.6962 30.227 32.9251 29.7821 32.1456C29.3219 31.3538 28.7274 30.6481 28.0252 30.0601C27.3617 29.4865 26.7348 28.8716 26.1484 28.2193C25.728 27.744 25.4993 27.1293 25.5068 26.4948Z" fill="#D8A87C"/>
<path d="M34.6139 19.2406C34.3968 19.5572 34.151 19.8594 33.9675 20.194C33.5058 21.0334 33.0729 21.8921 32.6256 22.7424C32.5764 22.8359 32.5128 22.9211 32.4553 23.0098C32.5296 22.0828 32.5872 21.1534 32.6879 20.2288C32.7336 19.9639 32.8314 19.7108 32.9757 19.484C33.3211 18.8772 33.6953 18.2848 34.055 17.6852C34.1062 17.5709 34.1859 17.4718 34.2865 17.3973C34.4184 17.3338 34.6127 17.2774 34.7302 17.3326C34.8571 17.4147 34.9348 17.5545 34.9377 17.7055C34.8837 18.1469 34.7794 18.581 34.6978 19.0187L34.6427 19.1842C34.6471 19.2074 34.6352 19.2306 34.6139 19.2406Z" fill="#F9E0C0"/>
<path d="M34.6453 19.1866L34.7172 19.0211L34.6453 19.1866ZM25.4584 26.3593L25.5365 26.5155L25.4584 26.3593Z" fill="#D8A87C"/>
</svg>
