<svg width="50" height="50" viewBox="0 0 50 50" fill="none" xmlns="http://www.w3.org/2000/svg">
<path d="M25.1137 6.48126C25.295 6.54127 25.4811 6.59025 25.6575 6.66373C26.5698 7.03846 27.487 7.40707 28.3883 7.80752C28.6837 7.94556 29.0103 8.00302 29.335 7.97406C30.3404 7.89324 31.3482 7.8516 32.3561 7.80752C32.9584 7.76627 33.5323 8.06932 33.8379 8.59004C34.0571 8.92804 34.2873 9.25991 34.5249 9.58688C34.7624 9.91385 35.0772 10.0461 35.5254 9.96283C37.3549 9.62729 39.1992 9.44972 41.0484 9.80118C41.7231 9.92977 42.3783 10.1906 43.0261 10.4355C43.5552 10.6364 43.7915 11.0809 43.8662 11.6308C44.0484 13.0351 44.0282 14.4583 43.8062 15.8569C43.6556 16.85 43.3947 17.8273 43.1657 18.807C43.1216 18.9931 43.0702 19.1413 43.2135 19.3127C44.7553 21.1619 44.6585 23.1715 43.7817 25.2533C43.129 26.8098 42.1579 28.163 41.1672 29.504C38.3224 33.3664 34.9755 36.7622 31.4229 39.9646C30.7959 40.5304 30.1616 41.09 29.4929 41.6044C28.0724 42.6967 26.4755 43.3274 24.6569 43.2992C23.5548 43.2821 22.5298 42.9526 21.555 42.4542C20.1271 41.7195 18.8302 40.7924 17.5664 39.8176C14.8723 37.7358 12.33 35.4862 10.0706 32.9365C9.17541 31.9275 8.38676 30.8118 7.56994 29.7281C7.14598 29.1495 6.83861 28.494 6.66495 27.7981C6.61676 27.6695 6.55519 27.5464 6.48126 27.4307V25.2264C6.54617 25.0843 6.62087 24.946 6.6723 24.799C6.90253 24.1438 7.06663 23.4581 7.36298 22.8335C9.96038 17.3521 13.6599 12.7268 18.322 8.86926C19.5748 7.83323 20.977 7.03846 22.5837 6.66495C22.7698 6.62087 22.9511 6.54249 23.1286 6.48616L25.1137 6.48126ZM17.9449 37.0243C17.9865 37.0586 18.0293 37.0917 18.0673 37.1247L18.2743 37.2349C18.359 37.3654 18.4612 37.4836 18.578 37.5864C19.635 38.3089 20.7896 38.8771 22.0069 39.2739C22.6303 39.4893 23.3096 39.4785 23.9259 39.2433C25.2876 38.7339 26.5588 38.1301 27.2323 36.7243C27.2635 36.6585 27.3008 36.5957 27.3437 36.5369C27.7601 35.9452 28.4121 35.5626 29.1317 35.4874C29.8554 35.4078 30.5877 35.4029 31.3176 35.365C32.0058 35.3319 32.6365 35.12 33.0321 34.5396C33.2917 34.155 33.4497 33.6909 33.5966 33.2452C33.8219 32.5618 34.2469 32.1136 34.9437 31.9324C35.22 31.8437 35.503 31.7774 35.7899 31.734C37.475 31.5797 38.6763 30.6318 39.5862 29.3166C40.1765 28.4692 40.6394 27.5238 41.0753 26.5845C41.7506 25.1694 42.2349 23.6708 42.5155 22.1281C42.6612 21.2807 42.2044 20.4308 41.3227 20.4798C41.3472 20.3573 41.3655 20.2349 41.3998 20.1124C41.6448 19.2344 41.9166 18.3612 42.1566 17.4807C42.6257 15.7577 42.8632 14.0212 42.5559 12.232C42.4567 11.6552 42.1885 11.3528 41.6423 11.2328C40.6483 10.9945 39.6237 10.9095 38.6041 10.9805C36.9582 11.1201 35.338 11.3479 33.7791 11.9136C33.6474 11.9529 33.5137 11.9852 33.3786 12.0104C33.3786 11.5732 33.4092 11.1874 33.3786 10.809C33.2721 9.71669 33.0112 9.42523 32.1871 9.27705C31.3299 9.12397 30.4187 9.04193 29.5689 9.17296C27.1992 9.54034 25.0537 10.5053 23.1335 11.9504C22.6253 12.3325 22.133 12.7366 21.5881 13.1652C21.075 12.5357 20.3635 12.5615 19.7046 12.6753C18.8956 12.8168 18.1011 13.032 17.3313 13.3183C14.8526 14.2294 12.6718 15.804 11.027 17.8702C9.14847 20.2263 7.97651 22.8555 8.13081 25.9526C8.16031 26.5197 8.29833 27.076 8.53739 27.5911C8.74855 28.1128 9.22842 28.4771 9.78771 28.5402C10.1404 28.7606 10.498 28.9762 10.8458 29.2039C12.3953 30.2 13.8266 31.3688 15.1123 32.688C15.2729 32.8272 15.4468 32.9503 15.6316 33.0553L15.7381 33.2782L15.8446 33.495C15.9598 33.7399 16.0687 33.9909 16.1888 34.2297C16.6431 35.1519 16.9358 36.1671 17.733 36.8896L17.9412 37.0219L17.9449 37.0243Z" fill="#F38ABC"/>
<path d="M18.2792 37.2349L18.0722 37.1247L17.9498 37.0243L17.7416 36.8921C16.9444 36.1695 16.6517 35.1543 16.1974 34.2322C16.0749 33.9873 15.9684 33.7424 15.8532 33.4974L15.7467 33.2807L15.6316 33.0553C15.6245 32.9831 15.6089 32.912 15.585 32.8435C15.1074 31.8565 14.6482 30.8584 14.1388 29.8885C13.8219 29.3104 13.4731 28.7503 13.0942 28.2108C12.5394 27.394 12.0949 27.3315 11.3271 27.923C11.2414 27.9891 11.1471 28.0455 11.0626 28.1153C10.7028 28.4061 10.25 28.5571 9.78774 28.5402C9.22827 28.4778 8.74791 28.114 8.53618 27.5924C8.2974 27.0767 8.15979 26.5201 8.13084 25.9526C7.97654 22.8568 9.14849 20.2275 11.027 17.8702C12.6691 15.8066 14.8459 14.233 17.3203 13.3207C18.0901 13.0345 18.8846 12.8193 19.6936 12.6778C20.3586 12.5553 21.064 12.5333 21.5771 13.1677C22.122 12.739 22.6143 12.3349 23.1225 11.9528C25.0427 10.5029 27.1882 9.5428 29.5579 9.17542C30.4077 9.04438 31.3213 9.12643 32.1761 9.27951C33.0064 9.42769 33.2611 9.71914 33.3676 10.8115C33.4044 11.1899 33.3676 11.5757 33.3676 12.0128C33.5027 11.9877 33.6364 11.9554 33.7681 11.9161C35.327 11.3467 36.9521 11.1225 38.5931 10.9829C39.6127 10.9119 40.6373 10.997 41.6313 11.2352C42.1799 11.3577 42.4457 11.6577 42.5449 12.2345C42.8523 14.0237 42.6147 15.7602 42.1457 17.4832C41.9007 18.3637 41.6399 19.2368 41.3888 20.1149C41.3546 20.2373 41.3362 20.3598 41.3117 20.4823C41.2352 20.6232 41.1677 20.7688 41.1096 20.9182C40.6056 22.4669 39.9595 23.9656 39.1796 25.3954C38.2195 27.1564 36.8529 28.4569 34.8347 28.8941C33.7326 29.139 33.1105 28.97 32.7529 27.8201C32.6822 27.5366 32.5905 27.2586 32.4786 26.9886C32.3561 26.7437 32.1626 26.5282 31.9226 26.1914C31.8271 26.4792 31.7634 26.6249 31.7303 26.7755C31.6079 27.3278 31.5491 27.8948 31.385 28.4324C31.0176 29.6338 30.6086 30.8229 30.2032 32.0132C30.0551 32.4504 29.744 32.6598 29.2689 32.7418C28.5461 32.8491 27.8111 32.8429 27.0903 32.7235C26.2869 32.612 26.0249 32.3892 25.7836 31.6213C25.6408 31.1505 25.4606 30.6919 25.2448 30.2498C24.8878 29.5293 24.2472 28.9898 23.4764 28.7606C23.4348 29.297 23.3821 29.7856 23.3601 30.2755C23.3136 31.3544 23.3001 32.4345 23.2376 33.5121C23.174 34.6143 22.8335 35.6503 22.3412 36.6471C21.8232 37.6978 20.775 37.9195 19.9496 37.7358C19.385 37.606 18.8352 37.4039 18.2792 37.2349ZM40.7704 14.7523C40.8047 14.648 40.8285 14.5405 40.8414 14.4315C40.8696 13.2852 40.5439 12.8088 39.3278 12.766H39.2176C38.1987 12.7403 37.219 12.9411 36.2394 13.2093C35.2241 13.4885 34.2592 13.8853 33.4558 14.5906C33.3157 14.7006 33.2175 14.8554 33.1778 15.0291C33.0419 16.4006 32.9329 17.7697 32.8104 19.1401C32.7149 19.843 32.6198 20.5459 32.5251 21.2489C32.4112 22.0987 32.3022 22.9511 32.181 23.801C32.1393 24.09 32.192 24.2847 32.5031 24.3937C32.9733 24.559 33.2978 24.9154 33.5379 25.3378C33.7277 25.6709 33.8954 26.0187 34.0522 26.369C34.1747 26.658 34.3302 26.7547 34.6853 26.7033C35.4022 26.6156 36.0521 26.2386 36.4843 25.6599C36.957 25.0329 37.4309 24.39 37.775 23.6895C38.7051 21.8233 39.4959 19.8909 40.141 17.9081C40.4716 16.8794 40.7704 15.8447 40.7704 14.7523ZM31.3752 13.4138C31.3862 12.8505 31.4389 12.2835 31.3948 11.7238C31.3568 11.2585 31.0494 11.0062 30.5792 10.9891C30.1774 10.9651 29.7742 10.9918 29.3791 11.0687C26.7413 11.6748 24.5027 13.0048 22.569 14.8772C22.389 15.0523 22.3584 15.2066 22.4147 15.4577C22.6094 16.3308 22.7711 17.2113 22.9278 18.093C23.0417 18.7396 23.1262 19.3911 23.2242 20.0402C23.2242 20.1871 23.2242 20.3341 23.2242 20.481C23.2977 22.4053 23.3728 24.3292 23.4495 26.2526C23.46 26.313 23.4768 26.3721 23.4997 26.429C23.7054 26.4841 23.9185 26.5331 24.1267 26.6004C25.4738 27.0327 26.3371 27.9793 26.9433 29.2211C27.1186 29.6022 27.3465 29.9567 27.6205 30.2743C27.9377 30.6245 28.2757 30.5865 28.6345 30.2743C29.0245 29.9312 29.2937 29.4718 29.4023 28.9639C29.6179 27.9842 29.7991 26.9935 29.9595 26.0028C30.1914 24.5774 30.4045 23.1486 30.5988 21.7167C30.7433 20.6476 30.8437 19.5724 30.9662 18.4984C31.0715 17.5187 31.178 16.539 31.2613 15.5495C31.3127 14.8392 31.3409 14.1265 31.3752 13.4138ZM21.0064 17.9449C20.8656 17.2101 20.7786 16.4606 20.5692 15.7406C20.3243 14.8907 19.8259 14.6494 18.9772 14.8576C18.672 14.9253 18.3768 15.0323 18.0992 15.176C17.0889 15.7271 16.0639 16.2622 15.0977 16.8831C13.0342 18.202 11.5744 20.0524 10.5997 22.291C10.2115 23.185 9.93959 24.1157 9.94326 25.0954C9.91999 25.7897 10.0425 25.9355 10.7074 25.8742C11.0157 25.843 11.3158 25.7558 11.5928 25.6171C11.9675 25.4297 11.9675 25.2497 11.6712 24.957C11.5855 24.87 11.5157 24.7684 11.4361 24.6729C11.5989 24.3765 11.8034 24.3055 12.0986 24.3826C12.9558 24.5896 13.6783 25.0023 14.1669 25.7297C14.6588 26.4363 15.1003 27.1765 15.4883 27.945C16.2084 29.4476 16.8427 30.9906 17.5322 32.5079C17.8738 33.2574 18.2314 34.0032 18.6343 34.7233C18.9468 35.2905 19.592 35.5883 20.2263 35.458C20.8705 35.3503 21.1558 34.9033 21.2587 34.324C21.3803 33.7337 21.4549 33.1346 21.4816 32.5324C21.5109 30.2049 21.5167 27.8781 21.4987 25.5522C21.4901 24.2504 21.4558 22.9474 21.3762 21.6481C21.2893 20.4149 21.1301 19.1793 21.0064 17.9412V17.9449Z" fill="#4E4040"/>
<path d="M18.2792 37.2349C18.8352 37.4039 19.3813 37.6023 19.9508 37.7321C20.7762 37.9158 21.8244 37.6942 22.3424 36.6435C22.8323 35.6466 23.1752 34.6155 23.2389 33.5085C23.3013 32.4308 23.3148 31.3507 23.3613 30.2718C23.3834 29.782 23.436 29.2921 23.4777 28.757C24.2484 28.9861 24.889 29.5256 25.246 30.2461C25.4618 30.6882 25.642 31.1469 25.7848 31.6177C26.0297 32.3892 26.2881 32.612 27.0915 32.7198C27.8123 32.8392 28.5473 32.8454 29.2701 32.7382C29.7452 32.6561 30.0563 32.4467 30.2044 32.0095C30.6098 30.8192 31.0188 29.6301 31.3862 28.4288C31.5503 27.8912 31.614 27.3266 31.7315 26.7719C31.7646 26.6212 31.8283 26.4755 31.9238 26.1877C32.1687 26.5245 32.3573 26.7363 32.4798 26.9849C32.5917 27.2549 32.6834 27.5329 32.7541 27.8165C33.1215 28.9664 33.7338 29.1329 34.8359 28.8904C36.859 28.4471 38.2208 27.1527 39.1809 25.3917C39.9607 23.962 40.6068 22.4632 41.1108 20.9145C41.1689 20.7651 41.2364 20.6195 41.3129 20.4786C42.1946 20.4296 42.6514 21.2795 42.5057 22.1269C42.2251 23.6696 41.7408 25.1681 41.0655 26.5833C40.6296 27.5226 40.1667 28.468 39.5764 29.3154C38.6628 30.6257 37.4615 31.5785 35.7801 31.7328C35.4932 31.7762 35.2102 31.8425 34.9339 31.9312C34.2371 32.1124 33.8122 32.5606 33.5868 33.2439C33.4399 33.6897 33.2819 34.1538 33.0223 34.5383C32.6304 35.12 31.9997 35.3307 31.3078 35.3637C30.5731 35.398 29.8456 35.4029 29.1219 35.4862C28.4023 35.5613 27.7504 35.944 27.334 36.5357C27.291 36.5945 27.2537 36.6572 27.2225 36.7231C26.5514 38.1289 25.2803 38.7326 23.9161 39.2421C23.2998 39.4772 22.6205 39.4881 21.9971 39.2727C20.7798 38.8759 19.6252 38.3077 18.5682 37.5852C18.4567 37.4818 18.3595 37.364 18.2792 37.2349ZM9.78772 28.5402C10.2496 28.5568 10.7019 28.4058 11.0613 28.1153C11.1458 28.0467 11.2401 27.9928 11.3258 27.923C12.0937 27.3315 12.5382 27.394 13.0929 28.2108C13.4718 28.7491 13.8205 29.308 14.1375 29.8848C14.647 30.8547 15.1062 31.8528 15.5838 32.8398C15.6076 32.9083 15.6233 32.9795 15.6303 33.0517C15.4456 32.9466 15.2717 32.8236 15.1111 32.6843C13.8258 31.3652 12.3949 30.1964 10.8458 29.2003C10.4992 28.9762 10.1416 28.7606 9.78772 28.5402Z" fill="#D2536F"/>
<path d="M15.6337 33.0554L15.7697 33.2782L15.6337 33.0554ZM15.7415 33.2746L15.8774 33.4913L15.7415 33.2746Z" fill="#017B8F"/>
<path d="M17.7342 36.8908L17.9424 37.0471L17.7342 36.8908ZM17.9448 37.0273L18.1011 37.1555L17.9448 37.0273Z" fill="#E27B11"/>
<path d="M21.0064 17.9412C21.1288 19.1793 21.2893 20.4149 21.3738 21.6542C21.457 22.9535 21.4962 24.2565 21.4962 25.5583C21.5117 27.8875 21.506 30.2143 21.4791 32.5386C21.4524 33.1407 21.3779 33.7398 21.2562 34.3302C21.1533 34.9094 20.868 35.3564 20.2238 35.4642C19.5895 35.5944 18.9443 35.2966 18.6319 34.7294C18.2339 34.0093 17.8763 33.2599 17.5297 32.5141C16.8402 30.9968 16.2059 29.4526 15.4858 27.9512C15.0979 27.1827 14.6563 26.4424 14.1645 25.7359C13.6746 25.0011 12.9472 24.5908 12.0961 24.3888C11.8059 24.3178 11.5965 24.3827 11.4336 24.679C11.5132 24.7745 11.583 24.8762 11.6687 24.9631C11.9651 25.2595 11.9651 25.4358 11.5903 25.6232C11.3133 25.762 11.0132 25.8491 10.7049 25.8804C10.04 25.9416 9.91752 25.7959 9.94078 25.1015C10.1122 24.9533 10.3363 24.8358 10.4429 24.6509C10.9192 23.8304 11.3638 22.9903 11.8157 22.1563C12.0973 21.6346 12.4965 21.5061 12.9778 21.8563C13.3498 22.1509 13.7035 22.4679 14.0371 22.8054C14.7376 23.4618 15.5152 23.8108 16.4753 23.4177C17.1578 23.1409 17.7566 22.6915 18.213 22.1135C19.2564 20.7995 20.2863 19.472 21.0064 17.9412ZM31.3752 13.4138C31.336 14.1265 31.3127 14.8393 31.2527 15.5508C31.1694 16.5305 31.0629 17.5175 30.9576 18.4996C30.8437 19.5736 30.7396 20.6488 30.5902 21.7179C30.3967 23.1499 30.1836 24.5786 29.9509 26.0041C29.7905 26.9948 29.6093 27.9842 29.3937 28.9652C29.2851 29.4731 29.0159 29.9325 28.6259 30.2755C28.2671 30.5902 27.9291 30.6282 27.6119 30.2755C27.3379 29.9579 27.11 29.6034 26.9347 29.2223C26.3334 27.9806 25.4652 27.0339 24.1181 26.6017C23.9099 26.5343 23.6968 26.4853 23.4911 26.4302C23.4682 26.3734 23.4514 26.3143 23.4409 26.2539C23.365 24.3304 23.2899 22.4065 23.2156 20.4823C23.2156 20.3353 23.2156 20.1884 23.2156 20.0414C23.9614 20.5166 24.3655 20.5006 24.9582 19.9006C26.111 18.7462 27.2482 17.5795 28.37 16.4006C29.0986 15.634 29.7832 14.8246 30.513 14.0604C30.7592 13.8057 31.0862 13.6281 31.3752 13.4138ZM40.7704 14.7523C40.7704 15.8447 40.4691 16.8795 40.1397 17.9081C39.4946 19.891 38.7038 21.8234 37.7738 23.6895C37.4296 24.39 36.9557 25.0366 36.483 25.6599C36.0497 26.2398 35.3978 26.6169 34.6792 26.7033C34.324 26.7547 34.1746 26.658 34.046 26.369C33.8893 26.0187 33.7215 25.671 33.5317 25.3379C33.2868 24.9154 32.9672 24.559 32.4969 24.3937C32.1859 24.2847 32.1295 24.09 32.1748 23.801C32.2973 22.9511 32.4051 22.0988 32.5189 21.2489C32.6153 20.5476 32.7124 19.8447 32.8104 19.1401C32.8876 19.4524 32.9329 19.7891 33.4092 19.9618C33.5317 19.8087 33.6542 19.6214 33.8011 19.461C34.6884 18.5092 35.6652 17.6452 36.7181 16.8807C37.9636 15.9782 39.2739 15.1834 40.7704 14.7523Z" fill="#D8A87C"/>
<path d="M21.0064 17.9412C20.2863 19.472 19.2564 20.7994 18.2155 22.1147C17.7591 22.6927 17.1603 23.1421 16.4778 23.4189C15.5177 23.8095 14.74 23.4605 14.0396 22.8066C13.706 22.4691 13.3522 22.1521 12.9803 21.8575C12.499 21.5073 12.0998 21.6359 11.8181 22.1575C11.3662 22.9915 10.9217 23.8316 10.4453 24.6521C10.3388 24.837 10.1147 24.9546 9.94324 25.1027C9.94324 24.1145 10.2114 23.1874 10.5996 22.2935C11.5793 20.0549 13.0342 18.2045 15.0976 16.8795C16.0638 16.2561 17.0888 15.721 18.0992 15.176C18.3753 15.0331 18.6688 14.9265 18.9723 14.8589C19.8295 14.6507 20.3194 14.8919 20.5643 15.7418C20.7786 16.457 20.8655 17.2064 21.0064 17.9412ZM31.3752 13.4138C31.0862 13.6281 30.7629 13.8057 30.5179 14.0629C29.7832 14.827 29.1035 15.6365 28.3749 16.4031C27.2499 17.5828 26.1159 18.7494 24.9729 19.903C24.3802 20.5031 23.9761 20.5153 23.2303 20.0439C23.1323 19.3948 23.0478 18.7433 22.9339 18.0967C22.7772 17.215 22.6155 16.3345 22.4208 15.4614C22.3645 15.2164 22.3951 15.056 22.5751 14.8809C24.5026 13.0085 26.7412 11.6785 29.3815 11.0724C29.7766 10.9955 30.1798 10.9688 30.5816 10.9928C31.0519 11.0062 31.3592 11.2585 31.3972 11.7275C31.4388 12.2835 31.3862 12.8493 31.3752 13.4138ZM40.7704 14.7523C39.2715 15.1834 37.9611 15.9769 36.712 16.8807C35.6599 17.6457 34.6839 18.5102 33.7974 19.4622C33.6468 19.6226 33.5244 19.81 33.4056 19.963C32.9255 19.7904 32.8839 19.4536 32.8067 19.1413C32.9329 17.7698 33.0419 16.4006 33.1778 15.0291C33.2162 14.8561 33.3126 14.7014 33.4509 14.5907C34.2542 13.8853 35.2192 13.4885 36.2344 13.2093C37.2141 12.9411 38.1938 12.7403 39.2164 12.7648H39.3266C40.5426 12.8076 40.8684 13.284 40.8402 14.4302C40.8277 14.5397 40.8043 14.6475 40.7704 14.7523Z" fill="#FCE3C2"/>
</svg>
