<svg width="32" height="32" viewBox="0 0 32 32" fill="none" xmlns="http://www.w3.org/2000/svg">
<path d="M11.8097 27.939C11.1765 27.1478 10.5568 26.3408 9.90159 25.5704C9.46193 25.0487 8.87407 24.6727 8.21764 24.489C7.75838 24.3555 7.30157 24.2073 6.84844 24.0567C6.17853 23.8461 5.64089 23.3452 5.38126 22.6936C4.87914 21.5143 4.50316 20.2859 4.26067 19.0269C3.94715 17.3797 3.67282 15.7276 3.53688 14.0534C3.31398 11.3101 3.41196 8.58765 4.09411 5.90925C4.32068 5.02258 4.70768 4.21673 5.39963 3.58234C5.76581 3.22841 6.21282 2.96755 6.70147 2.82181C7.11175 2.71036 7.43506 2.82181 7.64081 3.18922C7.7988 3.47212 7.91269 3.77584 7.98005 4.09181C8.33399 5.86027 8.63893 7.63729 9.01491 9.39962C9.3615 11.0236 9.77912 12.6304 10.1673 14.2445L10.2531 14.2518C10.3131 14.1673 10.3694 14.0779 10.4209 13.9873C10.6009 13.637 10.7576 13.2721 10.956 12.9316C11.4337 12.1135 11.9836 11.898 12.8764 12.214C13.2438 12.356 13.5928 12.5409 13.9161 12.7651C14.2762 13.0002 14.3178 13.4031 14.3031 13.7877C14.2468 15.1397 14.1611 16.4906 14.1145 17.8414C14.0925 18.4048 14.1072 18.9669 14.1623 19.5278C14.2223 20.1242 14.5444 20.6068 14.9804 21.0121C15.4164 21.4187 15.8413 21.8241 16.2724 22.2295C16.5431 22.6226 16.848 23.001 16.9215 23.4921C17.0587 24.3004 16.9815 25.1295 16.6986 25.8999C16.6643 25.9929 16.5578 26.0517 16.4843 26.1264C16.3716 25.7652 16.243 25.4075 16.1487 25.0414C15.9038 24.0898 15.3637 23.3488 14.6056 22.7377C14.1696 22.3838 13.7532 22.0066 13.3552 21.6098C12.8849 21.1407 12.5616 20.5835 12.5151 19.9075C12.4845 19.4751 12.5151 19.0379 12.5212 18.6019C12.5469 17.5499 12.5788 16.4967 12.6082 15.4447C12.6216 15.0797 12.651 14.7135 12.6424 14.3486C12.6363 14.0608 12.4551 13.9861 12.2212 14.1551C12.1624 14.1943 12.1122 14.2445 12.0717 14.3033C11.3308 15.452 10.5372 16.5837 10.7283 18.0631C10.7344 18.1476 10.7344 18.2321 10.7283 18.3154C10.5188 18.4807 10.4539 18.2688 10.3829 18.1611C10.2127 17.9039 10.0853 17.6185 9.91261 17.365C9.57337 16.8482 9.31129 16.2848 9.13371 15.6933C8.80794 14.694 8.45401 13.7032 8.11354 12.7087C8.01924 12.3266 7.90534 11.9482 7.82452 11.5624C7.39097 9.52086 6.96723 7.47931 6.55329 5.43897C6.5141 5.25159 6.51655 5.04585 6.26304 4.91235C6.16016 5.02013 6.06709 5.1377 5.9887 5.26384C5.90053 5.45612 5.82827 5.65452 5.77193 5.85782C5.26001 7.56014 5.08243 9.30777 5.04937 11.0725C4.99548 13.5966 5.27961 16.117 5.8944 18.5664C6.09525 19.3698 6.37326 20.1524 6.61697 20.9435C6.81537 21.7004 7.22197 22.2968 7.93229 22.6495C8.18335 22.7794 8.44543 22.8884 8.71487 22.9753C9.94935 23.3513 10.885 24.1351 11.6602 25.132C11.9885 25.5521 12.2934 25.9917 12.6094 26.4216C13.1887 27.2103 13.959 27.5581 14.924 27.3621C15.218 27.3034 15.4837 27.1135 15.7703 26.9996C15.8805 26.9556 15.9859 26.7731 16.1279 26.9556C16.0704 27.5557 15.7654 28.0431 15.3907 28.4876C14.5652 29.4613 13.7483 29.5543 12.7478 28.784C12.4159 28.5281 12.1207 28.2219 11.8097 27.939ZM19.8302 23.8216C19.4787 23.2153 18.9839 22.7426 18.4683 22.2772C17.9258 21.7812 17.3955 21.2742 16.8921 20.7476C16.3006 20.1291 16.0397 19.3649 16.025 18.515C15.9846 16.3142 16.0459 14.1196 16.341 11.9347C16.6043 9.99482 16.8578 8.05491 17.3759 6.16154C17.682 5.04952 17.9956 3.9375 18.3152 2.82793C18.3973 2.5585 18.4952 2.29397 18.6104 2.03678C19.1615 0.760656 20.2478 0.257308 21.5251 0.128716C22.4534 0.0356391 23.0878 0.598997 23.2066 1.53344C23.2556 2.00984 23.2728 2.48869 23.2593 2.96755C23.2507 5.49041 23.2372 8.01327 23.2189 10.5374C23.2262 10.5814 23.2372 10.6255 23.2507 10.6684C23.3854 10.4724 23.5054 10.3071 23.6181 10.1369C24.3897 8.95873 25.465 9.18652 26.2892 9.7609C26.6651 10.0193 26.817 10.3818 26.8084 10.8509C26.7864 12.0572 26.5402 13.228 26.3051 14.4013C26.081 15.5206 25.8471 16.6388 25.923 17.7924C25.9744 18.5725 26.1006 19.3319 26.4778 20.0287C26.5304 20.123 26.599 20.2173 26.6602 20.3116C26.686 20.3912 26.7166 20.4684 26.7545 20.5431C27.0252 20.9717 27.1807 21.4628 27.2065 21.9686C27.2665 23.0121 26.8305 23.8779 26.283 24.7095C26.2402 24.7744 26.1263 24.7915 26.0442 24.8319C26.032 24.5662 26.021 24.2992 26.005 24.0322C25.9279 22.7451 25.7234 21.4898 25.0828 20.3422C24.9396 20.0679 24.8097 19.785 24.6946 19.4972C24.435 18.8959 24.266 18.2676 24.3309 17.6112C24.4325 16.5628 24.5575 15.5157 24.6958 14.4723C24.773 13.8881 24.8991 13.3125 25.0032 12.732C25.0167 12.7234 25.0241 12.7063 25.0204 12.6904L25.0633 12.5605C25.1306 12.2176 25.2127 11.8772 25.2519 11.5306C25.2494 11.413 25.1882 11.3028 25.089 11.2391C24.9947 11.1987 24.844 11.2391 24.7412 11.2893C24.6628 11.3481 24.6003 11.4253 24.5599 11.5147C24.2782 11.9849 23.9867 12.4479 23.7136 12.9255C23.601 13.1031 23.5238 13.3015 23.4883 13.5085C23.4087 14.2335 23.3646 14.9622 23.3058 15.6884L23.2189 16.1195L23.1246 16.1403C23.0339 16.0227 22.9531 15.8966 22.8845 15.7643C22.7265 15.3884 22.5477 15.0173 22.4485 14.6266C22.2661 13.9077 22.135 13.1753 21.9783 12.4479C21.8987 11.5649 21.7982 10.6831 21.7431 9.79887C21.5949 7.42297 21.5166 5.04585 21.6733 2.66627C21.6929 2.51196 21.6966 2.35643 21.6868 2.20212C21.65 1.91064 21.4492 1.78327 21.1724 1.88002C21.0561 1.92656 20.9495 1.99514 20.8577 2.08087C20.4621 2.42501 20.1694 2.87202 20.0114 3.37169C19.5705 4.68701 19.0708 5.99743 18.7512 7.34581C18.1082 10.0181 17.7849 12.7442 17.66 15.4925C17.6159 16.4318 17.6257 17.3785 17.829 18.3117L17.8768 18.4195C17.8694 18.9179 18.0495 19.4017 18.3789 19.774C18.8394 20.2859 19.3305 20.7672 19.851 21.2179C20.396 21.6784 20.8589 22.2295 21.2165 22.8467C21.5655 23.4578 21.9231 24.0628 22.2759 24.6703C22.5183 25.1283 22.9678 25.4418 23.4822 25.5129C24.1472 25.601 24.822 25.6133 25.4931 25.6586C25.4931 25.9942 25.2923 26.2183 25.0388 26.3726C24.6297 26.6175 24.2084 26.8429 23.7773 27.0437C23.0695 27.3768 22.4461 27.2213 21.8852 26.6898C21.3904 26.2085 20.963 25.6623 20.6152 25.0659C20.3617 24.6421 20.0886 24.2318 19.8302 23.8216Z" fill="#4F403F"/>
<path d="M26.0454 24.8258C26.1275 24.7854 26.2426 24.7683 26.2843 24.7034C26.8305 23.8706 27.2677 23.0047 27.2089 21.9613C27.1819 21.4555 27.0264 20.9644 26.757 20.5357C26.719 20.461 26.6872 20.3839 26.6627 20.3043C26.9358 20.1328 27.264 20.0716 27.5812 20.134C27.8727 20.1585 28.1078 20.3851 28.1446 20.6766C28.3332 21.6159 28.5267 22.543 28.5634 23.5032C28.5805 23.9232 28.5867 24.336 28.5695 24.7573C28.5401 25.5166 28.2548 26.1485 27.7955 26.7192C26.5684 28.2243 25.1637 29.5752 23.612 30.7435C23.4405 30.8942 23.2005 30.9432 22.9837 30.8709C21.8925 30.55 20.7878 30.2745 19.704 29.9303C18.8516 29.6609 18.0519 29.6707 17.2595 30.0969C16.3055 30.61 15.3441 31.1085 14.3888 31.6204C13.9479 31.8568 13.7446 31.8617 13.4262 31.4918C13.0968 31.1085 12.7967 30.6994 12.5322 30.2696C12.2824 29.8642 12.1183 29.4049 11.8733 28.9935C11.6639 28.6371 11.5782 28.3052 11.8109 27.9365C12.1219 28.2182 12.4159 28.5256 12.7514 28.7828C13.7483 29.5544 14.5652 29.4613 15.3882 28.4901C15.7642 28.0468 16.0679 27.5581 16.1267 26.958L16.4794 26.1216C16.5516 26.0456 16.6594 25.9844 16.6937 25.8938C16.9754 25.1247 17.0525 24.2943 16.9154 23.486C16.8431 22.9961 16.5394 22.6165 16.2663 22.2246C16.4929 22.1523 16.7219 22.0862 16.9448 22.0066C17.1897 21.9172 17.3587 21.9637 17.5155 22.194C17.8363 22.6704 18.1866 23.1272 18.5283 23.5901C18.9471 24.1535 19.0439 24.1816 19.6819 23.8902C19.7334 23.8657 19.7824 23.84 19.8338 23.8155C20.0959 24.2306 20.3653 24.6397 20.6188 25.0585C20.9679 25.6549 21.3941 26.2024 21.8888 26.6837C22.4534 27.2152 23.0731 27.3707 23.781 27.0376C24.2121 26.8355 24.6334 26.6114 25.0424 26.3653C25.2959 26.211 25.4992 25.9893 25.4968 25.6525L26.0454 24.8258Z" fill="black" fill-opacity="0.3"/>
<path d="M16.4745 26.1215L16.123 26.958C15.981 26.7755 15.8744 26.958 15.7642 27.0021C15.4825 27.1172 15.2131 27.3058 14.9179 27.3646C13.9529 27.5605 13.1838 27.2127 12.6045 26.4252C12.2873 25.9941 11.9823 25.5557 11.6554 25.1344C10.8814 24.1375 9.94569 23.3562 8.71487 22.9753C8.44789 22.8871 8.18948 22.7769 7.93965 22.6471C7.22443 22.2944 6.81783 21.6979 6.62433 20.9411C6.70148 21.0011 6.78109 21.0562 6.85457 21.1211C7.32975 21.5363 7.74982 21.4236 7.92372 20.8076C8.04252 20.374 8.08048 19.9234 8.03885 19.4763C7.96414 18.5664 7.93842 17.6528 7.92495 16.7404C7.91638 16.1648 7.96414 15.5892 7.99108 15.0136C8.02782 14.2432 8.06946 13.4717 8.10988 12.7001C8.45157 13.6946 8.8055 14.6854 9.13127 15.6847C9.30762 16.2762 9.57093 16.8396 9.91017 17.3564C10.0853 17.6099 10.2127 17.8953 10.3805 18.1537C10.4503 18.2602 10.5152 18.4721 10.7258 18.3068C10.776 18.3558 10.8262 18.4011 10.8777 18.4525C11.2267 18.7758 11.4912 18.7195 11.6762 18.27C11.7607 18.0631 11.8133 17.8414 11.8819 17.6283C12.122 16.8971 12.3632 16.1648 12.6045 15.4324C12.5751 16.4857 12.5433 17.5389 12.5175 18.5909C12.5077 19.0269 12.4808 19.4641 12.5114 19.8964C12.558 20.5712 12.88 21.1334 13.3516 21.5987C13.7496 21.9955 14.166 22.3727 14.602 22.7267C15.36 23.3366 15.9001 24.0787 16.1451 25.0303C16.2345 25.4026 16.3618 25.759 16.4745 26.1215Z" fill="#D8A87C"/>
<path d="M8.10128 12.7026C8.06087 13.4754 8.01923 14.2457 7.98249 15.016C7.95554 15.5916 7.90778 16.1685 7.91635 16.7429C7.92983 17.6565 7.95554 18.5701 8.03025 19.4788C8.07311 19.9271 8.03392 20.379 7.91513 20.8137C7.74122 21.4297 7.32115 21.5412 6.84597 21.1272C6.77249 21.0623 6.69289 21.0072 6.61573 20.9472C6.37202 20.1548 6.09401 19.3698 5.89439 18.5664C5.2796 16.117 4.99547 13.5966 5.04935 11.0725C5.0861 9.30777 5.26368 7.55768 5.77437 5.85781C5.82948 5.65452 5.90174 5.45612 5.98869 5.26384C6.06585 5.1377 6.1577 5.02013 6.25935 4.91235C6.51286 5.04584 6.51041 5.25282 6.54837 5.43897C6.96967 7.4793 7.39096 9.51841 7.81348 11.5575C7.89431 11.9433 8.00453 12.3217 8.10128 12.7026Z" fill="#FCE3C2"/>
<path d="M12.5984 15.4361C12.3583 16.1685 12.1171 16.8996 11.877 17.632C11.8072 17.8451 11.7558 18.0655 11.6713 18.2737C11.4827 18.7232 11.2218 18.7795 10.8716 18.4562C10.8201 18.4085 10.7699 18.3619 10.7197 18.3105C10.7258 18.226 10.7258 18.1415 10.7197 18.057C10.5311 16.5751 11.3222 15.4435 12.0632 14.2972C12.1036 14.2396 12.1538 14.1894 12.2126 14.149C12.4441 13.9812 12.6278 14.0547 12.6339 14.3425C12.6425 14.7038 12.6118 15.0712 12.5984 15.4361Z" fill="#FBE2C1"/>
<path d="M17.8216 18.3092C17.6171 17.3797 17.6073 16.4355 17.6514 15.4888C17.7763 12.7418 18.0996 10.0156 18.7426 7.34214C19.0671 5.99498 19.5619 4.68579 20.0028 3.36802C20.1608 2.86835 20.4535 2.42256 20.8491 2.0772C20.9409 1.9927 21.0475 1.92411 21.165 1.87635C21.4406 1.78205 21.6414 1.90819 21.6782 2.19844C21.6929 2.35275 21.6929 2.50829 21.6782 2.6626C21.5214 5.04217 21.5998 7.4193 21.748 9.7952C21.8031 10.6794 21.9035 11.5612 21.9831 12.4442C21.9623 12.5973 21.9452 12.7504 21.9207 12.9022C21.6941 14.3229 21.2826 15.6933 20.7927 17.038C20.729 17.2156 20.6286 17.4336 20.4817 17.5083C20.3335 17.583 20.1192 17.4948 19.8914 17.4752C19.8485 17.7214 19.8032 17.9945 19.753 18.2664C19.5999 19.0869 18.9398 19.3208 18.3042 18.7807L17.8608 18.4048L17.8216 18.3092Z" fill="#FCE3C2"/>
<path d="M17.8658 18.4158L18.3103 18.7917C18.9447 19.3306 19.606 19.0967 19.7579 18.2762C19.8093 18.0043 19.8522 17.7324 19.8975 17.4862C20.1253 17.5058 20.3482 17.5916 20.4866 17.5181C20.625 17.4458 20.7352 17.2229 20.7989 17.049C21.2875 15.6994 21.699 14.329 21.9268 12.9132C21.9513 12.7601 21.9685 12.6071 21.9893 12.4552C22.1424 13.1814 22.271 13.9138 22.4583 14.6327C22.5588 15.0234 22.7413 15.3969 22.8956 15.7717C22.9641 15.9027 23.0437 16.0288 23.1344 16.1476L23.2287 16.1256L23.3156 15.6945C23.3609 15.6259 23.4099 15.5586 23.4491 15.4851C23.8006 14.8189 24.1398 14.1477 24.5011 13.4876C24.6456 13.2255 24.8379 12.9892 25.0082 12.7406C24.9041 13.3211 24.7779 13.8967 24.7008 14.4808C24.5611 15.5243 24.4374 16.5714 24.3346 17.6197C24.2709 18.2774 24.4399 18.9044 24.6983 19.5057C24.8147 19.7923 24.9445 20.074 25.089 20.3471C25.7332 21.4946 25.9352 22.7499 26.0112 24.0371C26.0271 24.3029 26.0369 24.5698 26.0491 24.8368L25.4968 25.6647C24.8257 25.6206 24.1509 25.6084 23.4859 25.5202C22.9678 25.4479 22.5184 25.1295 22.2771 24.6666C21.9244 24.0604 21.5655 23.4554 21.2177 22.8442C20.8565 22.2233 20.3911 21.671 19.84 21.2093C19.3195 20.7598 18.8284 20.2785 18.3691 19.7666C18.0397 19.3943 17.8609 18.913 17.8658 18.4158Z" fill="#D8A87C"/>
<path d="M25.0045 12.7296C24.8342 12.9782 24.642 13.2145 24.4975 13.4766C24.1362 14.1343 23.7969 14.8079 23.4454 15.4741C23.4075 15.5476 23.3573 15.6137 23.312 15.6835C23.3707 14.9573 23.416 14.2286 23.4944 13.5036C23.5299 13.2966 23.6071 13.0982 23.7198 12.9206C23.9904 12.4442 24.2844 11.9801 24.566 11.5098C24.6064 11.4204 24.6689 11.3432 24.7473 11.2844C24.8514 11.2354 25.0032 11.1914 25.0951 11.2342C25.1955 11.2979 25.2555 11.4081 25.258 11.5269C25.2163 11.8723 25.1343 12.2127 25.0706 12.5557L25.0265 12.6855C25.0302 12.7038 25.0216 12.7222 25.0045 12.7296Z" fill="#F9E0C0"/>
<path d="M25.0289 12.6867L25.0853 12.5581L25.0289 12.6867ZM17.8278 18.3093L17.889 18.4317L17.8278 18.3093Z" fill="#D8A87C"/>
</svg>
