<svg width="32" height="32" viewBox="0 0 32 32" fill="none" xmlns="http://www.w3.org/2000/svg">
<path d="M31.812 13.8822C31.7866 15.0082 31.3684 15.8488 30.881 16.6372C30.1421 17.8423 29.2054 18.916 28.1133 19.8145C27.5779 20.2568 26.976 20.6043 26.2767 20.6283C25.7709 20.6453 25.258 20.5238 24.7508 20.4531C22.6472 20.1423 20.5181 20.0434 18.3961 20.1593C17.5682 20.2101 16.7346 20.2525 15.9081 20.2695C13.2012 20.326 10.5112 20.7131 7.89897 21.4237C7.13182 21.6314 6.34912 21.7981 5.59186 22.0312C4.82189 22.2968 3.96856 22.1358 3.34834 21.6088C3.07567 21.3926 2.82136 21.1539 2.58966 20.8925C1.95956 20.1692 1.31956 19.443 0.727594 18.6843C0.487418 18.3707 0.307992 18.0132 0.199206 17.6332C0.0296704 17.0455 0.262782 16.5044 0.642826 16.0622C1.07373 15.5564 1.37183 14.9517 1.51028 14.3018C1.58375 13.9684 1.75046 13.6477 1.89315 13.3298C1.95956 13.1815 2.03867 12.9978 2.16724 12.9243C2.58119 12.6912 2.69845 12.273 2.90613 11.8986C3.74533 10.3883 4.79646 9.05184 6.20361 8.02332C6.84502 7.53873 7.63619 7.29149 8.43866 7.32681C9.50108 7.36354 10.5663 7.32681 11.6273 7.36778C13.2902 7.42712 14.9503 7.19824 16.534 6.69246C17.2136 6.47913 17.9101 6.311 18.6066 6.15983C19.5517 5.95639 20.4884 6.1118 21.418 6.30253C23.4228 6.71224 25.2227 7.57263 26.8531 8.79047C28.0088 9.65369 29.1574 10.531 30.2862 11.4395C30.6931 11.7715 31.035 12.1911 31.367 12.6022C31.6665 12.9596 31.8247 13.4146 31.812 13.8822ZM24.8116 10.1171L23.6051 9.52654L21.4237 8.62093C20.6339 8.31012 19.7721 8.231 18.94 8.39065L16.7247 8.94446C16.5608 8.95435 16.3984 8.97272 16.2359 8.99956C14.1633 9.45166 12.0794 9.77519 9.94611 9.6325C9.48695 9.60142 9.02214 9.6438 8.56016 9.65228C8.06003 9.65934 7.57826 9.72857 7.15301 10.021C6.98912 10.0945 6.83089 10.1807 6.67972 10.2767C5.95072 10.8277 5.36582 11.5454 4.97306 12.3705C4.88688 12.5824 4.81765 12.8014 4.76679 13.0246C4.64246 13.6999 4.8233 14.3329 5.08467 14.9361C5.2429 15.2823 5.45624 15.6016 5.71336 15.8813C6.00299 16.2133 6.18948 16.1709 6.40564 15.8008C6.59636 15.4688 6.76731 15.1297 6.93968 14.7878C7.35221 13.9754 7.73932 13.149 8.17446 12.3521C8.47256 11.7983 8.81163 11.7913 9.21004 12.2801C9.50249 12.6403 9.76386 13.0275 10.0535 13.3877C10.4872 13.9274 10.7443 13.9246 11.2134 13.416C11.681 12.906 12.1783 12.3649 12.6771 11.8562C13.0359 11.4903 13.2549 11.4649 13.6914 11.746C13.9401 11.9099 14.1718 12.095 14.388 12.2999C14.6719 12.5542 14.9319 12.8353 15.2173 13.0882C15.6609 13.4767 15.8516 13.4499 16.1737 12.9766C16.3588 12.7011 16.5213 12.4115 16.7064 12.136C16.8702 11.869 17.0553 11.6147 17.2602 11.3759C17.5795 11.0354 17.8691 11.0213 18.2082 11.342C18.5303 11.6514 18.8355 11.9763 19.1222 12.3182C19.6973 12.9822 20.2596 13.659 20.8402 14.3188C20.9942 14.4911 21.1722 14.6409 21.37 14.7624C21.7317 14.9828 21.9507 14.9164 22.116 14.525C22.2445 14.2368 22.3406 13.9359 22.4056 13.6279C22.585 12.6686 22.7376 11.7022 22.9057 10.7387C22.9495 10.4915 22.9481 10.2174 23.1855 10.0125C23.3112 10.1312 23.4157 10.2344 23.5175 10.329L23.8142 11.0199C23.8481 11.2403 23.8806 11.4621 23.9145 11.6839C23.9625 11.674 24.0105 11.6599 24.0557 11.6401C24.3383 11.4366 24.618 11.2304 24.9006 11.0269C25.3767 10.6822 25.3767 10.6822 25.8712 10.8404C25.6819 10.5466 25.4629 10.3996 24.8116 10.1128V10.1171ZM4.4588 16.2119L4.37968 16.0833C4.04767 15.5253 3.61253 15.0365 3.09686 14.6437C2.64476 15.189 2.43708 15.8969 2.52185 16.6004C2.6052 17.4679 2.99655 18.252 3.57297 18.9146C4.01518 19.4204 4.55204 19.7496 5.25844 19.6987C5.99734 19.7368 6.68113 19.5009 7.3621 19.2749C7.53729 19.2282 7.71248 19.1816 7.88766 19.1322C11.3462 18.1517 14.8514 17.523 18.4653 17.6925C18.9456 17.7151 19.426 17.7038 19.9049 17.7081C21.4265 17.7702 22.9481 17.831 24.4697 17.8917C24.5177 17.8875 24.5672 17.8776 24.6138 17.8606H24.9712C25.5477 17.8239 26.1241 17.7971 26.6977 17.7504C27.2953 17.6982 27.7545 17.3817 28.1373 16.9395C28.67 16.3009 29.0896 15.5761 29.3792 14.7977C29.4329 14.6112 29.471 14.4219 29.495 14.2297C29.156 14.3767 28.913 14.4445 28.7137 14.5773C28.3676 14.8033 28.0398 15.0576 27.7333 15.336C27.1851 15.8418 27.0085 15.8149 26.716 15.1142C26.5945 14.8231 26.4942 14.5208 26.3657 14.2354C26.2399 13.9472 26.0888 13.6703 25.9122 13.4103C25.5674 12.9342 25.1789 12.8706 24.7169 13.2323C24.2154 13.6222 23.7732 14.0899 23.6008 14.7539C23.3988 15.4928 23.0541 16.1865 22.5878 16.794C22.3279 17.1429 22.1725 17.1839 21.7811 16.9847C21.5396 16.8759 21.3149 16.7332 21.1115 16.5609C20.4347 15.9251 19.7834 15.2682 19.1194 14.6197C18.8708 14.3753 18.6433 14.1026 18.3664 13.8992C17.9934 13.6251 17.7617 13.6675 17.4551 14.0094C17.2249 14.2707 17.0285 14.5632 16.7996 14.8231C16.356 15.3303 16.0141 15.3769 15.4532 15.0011C15.1664 14.8076 14.8994 14.5716 14.6267 14.3626C14.4812 14.2509 14.3244 14.1633 14.1732 14.0659L13.9175 13.9274C13.4555 13.6307 13.2464 13.6406 12.8819 14.0122C12.4171 14.4855 11.9678 14.9743 11.5002 15.4433C11.0636 15.8785 10.8602 15.8856 10.3798 15.5408C10.2329 15.4292 10.0959 15.312 9.95035 15.2018C9.25384 14.6705 8.94444 14.7158 8.43866 15.4236C8.36095 15.5338 8.28466 15.644 8.21826 15.7556C7.79442 16.4281 7.37623 17.1048 6.95098 17.7787C6.70232 18.1743 6.4678 18.2605 6.09199 17.9934C5.76281 17.7448 5.4633 17.4608 5.19628 17.1472C4.93067 16.8561 4.70463 16.5298 4.46021 16.2204L4.4588 16.2119ZM26.1156 11.0566C26.3191 11.2784 26.507 11.4804 26.6906 11.6867C26.9661 11.9947 27.219 12.3239 27.5171 12.6079C27.8138 12.8932 28.0243 12.8961 28.4029 12.6418C27.4747 11.7446 26.5409 11.0919 26.1156 11.0566Z" fill="#4D4040"/>
<path d="M10.5282 25.9758C10.6327 25.7638 10.6667 25.6324 10.75 25.5406C11.746 24.4047 12.7788 23.3126 14.0334 22.448C14.6479 22.0242 15.2512 21.8221 16.0268 21.9719C17.1938 22.2092 18.3367 22.5525 19.4416 22.999C19.9586 23.201 20.3203 23.5952 20.6523 24.0063C20.9109 24.351 21.151 24.7099 21.3714 25.08C21.5113 25.3018 21.5057 25.3018 21.4025 25.6946C20.9476 25.5759 20.4828 25.4742 20.0335 25.3315C18.276 24.7678 16.4252 24.5573 14.5858 24.7113C13.8808 24.7678 13.1956 25.1139 12.5104 25.3513C12.0413 25.5124 11.5892 25.7257 11.1216 25.8938C10.9676 25.9503 10.7896 25.9376 10.5282 25.9758Z" fill="black" fill-opacity="0.3"/>
<path d="M19.9106 17.6996C19.4316 17.6996 18.9499 17.7067 18.4709 17.6841C14.857 17.5188 11.3518 18.1475 7.8933 19.1237C7.71811 19.1731 7.54292 19.2184 7.36774 19.2664C7.39458 19.0531 7.42425 18.8397 7.44827 18.6264C7.58955 17.3605 8.13771 16.2868 8.99104 15.36C9.18318 15.1523 9.36967 15.1495 9.52367 15.3925C9.75396 15.7542 9.92914 16.1483 10.1368 16.5256C10.3431 16.9028 10.5366 17.2489 10.7542 17.5993C10.8136 17.6954 10.9421 17.749 11.1145 17.879C11.3419 17.3591 11.5369 16.907 11.7404 16.4577C12.0794 15.7033 12.4171 14.9475 12.9681 14.3117C13.2252 14.0136 13.5219 13.8356 13.9217 13.9232L14.1732 14.0616C14.2721 14.2637 14.3653 14.4714 14.4741 14.6677C14.8386 15.319 15.2017 15.9703 15.5761 16.6132C15.6807 16.7912 15.7753 17.0116 16.1031 16.9791C16.1794 16.8505 16.2769 16.7007 16.3574 16.5369C16.6131 16.0339 16.8448 15.5196 17.1175 15.0266C17.2672 14.7695 17.4467 14.5321 17.6543 14.3188C17.9171 14.0419 18.0443 14.0616 18.3014 14.3527C18.3749 14.4431 18.4441 14.5378 18.5077 14.6352C19.1576 15.562 19.6337 16.6004 19.9106 17.6996Z" fill="#E3DEDE"/>
<path d="M23.5146 10.3248L23.1826 10.0083C22.9439 10.2132 22.9453 10.4873 22.9029 10.7345C22.7334 11.698 22.5822 12.663 22.4014 13.6237C22.3378 13.9317 22.2403 14.2326 22.1131 14.5208C21.9478 14.9121 21.7289 14.9814 21.3672 14.7567C21.1694 14.6366 20.99 14.4869 20.836 14.3145C20.2553 13.6505 19.6944 12.978 19.1194 12.314C18.834 11.9693 18.5303 11.6401 18.211 11.3265C17.8705 11.0072 17.5823 11.0199 17.2616 11.3618C17.0581 11.6005 16.8717 11.8548 16.7078 12.1219C16.5227 12.3974 16.3602 12.687 16.1751 12.9625C15.8544 13.44 15.6581 13.4669 15.2201 13.0727C14.9347 12.8212 14.6747 12.5401 14.3908 12.2843C14.1746 12.0809 13.9415 11.8958 13.6943 11.7319C13.2563 11.4564 13.0387 11.4805 12.6799 11.8421C12.1812 12.3507 11.698 12.8763 11.2148 13.4004C10.7316 13.926 10.49 13.9133 10.0563 13.3736C9.76386 13.0119 9.50249 12.6248 9.21145 12.266C8.81304 11.7771 8.47397 11.7884 8.17728 12.338C7.74214 13.1391 7.35362 13.9656 6.94249 14.7737C6.76872 15.1156 6.59918 15.4561 6.40704 15.7867C6.18523 16.1568 6.00581 16.1936 5.71618 15.8672C5.45764 15.5861 5.24572 15.2668 5.08607 14.9206C4.82612 14.3188 4.64387 13.6858 4.76961 13.0105C4.87133 13.3044 4.96033 13.6053 5.07901 13.8963C5.25561 14.3216 5.44775 14.7426 5.87583 14.9884C5.93517 14.9461 5.9945 14.9263 6.01146 14.8881C6.42541 13.9853 6.86055 13.0925 7.23918 12.1741C7.54576 11.4776 7.51468 10.6794 7.15441 10.0097C7.57967 9.71728 8.06284 9.64664 8.56156 9.64099C8.51918 10.8913 9.13092 11.8266 10.0167 12.6178C10.4137 12.9724 10.6426 12.9568 11.0679 12.6262C11.1611 12.557 11.2459 12.4765 11.3208 12.3875C11.722 11.8817 12.1148 11.3688 12.516 10.8631C12.6417 10.7034 12.7844 10.5593 12.9243 10.4025C13.5728 10.928 14.1619 11.4098 14.7567 11.8845C15.2243 12.2589 15.6213 12.2278 16.0084 11.7687C16.2966 11.4268 16.5736 11.075 16.8307 10.7105C17.1938 10.1976 17.2489 9.67348 16.8208 9.16064C16.7798 9.09141 16.7473 9.01653 16.7275 8.93883L18.9414 8.38501C18.9259 8.46413 18.8948 8.53901 18.8524 8.60682C18.2548 9.24258 18.3085 9.93485 18.7168 10.6186C19.1053 11.2728 19.5305 11.9043 19.9897 12.509C20.2525 12.8311 20.5633 13.108 20.9137 13.3284C21.2697 13.5686 21.5367 13.4231 21.6229 12.9964C21.6695 12.7873 21.6992 12.574 21.7133 12.3592C21.7811 11.1004 21.6836 9.84019 21.4251 8.60682L23.6065 9.51242L23.5146 10.3248Z" fill="#AEA2B5"/>
<path d="M19.9106 17.6996C19.6323 16.6047 19.1562 15.5691 18.5077 14.6437C18.4441 14.5462 18.3749 14.4516 18.3014 14.3626C18.0443 14.0701 17.9171 14.0503 17.6544 14.3272C17.4467 14.5406 17.2673 14.7779 17.1175 15.0351C16.8448 15.5281 16.6131 16.0424 16.3574 16.5453C16.2769 16.705 16.1794 16.8547 16.1031 16.989C15.7697 17.02 15.6807 16.8011 15.5761 16.6216C15.2017 15.9788 14.8386 15.3275 14.4741 14.6762C14.3639 14.4798 14.2721 14.2721 14.1732 14.0715C14.3244 14.169 14.4812 14.2594 14.6267 14.3668C14.905 14.5759 15.1664 14.809 15.4532 15.0054C16.0141 15.3826 16.3518 15.3374 16.7996 14.8274C17.0285 14.566 17.2249 14.2736 17.4552 14.015C17.7617 13.6717 17.9934 13.6307 18.3664 13.9034C18.6433 14.1069 18.8708 14.3795 19.1194 14.6239C19.7834 15.2724 20.4347 15.9294 21.1115 16.5651C21.3149 16.7375 21.5396 16.8802 21.7811 16.9904C22.1725 17.1882 22.3279 17.1486 22.5879 16.7982C23.0555 16.1893 23.3988 15.4942 23.6008 14.7539C23.7732 14.0899 24.2098 13.6208 24.7212 13.2196C25.1832 12.8579 25.5717 12.9201 25.9164 13.3962C26.093 13.6576 26.2456 13.9331 26.3699 14.2227C26.5027 14.5067 26.5988 14.809 26.7203 15.1001C27.0127 15.8008 27.1893 15.8276 27.7375 15.3219C28.0441 15.0435 28.3719 14.7906 28.718 14.5632C28.9172 14.4304 29.1602 14.3626 29.4993 14.2156C29.4753 14.4078 29.4371 14.5985 29.3834 14.7836C29.0938 15.5634 28.6742 16.2882 28.1416 16.9268C27.7601 17.369 27.301 17.6855 26.7019 17.7377C26.1283 17.7886 25.5519 17.814 24.9769 17.8479C25.0377 17.6954 25.0871 17.5371 25.1634 17.3916C25.5081 16.7431 25.6579 16.0099 25.5943 15.2781C25.5406 14.6663 25.3866 14.0871 24.984 13.6011C23.4864 14.5448 23.4567 16.729 24.618 17.8479C24.5714 17.8635 24.522 17.8734 24.4739 17.8776C22.9524 17.8211 21.4322 17.7618 19.9106 17.6996Z" fill="#ADA1B5"/>
<path d="M16.7233 8.93884C16.7445 9.01655 16.7756 9.09143 16.818 9.16065C17.2446 9.67774 17.1909 10.2019 16.8278 10.7105C16.5693 11.075 16.2924 11.4268 16.0056 11.7687C15.6185 12.2278 15.2215 12.2589 14.7524 11.8845C14.1576 11.4098 13.5685 10.9281 12.9214 10.4025C12.7816 10.5593 12.6389 10.7034 12.5132 10.8631C12.1119 11.3689 11.7192 11.8817 11.3165 12.3875C11.243 12.4765 11.1583 12.557 11.065 12.6263C10.6398 12.9583 10.4109 12.9724 10.0139 12.6178C9.12808 11.8266 8.51493 10.8913 8.55872 9.641C9.02212 9.63253 9.48552 9.58873 9.94468 9.61981C12.078 9.76392 14.1619 9.43897 16.2359 8.98688C16.3969 8.96286 16.5608 8.94591 16.7233 8.93884Z" fill="#E4DFDE"/>
<path d="M21.4237 8.61812C21.6823 9.85008 21.7783 11.1117 21.7105 12.3705C21.6964 12.5853 21.6667 12.7972 21.6215 13.0077C21.5353 13.4301 21.2683 13.5742 20.9109 13.3397C20.5619 13.1179 20.2497 12.8424 19.9883 12.5203C19.5277 11.9142 19.1025 11.2841 18.714 10.6299C18.3057 9.94615 18.2534 9.25247 18.851 8.61812C18.8934 8.54889 18.9231 8.47401 18.94 8.39631C19.7722 8.23384 20.6326 8.31013 21.4237 8.61812Z" fill="#E4DFDF"/>
<path d="M13.9175 13.9274C13.512 13.8412 13.2224 14.0178 12.9638 14.3159C12.4114 14.9517 12.078 15.7075 11.7361 16.462C11.5341 16.9056 11.3391 17.3633 11.1102 17.8832C10.9393 17.7533 10.8107 17.6996 10.7514 17.6035C10.5296 17.2531 10.3318 16.8915 10.1326 16.5298C9.93337 16.1695 9.74971 15.7556 9.51942 15.3967C9.36543 15.1537 9.18035 15.1565 8.98821 15.3642C8.13488 16.291 7.58671 17.3647 7.44402 18.6306C7.42 18.8439 7.39175 19.0573 7.3649 19.2706C6.67828 19.4924 5.99449 19.7326 5.26124 19.6944C5.29233 19.3201 5.39264 18.9315 5.33471 18.5713C5.27113 18.1729 5.06204 17.7956 4.91511 17.4099C4.76959 17.0257 4.61277 16.6117 4.46301 16.2133C4.70601 16.5241 4.93348 16.8491 5.19767 17.1401C5.46469 17.4537 5.76561 17.7377 6.09338 17.9878C6.4706 18.2534 6.70371 18.1672 6.95237 17.7716C7.37762 17.0977 7.79722 16.421 8.21965 15.7485C8.29029 15.6383 8.36658 15.5267 8.44146 15.4165C8.94583 14.7115 9.25664 14.6663 9.95315 15.1947C10.0973 15.3049 10.2357 15.4264 10.3826 15.5338C10.863 15.8827 11.065 15.8728 11.5016 15.4363C11.9706 14.9672 12.4185 14.4784 12.8833 14.0051C13.2535 13.6463 13.4583 13.6307 13.9175 13.9274Z" fill="#AEA2B5"/>
<path d="M4.46019 16.2133C4.60854 16.6117 4.75971 17.0115 4.9137 17.4099C5.05922 17.7956 5.26832 18.1729 5.33331 18.5713C5.39123 18.9315 5.28951 19.32 5.25843 19.6944C4.55203 19.7453 4.00951 19.4161 3.57296 18.9103C2.99653 18.2463 2.60519 17.4636 2.52183 16.5962C2.43848 15.894 2.64616 15.189 3.09684 14.6437C3.61251 15.0364 4.04766 15.5253 4.37966 16.0833L4.45878 16.2076L4.46019 16.2133Z" fill="#E3DEDD"/>
<path d="M7.15159 10.0154C7.51185 10.6865 7.54294 11.4847 7.23495 12.1812C6.85773 13.0981 6.42259 13.9924 6.00722 14.8952C5.99027 14.9333 5.93234 14.9517 5.87301 14.9941C5.44352 14.7497 5.25279 14.3301 5.07477 13.902C4.9561 13.6152 4.86851 13.3129 4.76678 13.0162C4.81765 12.7929 4.88546 12.574 4.97164 12.362C5.3644 11.5384 5.95071 10.8207 6.6783 10.2711C6.82947 10.175 6.98771 10.0888 7.15159 10.0154Z" fill="#E3DEDE"/>
<path d="M24.618 17.855C23.4581 16.7346 23.4878 14.5518 24.9854 13.6081C25.388 14.0941 25.5392 14.6733 25.5957 15.2851C25.6593 16.0155 25.5095 16.7502 25.1648 17.3986C25.0899 17.5427 25.0376 17.701 24.9769 17.855H24.618Z" fill="#E4DFDE"/>
<path d="M23.5146 10.3248L23.6051 9.51947L24.8116 10.11C24.5601 10.8277 24.368 10.9958 23.8142 11.0142C23.7124 10.7868 23.6135 10.5565 23.5146 10.3248Z" fill="#E2DDDC"/>
<path d="M26.1156 11.0566C26.5423 11.0919 27.4747 11.7446 28.4057 12.6417C28.0243 12.896 27.8279 12.9088 27.5199 12.6078C27.2119 12.3083 26.9661 11.9947 26.6934 11.6867C26.5069 11.4804 26.319 11.277 26.1156 11.0566Z" fill="#A99DB0"/>
<path d="M23.8113 11.0185C24.3722 11.0001 24.5601 10.8306 24.8074 10.1129C25.4601 10.3997 25.6777 10.5494 25.8641 10.8433C25.3697 10.685 25.3697 10.685 24.8935 11.0298C24.6124 11.2346 24.3313 11.4395 24.0501 11.6443C24.0035 11.6627 23.9569 11.6768 23.9074 11.6867C23.8834 11.4593 23.8452 11.2389 23.8113 11.0185Z" fill="#AB9FB2"/>
<path d="M4.48563 16.2246L4.38391 16.0833L4.48563 16.2246Z" fill="#AEA2B5"/>
</svg>
