<svg width="50" height="50" viewBox="0 0 50 50" fill="none" xmlns="http://www.w3.org/2000/svg">
<path d="M33.0796 6.48126H35.4601C35.5208 6.52433 35.5876 6.55808 35.6583 6.5814C38.4111 7.01164 40.599 8.37941 42.2187 10.6198C44.7942 14.1839 45.6938 18.1783 45.086 22.517C44.4374 27.1441 42.4885 31.1352 39.14 34.4077C36.2771 37.2038 32.834 39.1063 29.1916 40.6732C28.5023 40.9703 27.7601 41.1354 27.0356 41.3621C27.737 40.693 28.4417 40.0295 29.1354 39.3539C29.3787 39.1162 29.5924 38.8477 29.8192 38.5924C30.0614 38.4901 30.3026 38.3823 30.547 38.2843C34.6541 36.647 38.0841 34.1458 40.567 30.443C42.4675 27.6129 43.7701 24.5879 43.8175 21.0965C43.8648 17.5752 42.9928 14.3633 40.991 11.4341C37.9927 7.04576 32.5763 7.33515 29.8181 9.25861C27.16 11.1116 25.2485 15.3811 27.77 18.9804C28.63 20.2073 29.7851 20.8654 31.2936 20.8368C32.5411 20.8137 33.1434 20.1281 33.0939 18.8858C33.0718 18.3103 33.0509 17.7326 33.0796 17.1593C33.1038 16.6806 33.3273 16.2977 33.8426 16.1877C34.3579 16.0776 34.707 16.3538 34.9437 16.7654C36.2309 19.0255 35.5031 21.0722 33.3559 21.9602C31.823 22.5913 30.165 22.8602 28.5111 22.7459C25.657 22.5677 23.446 21.4255 22.2568 18.6635C21.9474 17.9439 21.5114 17.2682 21.0676 16.6168C20.5655 15.8807 19.7893 15.6408 18.9337 15.7365C18.4576 15.785 17.9916 15.9056 17.5518 16.0941C15.4707 17.0449 13.9887 18.6316 12.9481 20.6299C12.6618 21.1801 12.6178 21.8106 12.7587 22.4543C12.9102 22.3589 13.0415 22.2348 13.1452 22.089C14.1593 20.7334 15.4987 19.6548 17.0398 18.9529C18.61 18.2377 19.2024 18.384 20.3189 19.6748C20.6966 20.1149 21.0897 20.5375 21.4398 20.9952C23.1939 23.2928 25.5866 24.3921 28.3922 24.7277C28.8205 25.9381 29.9051 26.4399 30.9247 27.0176C30.8818 27.0539 30.863 27.0803 30.8377 27.0891C30.7133 27.1309 30.5867 27.1661 30.4622 27.2079C28.8597 27.7319 27.4125 28.6454 26.2505 29.8664C26.0677 30.0601 26.0116 30.3726 25.896 30.6312C25.6165 30.6472 25.3364 30.6472 25.0569 30.6312C22.9175 30.4023 20.8111 30.0073 18.8192 29.1721C17.3338 28.5482 15.8826 27.8407 14.4148 27.1738C13.9655 26.9703 13.5196 26.7524 13.0549 26.5928C12.3271 26.343 11.6323 26.5257 11.1555 27.0825C10.6501 27.6723 10.1645 28.3336 9.88045 29.0456C9.44772 30.1063 9.05683 31.2463 9.429 32.4072C9.69326 33.2303 10.1392 33.9929 10.4949 34.7873C10.7272 35.3078 11.0311 35.8195 11.1423 36.3664C11.2755 37.02 11.237 37.7088 11.2733 38.3823C10.9298 38.0753 10.5708 37.7836 10.246 37.459C8.00858 35.2319 5.67204 33.0762 4.6304 29.9545V28.0728C4.67775 27.976 4.7328 27.8825 4.77024 27.7823C5.08956 26.9372 5.33401 26.0536 5.73701 25.2515C7.88367 20.9594 10.867 17.1393 14.5117 14.0155C15.4617 13.2017 16.5025 12.5002 17.6135 11.9248C19.4622 10.9642 21.3859 10.9686 23.2753 11.916C23.9922 12.2758 24.7068 12.6324 25.4247 12.9889C25.4577 12.9526 25.4908 12.9317 25.4996 12.9042C26.5533 9.59312 28.8811 7.65646 32.1535 6.74205C32.4607 6.64852 32.7701 6.56599 33.0796 6.48126Z" fill="#6CC001"/>
<path d="M28.3926 24.7288C25.5869 24.3932 23.1943 23.2983 21.4402 20.9963C21.09 20.5375 20.697 20.116 20.3193 19.6759C19.2028 18.3851 18.6104 18.2388 17.0402 18.954C15.4991 19.656 14.1597 20.7345 13.1456 22.0901C13.0418 22.2359 12.9105 22.36 12.7591 22.4554C12.6193 21.8117 12.6622 21.1812 12.9485 20.631C13.989 18.6316 15.4711 17.0449 17.55 16.0986C17.9898 15.91 18.4558 15.7894 18.9319 15.7409C19.7874 15.6408 20.5637 15.8807 21.0658 16.6212C21.5063 17.2727 21.9467 17.9483 22.255 18.6679C23.442 21.4299 25.6552 22.5721 28.5093 22.7503C30.1632 22.8646 31.8212 22.5957 33.3541 21.9647C35.5035 21.0723 36.2313 19.0256 34.9386 16.7654C34.7019 16.3538 34.3572 16.0765 33.8375 16.1877C33.3178 16.2988 33.0987 16.6807 33.0744 17.1593C33.0458 17.7326 33.0667 18.3103 33.0887 18.8858C33.1383 20.1281 32.5382 20.8137 31.2884 20.8368C29.7854 20.8654 28.6304 20.2074 27.7649 18.9804C25.2434 15.3811 27.1549 11.1117 29.813 9.25862C32.5767 7.33516 37.9931 7.04576 40.9913 11.433C42.9932 14.3622 43.8652 17.5709 43.8179 21.0954C43.7705 24.5869 42.4679 27.6118 40.5674 30.442C38.0811 34.1447 34.6512 36.6459 30.5474 38.2832C30.303 38.3812 30.0618 38.489 29.8196 38.5913C29.7238 38.6155 29.6247 38.6309 29.5322 38.6629C26.0681 39.8656 22.5083 40.3783 18.8625 39.9393C17.3496 39.7566 15.8642 39.3286 14.3766 38.971C13.7931 38.8312 13.3196 38.4648 13.1203 37.8706C12.5426 36.154 11.9799 34.4301 11.4323 32.6988C11.3222 32.3544 11.3002 31.9836 11.2374 31.6238L11.3927 31.5632C11.5897 31.8746 11.789 32.1849 11.9828 32.4986C12.5973 33.4889 13.1621 34.5232 13.8349 35.4762C14.5026 36.4657 15.5592 37.1256 16.7418 37.2918C17.7856 37.4447 18.8262 37.6296 19.8755 37.7187C22.5864 37.9465 25.2412 37.5999 27.842 36.8186C30.4616 36.1132 32.913 34.8896 35.0509 33.2204C38.9125 30.2065 41.4692 26.3981 41.9449 21.4068C42.1155 19.6283 41.8674 17.8345 41.2204 16.169C40.7196 14.4696 39.7756 12.9338 38.4852 11.7191C37.0846 10.3986 35.4286 9.84072 33.4995 10.0399C30.1488 10.3854 27.8068 13.9913 28.888 17.1758C29.0862 17.7579 29.4023 18.2421 30.0013 18.4842C30.3602 18.5711 30.7181 18.7241 31.0781 18.7307C31.5979 18.7406 31.7784 18.4479 31.6287 17.9483C31.5329 17.6369 31.3964 17.3365 31.2719 17.0328C30.9119 16.1525 31.0781 15.6287 31.8753 15.1049C32.5698 14.6619 33.359 14.3886 34.1788 14.3071C34.9441 14.3721 35.6312 14.6086 36.1476 15.2128C38.3773 17.825 37.8576 22.3652 34.2152 23.8221C32.3661 24.5539 30.3768 24.8637 28.3926 24.7288Z" fill="#4D4040"/>
<path d="M27.8398 36.8142C25.239 37.5955 22.5842 37.9421 19.8733 37.7143C18.824 37.6252 17.7812 37.4403 16.7396 37.2874C15.5586 37.1243 14.502 36.469 13.8316 35.4838C13.1588 34.5309 12.5939 33.5032 11.9795 32.5062C11.7857 32.1926 11.5864 31.8823 11.3893 31.5709L11.2341 31.6314C11.2969 31.9912 11.32 32.3621 11.429 32.7065C11.9773 34.4341 12.54 36.158 13.117 37.8783C13.3163 38.4703 13.7897 38.8367 14.3733 38.9786C15.8609 39.3363 17.3463 39.7643 18.8592 39.947C22.505 40.3871 26.0648 39.8732 29.5289 38.6705C29.6214 38.6386 29.7205 38.6232 29.8163 38.599C29.5894 38.8543 29.3758 39.1228 29.1325 39.3605C28.4388 40.0361 27.7341 40.6996 27.0327 41.3686C26.3841 41.9023 25.7653 42.4767 25.0826 42.9631C22.7593 44.6137 20.3138 44.8458 17.8154 43.4032C15.4358 42.0096 13.2385 40.3264 11.2737 38.3921C11.2374 37.7187 11.2737 37.0299 11.1427 36.3762C11.0326 35.8261 10.7276 35.3177 10.4952 34.7972C10.1352 33.9972 9.69475 33.2347 9.42938 32.4116C9.05721 31.2518 9.4481 30.1107 9.88083 29.0499C10.1704 28.338 10.6516 27.6767 11.1559 27.0869C11.6327 26.5301 12.3275 26.3474 13.0553 26.5972C13.52 26.7568 13.9659 26.9746 14.4152 27.1782C15.8829 27.845 17.3342 28.5526 18.8196 29.1765C20.8115 30.0117 22.9179 30.4067 25.0573 30.6356C25.3368 30.6515 25.6169 30.6515 25.8963 30.6356L25.9977 30.7951C26.7035 31.7723 27.7517 32.1959 28.8462 32.5304C29.378 32.6933 29.9242 32.8121 30.4791 32.9552C29.9341 33.4492 29.4122 33.8773 28.9376 34.3571C28.2769 35.0316 27.8739 35.8459 27.8398 36.8142Z" fill="#428B13"/>
<path d="M25.9977 30.7919L25.8964 30.6323C26.012 30.3737 26.0681 30.0612 26.2509 29.8676C27.4129 28.6465 28.8601 27.733 30.4626 27.209C30.5871 27.1672 30.7137 27.132 30.8381 27.0902C30.8634 27.0814 30.8821 27.055 30.9251 27.0187C29.9055 26.441 28.8209 25.9414 28.3926 24.7288C30.375 24.8628 32.3623 24.5531 34.2097 23.8221C37.8521 22.3652 38.3718 17.825 36.1421 15.2128C35.6257 14.6086 34.9386 14.3721 34.1733 14.3071C33.1776 14.0118 32.1182 14.0072 31.12 14.2939C30.8701 14.3731 30.6418 14.5087 30.4527 14.6901C29.7788 15.3173 29.6731 16.0986 29.9132 16.9513C30.0552 17.4553 30.2578 17.9538 30.0013 18.4809C29.4023 18.2388 29.0863 17.7546 28.8881 17.1725C27.8068 13.988 30.1488 10.3821 33.4995 10.0366C35.4286 9.83742 37.0847 10.3997 38.4853 11.7158C39.7763 12.9317 40.7203 14.4691 41.2204 16.1701C41.1874 16.7621 41.1752 17.3552 41.118 17.9439C40.7623 21.5685 39.1448 24.4999 36.2313 26.6908C33.5942 28.6714 30.5584 29.7388 27.3773 30.453C26.916 30.5597 26.4579 30.6796 25.9977 30.7919Z" fill="#FCE3C2"/>
<path d="M25.9977 30.7919C26.4579 30.6819 26.916 30.5597 27.3774 30.4563C30.5584 29.7421 33.5942 28.677 36.2313 26.6941C39.1448 24.5032 40.7623 21.5718 41.118 17.9472C41.1753 17.3585 41.1874 16.7654 41.2204 16.1734C41.8674 17.839 42.1155 19.6327 41.9449 21.4112C41.4693 26.4014 38.9125 30.2142 35.0509 33.2248C32.9116 34.8911 30.4595 36.1117 27.8398 36.8143C27.874 35.8459 28.2803 35.0316 28.9409 34.3538C29.4111 33.874 29.9319 33.446 30.4825 32.9519C29.9319 32.8089 29.3814 32.69 28.8495 32.5272C27.7528 32.1927 26.7035 31.769 25.9977 30.7919Z" fill="#D8A87D"/>
<path d="M30.0013 18.4841C30.2578 17.9571 30.0552 17.4586 29.9132 16.9546C29.6731 16.1018 29.7788 15.3206 30.4527 14.6933C30.6418 14.5119 30.8701 14.3764 31.12 14.2972C32.1179 14.0094 33.1773 14.0129 34.1733 14.3071C33.3534 14.3885 32.5643 14.6618 31.8698 15.1049C31.0726 15.6287 30.9064 16.1513 31.2664 17.0327C31.3908 17.3364 31.5274 17.6368 31.6232 17.9483C31.7784 18.4478 31.5979 18.7405 31.0726 18.7306C30.7181 18.724 30.3602 18.5711 30.0013 18.4841Z" fill="#D7A77C"/>
</svg>
