<svg width="50" height="50" viewBox="0 0 50 50" fill="none" xmlns="http://www.w3.org/2000/svg">
<path d="M5.55627 21.5192V15.8995C5.58985 15.842 5.64742 15.7868 5.65341 15.7268C5.73376 14.9042 5.79612 14.0839 5.88367 13.2576C6.06116 11.665 6.34538 10.0964 6.96298 8.60454C7.74129 6.72293 9.10003 5.52729 11.0968 5.09796C11.5357 5.01304 11.9821 4.97286 12.4291 4.97803C12.8391 4.97186 13.2128 5.21189 13.3777 5.58725C13.6176 6.08613 13.8802 6.58142 14.0853 7.09709C14.6849 8.59015 14.9547 10.1672 15.2845 11.7322C15.5452 12.9794 15.8306 14.2206 16.1408 15.4558C16.3554 16.2953 16.9287 16.7462 17.8113 16.8145C18.0602 16.8521 18.3123 16.7709 18.4925 16.5951C19.8296 15.3239 21.2855 14.2242 23.0196 13.543C23.0628 13.3691 23.1132 13.2144 23.1396 13.0561C23.5415 10.6466 24.1321 8.27239 24.906 5.95542C25.5656 3.96707 26.8428 2.58675 28.9259 2.04829C28.9523 2.04109 28.9679 1.99672 28.9894 1.97034H30.6084C30.9274 2.06867 31.2428 2.17661 31.5678 2.26415C32.8966 2.62392 33.5753 3.55693 33.7265 4.85811C33.8168 5.71414 33.834 6.57632 33.778 7.43528C33.7073 8.70768 33.5382 9.97407 33.4482 11.2465C33.4267 11.7113 33.4532 12.177 33.5274 12.6364C33.5933 13.1161 33.9171 13.4015 34.374 13.507C34.687 13.579 35.0204 13.5646 35.3334 13.639C35.728 13.7337 36.1729 13.7937 36.4871 14.0179C37.6288 14.8274 38.3267 15.8803 38.0281 17.3758C38.0137 17.4465 38.0065 17.5185 37.9982 17.5893C37.9082 18.2824 37.8183 18.9744 37.7259 19.6927L38.2752 20.1221C39.9613 21.4412 41.5791 22.8371 43.029 24.4177C43.9884 25.4623 44.9609 26.5032 45.2476 27.9699C45.2476 27.9807 45.2775 27.9879 45.2931 27.9963V29.8311C45.2548 29.8851 45.1936 29.9342 45.1804 29.9942C44.8374 31.528 44.1011 32.8784 43.2268 34.1604C39.7946 39.2068 35.5517 43.5073 30.9298 47.4504C29.9548 48.2842 28.787 48.8613 27.5324 49.1293C27.4031 49.1661 27.2768 49.2126 27.1546 49.2684H25.1039C25.0679 49.2324 25.0368 49.1749 24.9948 49.1653C23.449 48.8343 22.1454 48.0128 20.867 47.1374C18.0979 45.2426 15.6203 43.0048 13.2362 40.6615C11.8091 39.241 10.5216 37.6869 9.39145 36.0204C8.88657 35.2877 8.48602 34.4998 8.37809 33.6111C8.28695 32.858 8.05909 32.1564 7.83483 31.4381C6.91262 28.494 6.00599 25.5414 5.74096 22.4438C5.69675 22.1324 5.63509 21.8237 5.55627 21.5192ZM28.0121 33.3917C27.9473 33.4228 27.8837 33.4564 27.819 33.4864C27.0047 33.8582 26.8812 33.827 26.3475 33.1038C25.911 32.5138 25.4637 31.931 25.0547 31.323C24.8545 31.0268 24.6386 30.9632 24.3268 31.0831C24.0414 31.1851 23.75 31.269 23.4609 31.3613C22.9117 30.8433 22.366 30.3228 21.8132 29.8083C21.2603 29.2939 20.8454 28.675 20.7687 27.9135C20.6995 27.199 20.6795 26.4806 20.7087 25.7633C20.771 24.0388 20.8814 22.3155 20.9485 20.591C20.9677 20.1005 20.915 19.586 20.4556 19.2862C20.0429 19.0002 19.5977 18.7643 19.1293 18.5834C17.99 18.1805 17.2885 18.4551 16.678 19.4984C16.425 19.9326 16.2259 20.3979 15.9957 20.8452C15.9302 20.9614 15.859 21.0743 15.7822 21.1834L15.6719 21.1738C15.1778 19.1147 14.6441 17.064 14.2016 14.9929C13.7219 12.7443 13.3382 10.4766 12.8824 8.22078C12.7964 7.81756 12.6505 7.4295 12.4495 7.06951C12.1905 6.58981 11.7779 6.4579 11.2503 6.60061C10.6269 6.78575 10.0573 7.11809 9.58932 7.5696C8.71867 8.36829 8.22459 9.40683 7.93557 10.5317C7.06492 13.9496 6.9402 17.4226 7.22442 20.9231C7.39831 23.0578 7.74849 25.1661 8.14783 27.2683C8.45838 28.8735 8.93795 30.4412 9.57853 31.9454C9.90822 32.7783 10.5953 33.4187 11.4493 33.6891C12.0286 33.8834 12.6102 34.0704 13.1966 34.2407C14.0351 34.4744 14.7839 34.9549 15.3457 35.6199C16.1851 36.6068 16.9719 37.6322 17.7801 38.6419C17.4839 39.112 17.5919 39.5366 17.8605 39.9911C18.1711 40.5152 18.3798 41.1016 18.7 41.6185C19.0386 42.1672 19.42 42.6885 19.8404 43.1775C20.247 43.65 20.506 43.644 21.0697 43.343C22.2881 42.6894 23.5149 42.0526 24.7321 41.399C25.7443 40.8545 26.7709 40.8426 27.8502 41.1867C29.2329 41.6269 30.642 41.9782 32.0343 42.386C32.3107 42.4764 32.6142 42.4144 32.833 42.2229C34.8147 40.7336 36.6086 39.0097 38.1756 37.0889C38.7609 36.361 39.1254 35.5551 39.1626 34.5861C39.1842 34.0488 39.1758 33.5224 39.1554 32.9863C39.1074 31.7607 38.8556 30.5734 38.6206 29.379C38.5739 29.0075 38.274 28.7192 37.901 28.687C37.4969 28.608 37.0779 28.6861 36.7294 28.9053C36.6502 28.7854 36.5627 28.6655 36.4955 28.5455C36.0158 27.6557 35.8539 26.6867 35.7879 25.6913C35.6908 24.2199 35.9894 22.794 36.276 21.3657C36.5759 19.8678 36.8901 18.3748 36.9176 16.8361C36.9284 16.2365 36.7318 15.7748 36.2557 15.445C35.2039 14.7171 33.832 14.4269 32.8474 15.9247C32.7047 16.1418 32.5512 16.3528 32.3797 16.6023C32.3617 16.5479 32.3481 16.4921 32.3389 16.4356C32.3573 13.216 32.3745 9.99646 32.3905 6.7769C32.4078 6.16647 32.3854 5.55557 32.3233 4.94805C32.171 3.75841 31.3639 3.03766 30.1767 3.15639C28.5433 3.31948 27.157 3.96228 26.4591 5.59085C26.312 5.91861 26.1862 6.25549 26.0825 6.59941C25.6755 8.01451 25.2758 9.43242 24.8832 10.8531C24.2177 13.2684 23.8939 15.7436 23.5641 18.2189C23.1875 21.0083 23.1084 23.8085 23.1599 26.6135C23.1791 27.6929 23.5113 28.6726 24.2668 29.4617C24.912 30.1345 25.586 30.7809 26.2804 31.4093C26.928 32.0113 27.5636 32.6134 28.0121 33.3917Z" fill="#9B47CC"/>
<path d="M17.7801 38.6456C16.9718 37.6358 16.1815 36.6069 15.3457 35.6235C14.7839 34.9586 14.0351 34.4781 13.1966 34.2444C12.6102 34.0741 12.0286 33.8846 11.4493 33.6927C10.596 33.4231 9.90909 32.7842 9.57852 31.9526C8.93793 30.4485 8.45836 28.8807 8.14782 27.2756C7.74847 25.1733 7.39829 23.0651 7.2244 20.9304C6.94018 17.4298 7.06491 13.9568 7.93556 10.539C8.22457 9.40809 8.71866 8.38034 9.6013 7.56966C10.0692 7.11815 10.6389 6.78581 11.2623 6.60067C11.7863 6.45796 12.1989 6.60067 12.4615 7.06957C12.6625 7.42956 12.8084 7.81762 12.8944 8.22084C13.3453 10.4766 13.7339 12.7444 14.2136 14.993C14.6561 17.064 15.1898 19.1148 15.6839 21.1739L15.7942 21.1834C15.8709 21.0743 15.9422 20.9615 16.0076 20.8453C16.2379 20.3979 16.437 19.9326 16.69 19.4985C17.3004 18.4552 18.002 18.1793 19.1413 18.5835C19.6097 18.7644 20.0549 19.0003 20.4676 19.2862C20.9269 19.5861 20.9797 20.1005 20.9605 20.591C20.8898 22.3155 20.7794 24.0388 20.7207 25.7633C20.6915 26.4806 20.7115 27.1991 20.7806 27.9136C20.8574 28.6751 21.2687 29.2903 21.8252 29.8084C22.3816 30.3265 22.9237 30.8433 23.4729 31.3614C23.8183 31.8627 24.2081 32.346 24.3016 32.972C24.4759 34.003 24.3779 35.0617 24.0174 36.0432C23.9742 36.1632 23.8375 36.2375 23.744 36.3335C23.6 35.8718 23.4357 35.416 23.3158 34.9483C23.0028 33.7347 22.3145 32.7897 21.3467 32.0102C20.7912 31.5576 20.2589 31.0773 19.7517 30.5711C19.1521 29.9715 18.7395 29.2603 18.6796 28.3993C18.6412 27.8476 18.6796 27.2888 18.688 26.7335C18.7203 25.3904 18.7611 24.0472 18.7983 22.7041C18.8151 22.2388 18.8534 21.7723 18.8427 21.3058C18.8343 20.9388 18.6028 20.8441 18.3042 21.0587C18.2298 21.1099 18.1652 21.1741 18.1135 21.2482C17.1685 22.7137 16.1564 24.1576 16.3998 26.0452C16.4076 26.1526 16.4076 26.2604 16.3998 26.3678C16.1324 26.5776 16.0496 26.3078 15.9597 26.1711C15.7426 25.8425 15.5795 25.4779 15.3601 25.1541C14.9266 24.4956 14.5917 23.7772 14.3659 23.0219C13.9498 21.7471 13.4988 20.4831 13.0635 19.2143C12.9436 18.7274 12.7985 18.2441 12.6953 17.7524C12.1429 15.1469 11.602 12.5425 11.0728 9.93936C11.0236 9.69951 11.026 9.43807 10.7034 9.26778C10.5712 9.40454 10.4538 9.55488 10.3532 9.7163C10.2407 9.96068 10.148 10.2137 10.0762 10.473C9.42381 12.6448 9.19716 14.8754 9.15398 17.1264C9.08588 20.3475 9.44887 23.5631 10.2333 26.688C10.4887 27.7121 10.8437 28.7111 11.1543 29.7208C11.4074 30.6862 11.9266 31.4478 12.8333 31.8975C13.1538 32.063 13.4876 32.2018 13.831 32.3124C15.4068 32.7921 16.6001 33.7923 17.5894 35.0635C18.008 35.6007 18.3965 36.1608 18.8007 36.71C19.5394 37.715 20.5216 38.1587 21.7532 37.9093C22.1274 37.8337 22.4668 37.5927 22.8325 37.4464C22.9728 37.39 23.1084 37.1573 23.2894 37.39C23.2151 38.1563 22.8265 38.7787 22.348 39.3448C21.2951 40.5872 20.253 40.7071 18.977 39.7237C18.5524 39.3975 18.1771 39.0066 17.7801 38.6456ZM28.0121 33.3917C27.5635 32.6182 26.9327 32.0162 26.2744 31.4226C25.5836 30.7894 24.906 30.143 24.2644 29.4702C23.5089 28.6811 23.1767 27.7061 23.1575 26.622C23.106 23.8146 23.1851 21.0144 23.5617 18.2273C23.8963 15.7521 24.2201 13.2768 24.8808 10.8616C25.2718 9.44167 25.6715 8.02377 26.0801 6.60786C26.1838 6.26395 26.3096 5.92706 26.4566 5.5993C27.1594 3.97073 28.5457 3.32794 30.1743 3.16484C31.3591 3.04492 32.1686 3.76446 32.3209 4.95651C32.3829 5.56402 32.4054 6.17493 32.3881 6.78535C32.3761 10.0041 32.3589 13.2237 32.3365 16.444C32.3457 16.5006 32.3593 16.5563 32.3773 16.6107C32.5488 16.3613 32.7023 16.1502 32.845 15.9332C33.8296 14.4305 35.2015 14.7207 36.2532 15.4535C36.7329 15.7833 36.926 16.2462 36.9152 16.8446C36.8876 18.3832 36.5734 19.8763 36.2736 21.3741C35.987 22.8024 35.6884 24.2283 35.7855 25.6998C35.8515 26.6952 36.0122 27.6641 36.4931 28.554C36.5602 28.6739 36.6478 28.7938 36.7269 28.9138C36.7587 29.0152 36.7988 29.1139 36.8469 29.2088C37.1915 29.7559 37.3901 30.3823 37.4237 31.028C37.4993 32.3592 36.944 33.4637 36.2448 34.525C36.1909 34.6078 36.0446 34.6305 35.9402 34.6821C35.9246 34.3415 35.9115 34.0009 35.8911 33.6616C35.7927 32.0186 35.5313 30.4176 34.7146 28.9533C34.5306 28.6028 34.3649 28.2429 34.2181 27.8752C33.8871 27.1077 33.6725 26.3066 33.754 25.4683C33.8847 24.1312 34.043 22.7952 34.2205 21.4641C34.3189 20.7193 34.4796 19.9842 34.6127 19.2443C34.6303 19.2324 34.6389 19.211 34.6343 19.1903L34.6894 19.0248C34.7758 18.5871 34.8801 18.153 34.9293 17.7116C34.9264 17.5606 34.8487 17.4208 34.7218 17.3387C34.6019 17.2871 34.41 17.3387 34.2781 17.4034C34.1775 17.4779 34.0978 17.577 34.0466 17.6913C33.6869 18.2909 33.3151 18.8809 32.9673 19.4901C32.823 19.7168 32.7252 19.97 32.6795 20.2348C32.5788 21.1595 32.5212 22.0889 32.4469 23.0159L32.3353 23.5651L32.2154 23.5927C32.0998 23.442 31.9974 23.2815 31.9096 23.113C31.7081 22.6333 31.4803 22.1596 31.3531 21.6607C31.1205 20.7433 30.9526 19.8091 30.7535 18.8821C30.6516 17.7548 30.5233 16.6299 30.4537 15.5014C30.2642 12.471 30.1647 9.43807 30.3638 6.40159C30.3886 6.20514 30.3943 6.00672 30.3806 5.80917C30.3338 5.4374 30.0783 5.27551 29.7258 5.39783C29.5771 5.45835 29.4406 5.5453 29.3228 5.65447C28.8192 6.09424 28.4459 6.66376 28.2435 7.30102C27.6811 8.97996 27.0443 10.6517 26.6365 12.3714C25.8162 15.7821 25.4037 19.2599 25.243 22.7652C25.1878 23.9645 25.1998 25.1721 25.4601 26.363L25.52 26.5009C25.5116 27.1367 25.7403 27.7528 26.1616 28.229C26.748 28.8813 27.3749 29.4962 28.0384 30.0698C28.7349 30.6573 29.3244 31.3608 29.7809 32.1493C30.2259 32.9288 30.6828 33.6999 31.1325 34.4746C31.4425 35.0598 32.0151 35.4601 32.6711 35.5504C33.5202 35.6631 34.3812 35.6787 35.2375 35.7362C35.2375 36.1644 34.9808 36.4498 34.6571 36.6465C34.136 36.9603 33.5988 37.2465 33.0477 37.5039C32.1446 37.9285 31.3507 37.7306 30.6348 37.0518C30.0036 36.4374 29.4586 35.7403 29.0146 34.9795C28.6908 34.4387 28.3418 33.9158 28.0121 33.3917Z" fill="#4F403F"/>
<path d="M35.9426 34.6737C36.047 34.6221 36.1933 34.5993 36.2473 34.5166C36.944 33.4552 37.5017 32.3507 37.4261 31.0196C37.3926 30.3738 37.1939 29.7474 36.8493 29.2003C36.8012 29.1055 36.7611 29.0068 36.7293 28.9053C37.0779 28.6861 37.4969 28.608 37.901 28.687C38.274 28.7192 38.5739 29.0075 38.6206 29.379C38.8604 30.5782 39.1074 31.7607 39.1554 32.9863C39.1758 33.5224 39.1842 34.0489 39.1626 34.5861C39.1254 35.5551 38.7609 36.361 38.1756 37.0889C36.6101 39.0094 34.8178 40.7333 32.8378 42.2229C32.6182 42.4157 32.3129 42.4777 32.0355 42.386C30.6432 41.977 29.2341 41.6257 27.8514 41.1867C26.7649 40.8426 25.7431 40.8545 24.7333 41.399C23.5161 42.0526 22.2893 42.6894 21.0709 43.343C20.5072 43.644 20.2482 43.65 19.8416 43.1775C19.4212 42.6885 19.0398 42.1673 18.7012 41.6185C18.3822 41.1016 18.1735 40.5152 17.8617 39.9911C17.5931 39.5366 17.4851 39.1121 17.7813 38.6419C18.1783 39.0017 18.5536 39.3939 18.9806 39.7213C20.253 40.707 21.2951 40.5871 22.3456 39.3483C22.8253 38.7823 23.2127 38.1599 23.2871 37.3935L23.7368 36.3262C23.8303 36.2303 23.967 36.1511 24.0102 36.036C24.3707 35.0545 24.4687 33.9958 24.2944 32.9647C24.2009 32.3387 23.8147 31.8554 23.4657 31.3542C23.7548 31.2618 24.0462 31.1779 24.3316 31.0759C24.6434 30.9632 24.8593 31.022 25.0595 31.3158C25.4685 31.9238 25.9158 32.5066 26.3523 33.0967C26.886 33.8162 27.0095 33.851 27.8238 33.4792C27.8885 33.4492 27.9521 33.4157 28.0169 33.3845C28.3514 33.9133 28.6956 34.4362 29.0194 34.9711C29.4634 35.7319 30.0084 36.429 30.6396 37.0434C31.3591 37.7221 32.1494 37.92 33.0525 37.4955C33.6036 37.238 34.1408 36.9518 34.6619 36.638C34.9857 36.4413 35.2447 36.1583 35.2423 35.7278L35.9426 34.6737Z" fill="#7736C1"/>
<path d="M23.732 36.3263L23.2823 37.3936C23.1012 37.1609 22.9657 37.3936 22.8254 37.4499C22.4656 37.5963 22.1226 37.8373 21.746 37.9129C20.5144 38.1623 19.5322 37.7186 18.7935 36.7136C18.3894 36.1644 18.0008 35.6043 17.5823 35.0671C16.5953 33.7959 15.4021 32.7981 13.8311 32.3124C13.4908 32.2002 13.1603 32.0602 12.8429 31.8939C11.9303 31.4441 11.411 30.6826 11.1639 29.7172C11.2623 29.794 11.3642 29.8647 11.4578 29.9475C12.0634 30.4764 12.6006 30.3336 12.8225 29.5469C12.973 28.9943 13.0225 28.4191 12.9688 27.8488C12.8729 26.688 12.8405 25.5223 12.8237 24.3578C12.8129 23.6239 12.8729 22.8888 12.9076 22.1548C12.9544 21.1714 13.0084 20.1881 13.0599 19.2035C13.4953 20.4723 13.9462 21.7363 14.3623 23.0111C14.5881 23.7664 14.923 24.4848 15.3565 25.1433C15.5795 25.4671 15.7426 25.8317 15.9561 26.1603C16.0461 26.297 16.1288 26.5668 16.3962 26.357C16.461 26.4193 16.5245 26.4769 16.5905 26.5428C17.0366 26.9554 17.3736 26.8834 17.6099 26.3102C17.7178 26.0452 17.7838 25.7633 17.8725 25.4911C18.1787 24.5573 18.4857 23.6235 18.7935 22.6897C18.7563 24.0328 18.7156 25.376 18.6832 26.7191C18.67 27.2744 18.6364 27.8332 18.6748 28.3849C18.7348 29.2459 19.1449 29.9619 19.7469 30.5567C20.2541 31.0629 20.7864 31.5432 21.3419 31.9958C22.3097 32.7741 22.9981 33.7203 23.3111 34.9339C23.425 35.4088 23.5881 35.8646 23.732 36.3263Z" fill="#D8A87C"/>
<path d="M13.0491 19.207C12.9976 20.1916 12.9436 21.175 12.8968 22.1583C12.8621 22.8923 12.8021 23.6274 12.8129 24.3614C12.8297 25.5258 12.8621 26.6915 12.958 27.8523C13.0122 28.4238 12.9626 29.0003 12.8117 29.5541C12.5898 30.3408 12.0526 30.4835 11.447 29.9546C11.3534 29.8719 11.2515 29.8011 11.1531 29.7244C10.8425 28.7146 10.4876 27.712 10.2333 26.6879C9.44889 23.5631 9.0859 20.3474 9.15401 17.1263C9.20198 14.8754 9.42864 12.6424 10.0798 10.4729C10.1505 10.2138 10.2419 9.96071 10.3533 9.71622C10.4524 9.55503 10.5681 9.4047 10.6986 9.2677C11.0212 9.43799 11.0188 9.70183 11.068 9.93928C11.6045 12.5424 12.1421 15.1444 12.681 17.7451C12.7841 18.2368 12.9256 18.7201 13.0491 19.207Z" fill="#FCE3C2"/>
<path d="M18.7863 22.6932C18.4793 23.6278 18.1723 24.5616 17.8653 25.4946C17.7766 25.7668 17.7106 26.0487 17.6027 26.3137C17.3628 26.8869 17.0294 26.9589 16.5833 26.5463C16.5174 26.4864 16.4538 26.4264 16.389 26.3605C16.3968 26.2531 16.3968 26.1452 16.389 26.0379C16.1492 24.1467 17.1577 22.7028 18.1027 21.2409C18.1544 21.1668 18.219 21.1026 18.2934 21.0514C18.5884 20.8367 18.8235 20.9315 18.8319 21.2985C18.8415 21.759 18.8031 22.2279 18.7863 22.6932Z" fill="#FBE2C1"/>
<path d="M25.4493 26.3593C25.189 25.1732 25.177 23.9692 25.2322 22.7616C25.3929 19.2562 25.8054 15.7784 26.6257 12.3677C27.0395 10.648 27.6703 8.97868 28.2327 7.29735C28.4351 6.66009 28.8084 6.09056 29.312 5.65079C29.4297 5.54162 29.5663 5.45467 29.715 5.39415C30.0675 5.27423 30.323 5.43373 30.3698 5.80549C30.389 6.0021 30.389 6.20011 30.3698 6.39672C30.1707 9.4332 30.2702 12.4661 30.4597 15.4966C30.5293 16.625 30.6576 17.7499 30.7595 18.8772C30.7331 19.0715 30.7115 19.267 30.6804 19.4613C30.3913 21.2733 29.8661 23.0218 29.2413 24.7379C29.1597 24.9634 29.0314 25.2416 28.8431 25.3375C28.6548 25.4335 28.3814 25.3207 28.0912 25.2956C28.036 25.6098 27.9785 25.9575 27.9137 26.3041C27.7194 27.3511 26.8764 27.6497 26.0657 26.9613L25.4996 26.4816L25.4493 26.3593Z" fill="#FCE3C2"/>
<path d="M25.5068 26.4948L26.0729 26.9745C26.8836 27.6628 27.7266 27.3642 27.9209 26.3173C27.9857 25.9707 28.0408 25.6229 28.0984 25.3087C28.3886 25.3339 28.674 25.4442 28.8503 25.3507C29.0266 25.2572 29.1669 24.9729 29.2485 24.7511C29.8721 23.0302 30.3973 21.2817 30.6876 19.4744C30.7187 19.2801 30.7403 19.0847 30.7667 18.8904C30.9622 19.8174 31.1265 20.7516 31.3663 21.669C31.4934 22.1679 31.7261 22.644 31.9228 23.1213C32.0106 23.2898 32.113 23.4503 32.2286 23.601L32.3485 23.5734L32.46 23.0242C32.5176 22.9354 32.58 22.8503 32.6303 22.7567C33.0776 21.9065 33.5106 21.0502 33.9723 20.2083C34.1558 19.8738 34.4016 19.5715 34.6187 19.2549C34.4856 19.9949 34.3249 20.73 34.2265 21.4747C34.049 22.8059 33.8907 24.1419 33.76 25.479C33.6785 26.3185 33.8931 27.1184 34.2241 27.8859C34.3714 28.252 34.5376 28.6102 34.7218 28.9592C35.5433 30.4235 35.8011 32.0245 35.8983 33.6674C35.9186 34.0068 35.9318 34.3474 35.9474 34.688L35.2423 35.7445C34.386 35.687 33.525 35.6714 32.6759 35.5586C32.0162 35.4669 31.4416 35.0616 31.1337 34.4709C30.684 33.6962 30.227 32.9251 29.7821 32.1456C29.3219 31.3538 28.7274 30.6481 28.0252 30.0601C27.3617 29.4865 26.7348 28.8716 26.1484 28.2193C25.728 27.744 25.4993 27.1293 25.5068 26.4948Z" fill="#D8A87C"/>
<path d="M34.6139 19.2406C34.3968 19.5572 34.151 19.8594 33.9675 20.194C33.5058 21.0334 33.0729 21.8921 32.6256 22.7424C32.5764 22.8359 32.5128 22.9211 32.4553 23.0098C32.5296 22.0828 32.5872 21.1534 32.6879 20.2288C32.7336 19.9639 32.8314 19.7108 32.9757 19.484C33.3211 18.8772 33.6953 18.2848 34.055 17.6852C34.1062 17.5709 34.1859 17.4718 34.2865 17.3973C34.4184 17.3338 34.6127 17.2774 34.7302 17.3326C34.8571 17.4147 34.9348 17.5545 34.9377 17.7055C34.8837 18.1469 34.7794 18.581 34.6978 19.0187L34.6427 19.1842C34.6471 19.2074 34.6352 19.2306 34.6139 19.2406Z" fill="#F9E0C0"/>
<path d="M34.6453 19.1866L34.7172 19.0211L34.6453 19.1866ZM25.4584 26.3593L25.5365 26.5155L25.4584 26.3593Z" fill="#D8A87C"/>
</svg>
