<svg width="50" height="50" viewBox="0 0 50 50" fill="none" xmlns="http://www.w3.org/2000/svg">
<path d="M25.1137 6.4812C25.295 6.54121 25.4811 6.59019 25.6575 6.66367C26.5698 7.0384 27.487 7.40701 28.3883 7.80746C28.6837 7.9455 29.0103 8.00296 29.335 7.974C30.3404 7.89318 31.3482 7.85154 32.3561 7.80746C32.9584 7.76621 33.5323 8.06926 33.8379 8.58998C34.0571 8.92798 34.2873 9.25985 34.5249 9.58682C34.7624 9.91379 35.0772 10.046 35.5254 9.96277C37.3549 9.62723 39.1992 9.44966 41.0484 9.80112C41.7231 9.92971 42.3783 10.1906 43.0261 10.4355C43.5552 10.6363 43.7915 11.0808 43.8662 11.6307C44.0484 13.035 44.0282 14.4582 43.8062 15.8568C43.6556 16.85 43.3947 17.8272 43.1657 18.8069C43.1216 18.9931 43.0702 19.1412 43.2135 19.3127C44.7553 21.1618 44.6585 23.1714 43.7817 25.2533C43.129 26.8098 42.1579 28.163 41.1672 29.5039C38.3224 33.3663 34.9755 36.7622 31.4229 39.9645C30.7959 40.5303 30.1616 41.09 29.4929 41.6043C28.0724 42.6966 26.4755 43.3273 24.6569 43.2992C23.5548 43.282 22.5298 42.9526 21.555 42.4542C20.1271 41.7194 18.8302 40.7924 17.5664 39.8176C14.8723 37.7357 12.33 35.4861 10.0706 32.9365C9.17541 31.9274 8.38676 30.8118 7.56994 29.728C7.14598 29.1494 6.83861 28.4939 6.66495 27.798C6.61676 27.6695 6.55519 27.5463 6.48126 27.4306V25.2263C6.54617 25.0843 6.62087 24.9459 6.6723 24.7989C6.90253 24.1438 7.06663 23.458 7.36298 22.8334C9.96038 17.3521 13.6599 12.7267 18.322 8.86919C19.5748 7.83317 20.977 7.0384 22.5837 6.66489C22.7698 6.62081 22.9511 6.54243 23.1286 6.4861L25.1137 6.4812ZM17.9449 37.0242C17.9865 37.0585 18.0293 37.0916 18.0673 37.1247L18.2743 37.2349C18.359 37.3653 18.4612 37.4836 18.578 37.5863C19.635 38.3088 20.7896 38.877 22.0069 39.2739C22.6303 39.4892 23.3096 39.4784 23.9259 39.2432C25.2876 38.7338 26.5588 38.1301 27.2323 36.7242C27.2635 36.6584 27.3008 36.5957 27.3437 36.5368C27.7601 35.9452 28.4121 35.5625 29.1317 35.4874C29.8554 35.4078 30.5877 35.4029 31.3176 35.3649C32.0058 35.3318 32.6365 35.12 33.0321 34.5395C33.2917 34.155 33.4497 33.6908 33.5966 33.2451C33.8219 32.5618 34.2469 32.1135 34.9437 31.9323C35.22 31.8437 35.503 31.7773 35.7899 31.7339C37.475 31.5796 38.6763 30.6318 39.5862 29.3165C40.1765 28.4691 40.6394 27.5237 41.0753 26.5844C41.7506 25.1693 42.2349 23.6707 42.5155 22.1281C42.6612 21.2806 42.2044 20.4308 41.3227 20.4797C41.3472 20.3573 41.3655 20.2348 41.3998 20.1124C41.6448 19.2343 41.9166 18.3612 42.1566 17.4807C42.6257 15.7576 42.8632 14.0211 42.5559 12.232C42.4567 11.6552 42.1885 11.3527 41.6423 11.2327C40.6483 10.9945 39.6237 10.9094 38.6041 10.9804C36.9582 11.12 35.338 11.3478 33.7791 11.9136C33.6474 11.9529 33.5137 11.9852 33.3786 12.0103C33.3786 11.5731 33.4092 11.1874 33.3786 10.809C33.2721 9.71663 33.0112 9.42517 32.1871 9.27699C31.3299 9.12391 30.4187 9.04186 29.5689 9.1729C27.1992 9.54028 25.0537 10.5053 23.1335 11.9503C22.6253 12.3324 22.133 12.7365 21.5881 13.1651C21.075 12.5357 20.3635 12.5614 19.7046 12.6753C18.8956 12.8167 18.1011 13.0319 17.3313 13.3182C14.8526 14.2294 12.6718 15.804 11.027 17.8701C9.14847 20.2262 7.97651 22.8555 8.13081 25.9525C8.16031 26.5197 8.29833 27.0759 8.53739 27.5911C8.74855 28.1128 9.22842 28.477 9.78771 28.5401C10.1404 28.7606 10.498 28.9761 10.8458 29.2039C12.3953 30.1999 13.8266 31.3688 15.1123 32.6879C15.2729 32.8272 15.4468 32.9502 15.6316 33.0553L15.7381 33.2782L15.8446 33.4949C15.9598 33.7398 16.0687 33.9909 16.1888 34.2297C16.6431 35.1518 16.9358 36.167 17.733 36.8895L17.9412 37.0218L17.9449 37.0242Z" fill="#9B47CC"/>
<path d="M18.2792 37.2349L18.0722 37.1247L17.9498 37.0243L17.7416 36.892C16.9444 36.1695 16.6517 35.1543 16.1974 34.2321C16.0749 33.9872 15.9684 33.7423 15.8532 33.4974L15.7467 33.2806L15.6316 33.0553C15.6245 32.9831 15.6089 32.912 15.585 32.8434C15.1074 31.8564 14.6482 30.8583 14.1388 29.8884C13.8219 29.3103 13.4731 28.7502 13.0942 28.2107C12.5394 27.3939 12.0949 27.3314 11.3271 27.9229C11.2414 27.9891 11.1471 28.0454 11.0626 28.1152C10.7028 28.4061 10.25 28.557 9.78774 28.5401C9.22827 28.4777 8.74791 28.1139 8.53618 27.5923C8.2974 27.0767 8.15979 26.52 8.13084 25.9525C7.97654 22.8567 9.14849 20.2275 11.027 17.8701C12.6691 15.8065 14.8459 14.2329 17.3203 13.3207C18.0901 13.0344 18.8846 12.8192 19.6936 12.6777C20.3586 12.5553 21.064 12.5332 21.5771 13.1676C22.122 12.739 22.6143 12.3349 23.1225 11.9528C25.0427 10.5028 27.1882 9.54274 29.5579 9.17536C30.4077 9.04432 31.3213 9.12637 32.1761 9.27945C33.0064 9.42763 33.2611 9.71908 33.3676 10.8114C33.4044 11.1898 33.3676 11.5756 33.3676 12.0128C33.5027 11.9876 33.6364 11.9553 33.7681 11.916C35.327 11.3466 36.9521 11.1225 38.5931 10.9829C39.6127 10.9118 40.6373 10.9969 41.6313 11.2352C42.1799 11.3576 42.4457 11.6576 42.5449 12.2344C42.8523 14.0236 42.6147 15.7601 42.1457 17.4831C41.9007 18.3636 41.6399 19.2368 41.3888 20.1148C41.3546 20.2373 41.3362 20.3597 41.3117 20.4822C41.2352 20.6231 41.1677 20.7687 41.1096 20.9182C40.6056 22.4668 39.9595 23.9656 39.1796 25.3953C38.2195 27.1563 36.8529 28.4569 34.8347 28.8941C33.7326 29.139 33.1105 28.97 32.7529 27.8201C32.6822 27.5365 32.5905 27.2586 32.4786 26.9886C32.3561 26.7436 32.1626 26.5281 31.9226 26.1913C31.8271 26.4791 31.7634 26.6248 31.7303 26.7755C31.6079 27.3278 31.5491 27.8948 31.385 28.4324C31.0176 29.6337 30.6086 30.8228 30.2032 32.0131C30.0551 32.4503 29.744 32.6597 29.2689 32.7418C28.5461 32.849 27.8111 32.8428 27.0903 32.7234C26.2869 32.612 26.0249 32.3891 25.7836 31.6213C25.6408 31.1505 25.4606 30.6918 25.2448 30.2497C24.8878 29.5292 24.2472 28.9897 23.4764 28.7606C23.4348 29.297 23.3821 29.7856 23.3601 30.2754C23.3136 31.3543 23.3001 32.4344 23.2376 33.5121C23.174 34.6142 22.8335 35.6502 22.3412 36.6471C21.8232 37.6978 20.775 37.9194 19.9496 37.7357C19.385 37.6059 18.8352 37.4039 18.2792 37.2349ZM40.7704 14.7522C40.8047 14.6479 40.8285 14.5404 40.8414 14.4314C40.8696 13.2852 40.5439 12.8088 39.3278 12.7659H39.2176C38.1987 12.7402 37.219 12.941 36.2394 13.2092C35.2241 13.4884 34.2592 13.8852 33.4558 14.5906C33.3157 14.7006 33.2175 14.8553 33.1778 15.029C33.0419 16.4006 32.9329 17.7697 32.8104 19.14C32.7149 19.8429 32.6198 20.5459 32.5251 21.2488C32.4112 22.0987 32.3022 22.951 32.181 23.8009C32.1393 24.0899 32.192 24.2846 32.5031 24.3936C32.9733 24.5589 33.2978 24.9153 33.5379 25.3378C33.7277 25.6709 33.8954 26.0187 34.0522 26.3689C34.1747 26.6579 34.3302 26.7547 34.6853 26.7032C35.4022 26.6155 36.0521 26.2386 36.4843 25.6599C36.957 25.0329 37.4309 24.3899 37.775 23.6895C38.7051 21.8233 39.4959 19.8909 40.141 17.9081C40.4716 16.8794 40.7704 15.8446 40.7704 14.7522ZM31.3752 13.4137C31.3862 12.8504 31.4389 12.2834 31.3948 11.7238C31.3568 11.2584 31.0494 11.0062 30.5792 10.989C30.1774 10.965 29.7742 10.9918 29.3791 11.0686C26.7413 11.6748 24.5027 13.0047 22.569 14.8771C22.389 15.0523 22.3584 15.2066 22.4147 15.4576C22.6094 16.3308 22.7711 17.2113 22.9278 18.093C23.0417 18.7396 23.1262 19.3911 23.2242 20.0401C23.2242 20.1871 23.2242 20.334 23.2242 20.481C23.2977 22.4052 23.3728 24.3291 23.4495 26.2526C23.46 26.313 23.4768 26.3721 23.4997 26.4289C23.7054 26.484 23.9185 26.533 24.1267 26.6004C25.4738 27.0326 26.3371 27.9793 26.9433 29.221C27.1186 29.6021 27.3465 29.9566 27.6205 30.2742C27.9377 30.6244 28.2757 30.5865 28.6345 30.2742C29.0245 29.9312 29.2937 29.4717 29.4023 28.9639C29.6179 27.9842 29.7991 26.9935 29.9595 26.0027C30.1914 24.5773 30.4045 23.1486 30.5988 21.7166C30.7433 20.6475 30.8437 19.5723 30.9662 18.4983C31.0715 17.5186 31.178 16.5389 31.2613 15.5495C31.3127 14.8392 31.3409 14.1265 31.3752 13.4137ZM21.0064 17.9448C20.8656 17.21 20.7786 16.4606 20.5692 15.7405C20.3243 14.8906 19.8259 14.6494 18.9772 14.8576C18.672 14.9252 18.3768 15.0322 18.0992 15.176C17.0889 15.727 16.0639 16.2622 15.0977 16.8831C13.0342 18.202 11.5744 20.0524 10.5997 22.2909C10.2115 23.1849 9.93959 24.1156 9.94326 25.0953C9.91999 25.7897 10.0425 25.9354 10.7074 25.8742C11.0157 25.8429 11.3158 25.7558 11.5928 25.617C11.9675 25.4296 11.9675 25.2496 11.6712 24.9569C11.5855 24.87 11.5157 24.7683 11.4361 24.6728C11.5989 24.3765 11.8034 24.3054 12.0986 24.3826C12.9558 24.5895 13.6783 25.0022 14.1669 25.7297C14.6588 26.4362 15.1003 27.1765 15.4883 27.945C16.2084 29.4476 16.8427 30.9906 17.5322 32.5079C17.8738 33.2573 18.2314 34.0031 18.6343 34.7232C18.9468 35.2904 19.592 35.5882 20.2263 35.458C20.8705 35.3502 21.1558 34.9032 21.2587 34.324C21.3803 33.7336 21.4549 33.1345 21.4816 32.5324C21.5109 30.2048 21.5167 27.878 21.4987 25.5521C21.4901 24.2503 21.4558 22.9473 21.3762 21.648C21.2893 20.4148 21.1301 19.1792 21.0064 17.9411V17.9448Z" fill="#4E4040"/>
<path d="M18.2792 37.2348C18.8352 37.4038 19.3813 37.6022 19.9508 37.732C20.7762 37.9157 21.8244 37.6941 22.3424 36.6433C22.8323 35.6465 23.1752 34.6154 23.2389 33.5083C23.3013 32.4307 23.3148 31.3506 23.3613 30.2717C23.3834 29.7818 23.436 29.292 23.4777 28.7568C24.2484 28.986 24.889 29.5255 25.246 30.246C25.4618 30.6881 25.642 31.1467 25.7848 31.6175C26.0297 32.389 26.2881 32.6119 27.0915 32.7197C27.8123 32.8391 28.5473 32.8453 29.2701 32.7381C29.7452 32.656 30.0563 32.4466 30.2044 32.0094C30.6098 30.8191 31.0188 29.63 31.3862 28.4286C31.5503 27.891 31.614 27.3265 31.7315 26.7717C31.7646 26.6211 31.8283 26.4754 31.9238 26.1876C32.1687 26.5244 32.3573 26.7362 32.4798 26.9848C32.5917 27.2548 32.6834 27.5328 32.7541 27.8163C33.1215 28.9662 33.7338 29.1328 34.8359 28.8903C36.859 28.447 38.2208 27.1526 39.1809 25.3916C39.9607 23.9619 40.6068 22.4631 41.1108 20.9144C41.1689 20.765 41.2364 20.6194 41.3129 20.4785C42.1946 20.4295 42.6514 21.2794 42.5057 22.1268C42.2251 23.6695 41.7408 25.168 41.0655 26.5832C40.6296 27.5224 40.1667 28.4678 39.5764 29.3153C38.6628 30.6256 37.4615 31.5783 35.7801 31.7326C35.4932 31.7761 35.2102 31.8424 34.9339 31.931C34.2371 32.1123 33.8122 32.5605 33.5868 33.2438C33.4399 33.6896 33.2819 34.1537 33.0223 34.5382C32.6304 35.1199 31.9997 35.3306 31.3078 35.3636C30.5731 35.3979 29.8456 35.4028 29.1219 35.4861C28.4023 35.5612 27.7504 35.9439 27.334 36.5356C27.291 36.5944 27.2537 36.6571 27.2225 36.7229C26.5514 38.1288 25.2803 38.7325 23.9161 39.242C23.2998 39.4771 22.6205 39.488 21.9971 39.2726C20.7798 38.8758 19.6252 38.3075 18.5682 37.5851C18.4567 37.4817 18.3595 37.3639 18.2792 37.2348ZM9.78772 28.5401C10.2496 28.5566 10.7019 28.4057 11.0613 28.1151C11.1458 28.0466 11.2401 27.9927 11.3258 27.9229C12.0937 27.3314 12.5382 27.3938 13.0929 28.2107C13.4718 28.749 13.8205 29.3078 14.1375 29.8847C14.647 30.8546 15.1062 31.8527 15.5838 32.8397C15.6076 32.9082 15.6233 32.9793 15.6303 33.0515C15.4456 32.9465 15.2717 32.8234 15.1111 32.6842C13.8258 31.3651 12.3949 30.1963 10.8458 29.2001C10.4992 28.976 10.1416 28.7605 9.78772 28.5401Z" fill="#7736C1"/>
<path d="M15.6337 33.0553L15.7697 33.2782L15.6337 33.0553ZM15.7415 33.2745L15.8774 33.4913L15.7415 33.2745Z" fill="#017B8F"/>
<path d="M17.7342 36.8907L17.9424 37.047L17.7342 36.8907ZM17.9448 37.0273L18.1011 37.1554L17.9448 37.0273Z" fill="#E27B11"/>
<path d="M21.0064 17.9411C21.1288 19.1792 21.2893 20.4148 21.3738 21.6541C21.457 22.9534 21.4962 24.2564 21.4962 25.5582C21.5117 27.8874 21.506 30.2141 21.4791 32.5385C21.4524 33.1406 21.3779 33.7397 21.2562 34.3301C21.1533 34.9093 20.868 35.3563 20.2238 35.4641C19.5895 35.5943 18.9443 35.2965 18.6319 34.7293C18.2339 34.0092 17.8763 33.2598 17.5297 32.514C16.8402 30.9967 16.2059 29.4524 15.4858 27.9511C15.0979 27.1825 14.6563 26.4423 14.1645 25.7357C13.6746 25.001 12.9472 24.5907 12.0961 24.3887C11.8059 24.3176 11.5965 24.3825 11.4336 24.6789C11.5132 24.7744 11.583 24.8761 11.6687 24.963C11.9651 25.2594 11.9651 25.4357 11.5903 25.6231C11.3133 25.7619 11.0132 25.849 10.7049 25.8802C10.04 25.9415 9.91752 25.7957 9.94078 25.1014C10.1122 24.9532 10.3363 24.8356 10.4429 24.6507C10.9192 23.8302 11.3638 22.9902 11.8157 22.1562C12.0973 21.6345 12.4965 21.5059 12.9778 21.8562C13.3498 22.1508 13.7035 22.4677 14.0371 22.8052C14.7376 23.4616 15.5152 23.8106 16.4753 23.4175C17.1578 23.1408 17.7566 22.6914 18.213 22.1133C19.2564 20.7993 20.2863 19.4719 21.0064 17.9411ZM31.3752 13.4137C31.336 14.1264 31.3127 14.8391 31.2527 15.5506C31.1694 16.5303 31.0629 17.5174 30.9576 18.4995C30.8437 19.5735 30.7396 20.6487 30.5902 21.7178C30.3967 23.1498 30.1836 24.5785 29.9509 26.0039C29.7905 26.9946 29.6093 27.9841 29.3937 28.965C29.2851 29.4729 29.0159 29.9324 28.6259 30.2754C28.2671 30.5901 27.9291 30.6281 27.6119 30.2754C27.3379 29.9578 27.11 29.6033 26.9347 29.2222C26.3334 27.9805 25.4652 27.0338 24.1181 26.6015C23.9099 26.5342 23.6968 26.4852 23.4911 26.4301C23.4682 26.3733 23.4514 26.3141 23.4409 26.2537C23.365 24.3303 23.2899 22.4064 23.2156 20.4822C23.2156 20.3352 23.2156 20.1882 23.2156 20.0413C23.9614 20.5164 24.3655 20.5005 24.9582 19.9005C26.111 18.7461 27.2482 17.5794 28.37 16.4005C29.0986 15.6339 29.7832 14.8244 30.513 14.0603C30.7592 13.8056 31.0862 13.628 31.3752 13.4137ZM40.7704 14.7522C40.7704 15.8446 40.4691 16.8793 40.1397 17.908C39.4946 19.8908 38.7038 21.8232 37.7738 23.6894C37.4296 24.3899 36.9557 25.0365 36.483 25.6598C36.0497 26.2397 35.3978 26.6167 34.6792 26.7032C34.324 26.7546 34.1746 26.6579 34.046 26.3689C33.8893 26.0186 33.7215 25.6708 33.5317 25.3377C33.2868 24.9152 32.9672 24.5589 32.4969 24.3936C32.1859 24.2846 32.1295 24.0899 32.1748 23.8009C32.2973 22.951 32.4051 22.0986 32.5189 21.2488C32.6153 20.5475 32.7124 19.8445 32.8104 19.14C32.8876 19.4523 32.9329 19.789 33.4092 19.9617C33.5317 19.8086 33.6542 19.6213 33.8011 19.4608C34.6884 18.5091 35.6652 17.645 36.7181 16.8806C37.9636 15.978 39.2739 15.1833 40.7704 14.7522Z" fill="#D8A87C"/>
<path d="M21.0064 17.9411C20.2863 19.4718 19.2564 20.7993 18.2155 22.1146C17.7591 22.6926 17.1603 23.142 16.4778 23.4188C15.5177 23.8094 14.74 23.4604 14.0396 22.8065C13.706 22.469 13.3522 22.152 12.9803 21.8574C12.499 21.5071 12.0998 21.6357 11.8181 22.1574C11.3662 22.9914 10.9217 23.8315 10.4453 24.652C10.3388 24.8369 10.1147 24.9544 9.94324 25.1026C9.94324 24.1143 10.2114 23.1873 10.5996 22.2934C11.5793 20.0548 13.0342 18.2044 15.0976 16.8793C16.0638 16.256 17.0888 15.7209 18.0992 15.1759C18.3753 15.033 18.6688 14.9264 18.9723 14.8587C19.8295 14.6505 20.3194 14.8918 20.5643 15.7417C20.7786 16.4568 20.8655 17.2063 21.0064 17.9411ZM31.3752 13.4137C31.0862 13.628 30.7629 13.8056 30.5179 14.0627C29.7832 14.8269 29.1035 15.6364 28.3749 16.403C27.2499 17.5827 26.1159 18.7493 24.9729 19.9029C24.3802 20.503 23.9761 20.5152 23.2303 20.0437C23.1323 19.3947 23.0478 18.7432 22.9339 18.0966C22.7772 17.2149 22.6155 16.3344 22.4208 15.4612C22.3645 15.2163 22.3951 15.0559 22.5751 14.8808C24.5026 13.0083 26.7412 11.6784 29.3815 11.0722C29.7766 10.9954 30.1798 10.9687 30.5816 10.9926C31.0519 11.0061 31.3592 11.2584 31.3972 11.7274C31.4388 12.2834 31.3862 12.8491 31.3752 13.4137ZM40.7704 14.7522C39.2715 15.1833 37.9611 15.9768 36.712 16.8806C35.6599 17.6455 34.6839 18.51 33.7974 19.462C33.6468 19.6225 33.5244 19.8098 33.4056 19.9629C32.9255 19.7902 32.8839 19.4535 32.8067 19.1412C32.9329 17.7696 33.0419 16.4005 33.1778 15.029C33.2162 14.856 33.3126 14.7013 33.4509 14.5905C34.2542 13.8852 35.2192 13.4884 36.2344 13.2092C37.2141 12.941 38.1938 12.7402 39.2164 12.7646H39.3266C40.5426 12.8075 40.8684 13.2839 40.8402 14.4301C40.8277 14.5395 40.8043 14.6474 40.7704 14.7522Z" fill="#FCE3C2"/>
</svg>
