<svg width="32" height="32" viewBox="0 0 32 32" fill="none" xmlns="http://www.w3.org/2000/svg">
<path d="M17.5898 14.7866C15.1699 14.4981 13.1046 13.553 11.592 11.5672C11.29 11.1708 10.9502 10.8068 10.624 10.428C9.66142 9.31311 9.15048 9.18773 7.7956 9.80518C6.46498 10.4105 5.30963 11.3407 4.43468 12.5109C4.34571 12.6363 4.23246 12.7428 4.10169 12.825C3.98036 12.2696 4.01811 11.7263 4.26482 11.2517C5.16268 9.52611 6.44206 8.15775 8.23509 7.34078C8.61392 7.17765 9.01701 7.07385 9.42685 7.03205C10.1656 6.94577 10.8357 7.15339 11.2684 7.7924C11.6486 8.35323 12.0288 8.93697 12.2943 9.55712C13.3189 11.9406 15.2279 12.9261 17.6909 13.0798C19.1173 13.1782 20.549 12.9463 21.8715 12.4017C23.7252 11.6319 24.3535 9.86584 23.2385 7.91643C23.0336 7.56052 22.737 7.3219 22.2881 7.41762C21.8392 7.51334 21.6504 7.84363 21.6302 8.25616C21.6046 8.75093 21.6235 9.24974 21.6423 9.74586C21.6855 10.8176 21.1664 11.4095 20.0893 11.4297C18.7924 11.454 17.7948 10.8864 17.0492 9.82675C14.8733 6.72198 16.5221 3.03751 18.8153 1.43997C21.2002 -0.22094 25.8742 -0.470346 28.4599 3.31523C30.1882 5.84299 30.9405 8.61073 30.8987 11.6521C30.8582 14.6652 29.7339 17.2752 28.0945 19.7167C25.9496 22.9118 22.9905 25.0688 19.4489 26.4817C19.2386 26.5666 19.031 26.6596 18.822 26.7473C18.7384 26.7688 18.6535 26.7823 18.574 26.8093C15.5851 27.8473 12.5127 28.2895 9.36753 27.9107C8.06253 27.753 6.78045 27.3836 5.49702 27.0749C4.99416 26.9549 4.58568 26.6381 4.41311 26.1258C3.9143 24.6455 3.42897 23.1572 2.95712 21.6634C2.8614 21.3668 2.84253 21.046 2.7886 20.7359L2.92207 20.6833C3.09194 20.9529 3.2645 21.2199 3.43167 21.4909C3.96149 22.3456 4.44951 23.238 5.02921 24.0604C5.60622 24.9138 6.51756 25.4827 7.5381 25.6269C8.43866 25.7591 9.33652 25.9181 10.2411 25.995C12.5801 26.1918 14.8706 25.8925 17.1153 25.2185C19.3748 24.6091 21.49 23.5535 23.3356 22.1137C26.6669 19.5131 28.8724 16.2277 29.2836 11.9204C29.4305 10.3862 29.2162 8.83856 28.6581 7.40144C28.2267 5.93602 27.411 4.61079 26.2988 3.56194C25.0895 2.42276 23.6605 1.94148 21.9969 2.11404C19.1051 2.41198 17.0843 5.52214 18.0172 8.27099C18.1884 8.7725 18.4607 9.19043 18.9784 9.39939C19.2885 9.47353 19.5972 9.60565 19.9073 9.61239C20.3562 9.62048 20.5113 9.36838 20.3818 8.93698C20.2996 8.6687 20.1823 8.4085 20.0745 8.14696C19.7644 7.38796 19.9073 6.93499 20.5948 6.48336C21.1948 6.10184 21.8756 5.86591 22.582 5.79581C23.2426 5.85108 23.8358 6.056 24.2807 6.57638C26.2044 8.83047 25.7569 12.7482 22.6144 14.0046C21.0182 14.6356 19.302 14.9038 17.5898 14.7866Z" fill="#4D4040"/>
<path d="M17.1126 25.2144C14.8693 25.8885 12.5788 26.1878 10.2398 25.991C9.33382 25.9141 8.43461 25.755 7.5354 25.6229C6.51755 25.4827 5.60486 24.9165 5.02651 24.0672C4.44681 23.2448 3.95878 22.3577 3.42897 21.4976C3.2618 21.2266 3.08923 20.9597 2.91937 20.6901L2.7859 20.7427C2.83983 21.0527 2.86005 21.3736 2.95442 21.6702C3.42627 23.1612 3.91295 24.6482 4.41041 26.1325C4.58163 26.6435 4.99011 26.9589 5.49432 27.0816C6.77774 27.3903 8.05983 27.7597 9.36483 27.9175C12.51 28.2976 15.5811 27.8541 18.5699 26.816C18.6508 26.7891 18.7357 26.7756 18.818 26.754C18.6225 26.9751 18.4392 27.207 18.2288 27.4119C17.6303 27.9943 17.0223 28.5673 16.4169 29.1443C15.8575 29.6053 15.3236 30.1001 14.7345 30.5194C12.7298 31.9443 10.6199 32.1439 8.46427 30.8995C6.41105 29.697 4.51557 28.2451 2.81961 26.5761C2.7886 25.995 2.81961 25.4005 2.70636 24.837C2.61199 24.3624 2.34911 23.9229 2.14823 23.474C1.83816 22.7837 1.45799 22.1258 1.2288 21.4154C0.907944 20.4151 1.24498 19.4309 1.61841 18.5155C1.86782 17.9008 2.28305 17.3305 2.7185 16.8223C3.12968 16.341 3.7296 16.1832 4.35649 16.3989C4.75823 16.5365 5.14245 16.7252 5.53072 16.9005C6.79662 17.4761 8.04904 18.0868 9.33112 18.6247C11.0487 19.3446 12.8659 19.6857 14.7129 19.8839C14.9542 19.8974 15.1955 19.8974 15.4368 19.8839L15.5231 20.0214C16.1325 20.864 17.0371 21.2293 17.9821 21.5178C18.4405 21.6594 18.911 21.7618 19.3909 21.8845C18.9204 22.3119 18.4702 22.6799 18.0603 23.0952C17.4901 23.6762 17.1422 24.3786 17.1126 25.2144Z" fill="black" fill-opacity="0.3"/>
<path d="M15.5231 20.0187L15.4369 19.8812C15.5366 19.6574 15.5852 19.3877 15.7429 19.2206C16.7446 18.1677 17.9929 17.379 19.3761 16.9274C19.484 16.891 19.5932 16.86 19.6997 16.8249C19.7226 16.8168 19.7388 16.7939 19.7752 16.7629C18.8948 16.2641 17.9592 15.8327 17.5898 14.7865C19.3006 14.9025 21.0155 14.6355 22.609 14.0046C25.7515 12.7482 26.2004 8.83046 24.2766 6.57637C23.8304 6.05598 23.2385 5.85107 22.578 5.79579C21.7192 5.54099 20.8052 5.53695 19.9437 5.78366C19.728 5.85242 19.5312 5.9697 19.368 6.12609C18.7856 6.66669 18.6953 7.34076 18.9016 8.07685C19.0243 8.51095 19.1995 8.941 18.9784 9.39668C18.4607 9.18771 18.1884 8.76979 18.0172 8.26693C17.0843 5.51942 19.1051 2.40927 21.9969 2.10998C23.6605 1.93877 25.0895 2.4241 26.2988 3.55923C27.4124 4.60808 28.2267 5.93465 28.6581 7.40278C28.6298 7.91372 28.619 8.42467 28.5704 8.93292C28.2631 12.0606 26.8677 14.5897 24.3535 16.4798C22.0778 18.1892 19.4584 19.11 16.7135 19.7261C16.3158 19.8178 15.9208 19.9216 15.5231 20.0187Z" fill="#FCE3C2"/>
<path d="M15.5231 20.0187C15.9208 19.923 16.3158 19.8178 16.7135 19.7289C19.4584 19.1128 22.0778 18.1933 24.3534 16.4825C26.8677 14.5925 28.2631 12.0633 28.5704 8.93566C28.619 8.42741 28.6297 7.91646 28.6581 7.40552C29.2162 8.84263 29.4305 10.3903 29.2836 11.9245C28.8724 16.2304 26.6669 19.5199 23.3356 22.1178C21.4887 23.5549 19.3734 24.6078 17.1126 25.2144C17.1422 24.3786 17.4928 23.6762 18.063 23.0911C18.4688 22.6772 18.9177 22.3079 19.3936 21.8818C18.9177 21.7592 18.4432 21.6567 17.9848 21.5152C17.0384 21.2266 16.1325 20.8613 15.5231 20.0187Z" fill="#D8A87D"/>
<path d="M18.9784 9.39937C19.1995 8.94505 19.0243 8.51499 18.9016 8.07954C18.6953 7.34346 18.7856 6.66939 19.368 6.12879C19.5312 5.9724 19.728 5.85511 19.9437 5.78636C20.8038 5.5383 21.7178 5.541 22.578 5.79579C21.8702 5.8659 21.1894 6.10182 20.5908 6.48335C19.9019 6.93497 19.759 7.3866 20.0704 8.14695C20.1769 8.40849 20.2956 8.66868 20.3778 8.93696C20.5113 9.36837 20.3562 9.62047 19.9019 9.61238C19.5972 9.60564 19.2885 9.47352 18.9784 9.39937Z" fill="#D7A77C"/>
</svg>
