<svg width="43" height="50" viewBox="0 0 43 50" fill="none" xmlns="http://www.w3.org/2000/svg">
<path fill-rule="evenodd" clip-rule="evenodd" d="M21.4286 50C33.2632 50 42.8571 41.4286 42.8571 29.2857C42.8571 28.0712 42.7687 26.8438 42.6006 25.6152L36.5714 30.0001L29.4285 24.2858L21.5714 30.0001L14.4285 24.2858L7.01762 30.7144L0.27682 25.4695C0.0955495 26.7468 0 28.0232 0 29.2857C0 41.4286 9.5939 50 21.4286 50ZM1.36048 20.6309C4.67982 9.72312 13.5029 0 21.4286 0C29.4312 0 38.3488 9.91286 41.5918 20.949L36.5714 25.1567L29.4285 18.5715L21.5714 25.1567L14.4285 18.5715L7.01762 25.1567L1.36048 20.6309Z" fill="#F59CC7"/>
</svg>
