<svg width="50" height="50" viewBox="0 0 50 50" fill="none" xmlns="http://www.w3.org/2000/svg">
<path d="M37.5 0H12.5C5.59644 0 0 5.59644 0 12.5V37.5C0 44.4036 5.59644 50 12.5 50H37.5C44.4036 50 50 44.4036 50 37.5V12.5C50 5.59644 44.4036 0 37.5 0Z" fill="black"/>
<path fill-rule="evenodd" clip-rule="evenodd" d="M25.2857 40C32.6232 40 38.5714 34.6857 38.5714 27.1571C38.5714 26.4042 38.5166 25.6432 38.4124 24.8814L34.6743 27.6L30.2457 24.0571L25.3743 27.6L20.9457 24.0571L16.351 28.0429L12.1716 24.791C12.0592 25.583 12 26.3744 12 27.1571C12 34.6857 17.9482 40 25.2857 40ZM12.8435 21.7911C14.9015 15.0283 20.3718 9 25.2857 9C30.2474 9 35.7762 15.146 37.7869 21.9884L34.6743 24.5971L30.2457 20.5143L25.3743 24.5971L20.9457 20.5143L16.351 24.5971L12.8435 21.7911Z" fill="#F59CC7"/>
</svg>
