<svg width="50" height="50" viewBox="0 0 50 50" fill="none" xmlns="http://www.w3.org/2000/svg">
<path fill-rule="evenodd" clip-rule="evenodd" d="M12.5 0H37.5C44.4036 0 50 5.59644 50 12.5V37.5C50 44.4036 44.4036 50 37.5 50H12.5C5.59644 50 0 44.4036 0 37.5V12.5C0 5.59644 5.59644 0 12.5 0ZM38.5714 27.1571C38.5714 34.6857 32.6232 40 25.2857 40C17.9482 40 12 34.6857 12 27.1571C12 26.3744 12.0592 25.583 12.1716 24.791L16.351 28.0429L20.9457 24.0571L25.3743 27.6L30.2457 24.0571L34.6743 27.6L38.4124 24.8814C38.5166 25.6432 38.5714 26.4042 38.5714 27.1571ZM25.2857 9C20.3718 9 14.9015 15.0283 12.8435 21.7911L16.351 24.5971L20.9457 20.5143L25.3743 24.5971L30.2457 20.5143L34.6743 24.5971L37.7869 21.9884C35.7762 15.146 30.2474 9 25.2857 9Z" fill="#F59CC7"/>
</svg>
