<svg width="50" height="50" viewBox="0 0 50 50" fill="none" xmlns="http://www.w3.org/2000/svg">
<path fill-rule="evenodd" clip-rule="evenodd" d="M12.5 0H37.5C44.4036 0 50 5.59644 50 12.5V37.5C50 44.4036 44.4036 50 37.5 50H12.5C5.59644 50 0 44.4036 0 37.5V12.5C0 5.59644 5.59644 0 12.5 0ZM9.43756 22.6313C9.43756 33.6501 25.0001 38.7313 25.0001 38.7313C25.0001 38.7313 40.5626 33.6501 40.5626 22.6313C40.5615 20.8089 39.9748 19.0351 38.889 17.5716C37.8032 16.108 36.2757 15.0322 34.532 14.5027C32.7882 13.9733 30.9204 14.0183 29.2042 14.6311C27.488 15.2439 26.0141 16.3921 25.0001 17.9063C23.986 16.3921 22.5122 15.2439 20.7959 14.6311C19.0797 14.0183 17.2119 13.9733 15.4681 14.5027C13.7244 15.0322 12.1969 16.108 11.1111 17.5716C10.0253 19.0351 9.43859 20.8089 9.43756 22.6313Z" fill="#3AC279"/>
</svg>
