<svg width="50" height="50" viewBox="0 0 50 50" fill="none" xmlns="http://www.w3.org/2000/svg">
<path d="M37.5 0H12.5C5.59644 0 0 5.59644 0 12.5V37.5C0 44.4036 5.59644 50 12.5 50H37.5C44.4036 50 50 44.4036 50 37.5V12.5C50 5.59644 44.4036 0 37.5 0Z" fill="black"/>
<path d="M25.0001 38.7313C25.0001 38.7313 9.43756 33.6501 9.43756 22.6313C9.43859 20.8089 10.0253 19.0351 11.1111 17.5716C12.1969 16.108 13.7244 15.0322 15.4681 14.5027C17.2119 13.9733 19.0797 14.0183 20.7959 14.6311C22.5122 15.2439 23.986 16.3921 25.0001 17.9063C26.0141 16.3921 27.488 15.2439 29.2042 14.6311C30.9204 14.0183 32.7882 13.9733 34.532 14.5027C36.2757 15.0322 37.8032 16.108 38.889 17.5716C39.9748 19.0351 40.5615 20.8089 40.5626 22.6313C40.5626 33.6501 25.0001 38.7313 25.0001 38.7313" fill="#3AC279"/>
</svg>
