<svg width="50" height="40" viewBox="0 0 50 40" fill="none" xmlns="http://www.w3.org/2000/svg">
<path d="M25 39.5104C25 39.5104 0 31.3477 0 13.6469C0.0016556 10.7194 0.944139 7.86993 2.68843 5.51882C4.43272 3.1677 6.88645 1.43943 9.68769 0.588936C12.4889 -0.26156 15.4893 -0.189248 18.2464 0.795204C21.0034 1.77966 23.371 3.62412 25 6.05654C26.629 3.62412 28.9966 1.77966 31.7536 0.795204C34.5107 -0.189248 37.5111 -0.26156 40.3123 0.588936C43.1136 1.43943 45.5673 3.1677 47.3116 5.51882C49.0559 7.86993 49.9983 10.7194 50 13.6469C50 31.3477 25 39.5104 25 39.5104" fill="#3AC279"/>
</svg>
