<svg width="50" height="50" viewBox="0 0 50 50" fill="none" xmlns="http://www.w3.org/2000/svg">
<path fill-rule="evenodd" clip-rule="evenodd" d="M12.5 0H37.5C44.4036 0 50 5.59644 50 12.5V37.5C50 44.4036 44.4036 50 37.5 50H12.5C5.59644 50 0 44.4036 0 37.5V12.5C0 5.59644 5.59644 0 12.5 0ZM34.8563 29.7781C34.9 29.375 34.9282 28.9719 34.9282 28.5593L34.9063 27.8469C34.8938 25.2219 34.3407 22.0657 30.4594 18.5344C27.4188 15.7719 25.9688 13.5657 26.0313 11.7937C26.0404 11.5688 26.074 11.3457 26.1313 11.1282L26.5875 9.44067L25.0813 10.3313C22.1344 12.0781 20.7688 14.3782 21.2375 16.8093C21.6155 18.7552 22.3306 19.6334 22.9054 20.3395L22.9063 20.3406C23.4219 20.9781 23.8282 21.4812 23.7563 22.4968C23.7376 22.8657 23.6097 23.2208 23.3889 23.5168C23.1679 23.8129 22.864 24.0365 22.5157 24.1594C22.1157 24.3219 21.6375 24.4094 21.1344 24.4094C20.1625 24.4094 19.3563 24.0938 19.0219 23.8C18.3688 23.225 18.0063 22.5312 17.9688 21.7937L17.8938 20.2031L16.7594 21.3219C15.1375 22.9156 14.0532 25.4343 13.9188 27.8438L13.8813 28.5593C13.8831 29.1321 13.9312 29.7037 14.025 30.2688C15.0032 36.125 18.8657 39.975 24.4313 39.975C30.1688 39.975 34.3063 35.9 34.8563 29.7781Z" fill="#C23A3A"/>
</svg>
