<svg width="35" height="50" viewBox="0 0 35 50" fill="none" xmlns="http://www.w3.org/2000/svg">
<path d="M34.4642 31.3069C34.4642 31.9824 34.4182 32.6425 34.3465 33.3026C33.4459 43.3272 26.6708 50 17.2756 50C8.16191 50 1.83707 43.6956 0.23539 34.106C0.0817679 33.1808 0.00304896 32.2448 0 31.3069L0.0614066 30.1351C0.281446 26.1897 2.05711 22.0653 4.71293 19.4555L6.57046 17.6236L6.69328 20.2282C6.75468 21.4359 7.34828 22.5719 8.41777 23.5135C8.96531 23.9945 10.2855 24.5113 11.877 24.5113C12.7009 24.5113 13.4838 24.368 14.1388 24.1019C14.7092 23.9008 15.2069 23.5345 15.5686 23.0498C15.9304 22.565 16.1398 21.9837 16.1703 21.3796C16.288 19.7165 15.6228 18.8926 14.7784 17.8487C13.8369 16.6923 12.665 15.2543 12.0459 12.0663C11.2783 8.08515 13.5145 4.3189 18.34 1.4584L20.8065 0L20.0594 2.76328C19.9655 3.1196 19.9106 3.48506 19.8956 3.85324C19.7933 6.75468 22.1676 10.3674 27.1467 14.891C33.5022 20.6734 34.4079 25.8418 34.4284 30.1402L34.4642 31.3069V31.3069Z" fill="#C23A3A"/>
</svg>
