<svg width="50" height="50" viewBox="0 0 50 50" fill="none" xmlns="http://www.w3.org/2000/svg">
<path d="M37.5 0H12.5C5.59644 0 0 5.59644 0 12.5V37.5C0 44.4036 5.59644 50 12.5 50H37.5C44.4036 50 50 44.4036 50 37.5V12.5C50 5.59644 44.4036 0 37.5 0Z" fill="black"/>
<path d="M34.9282 28.5594C34.9282 28.9719 34.9 29.375 34.8563 29.7782C34.3063 35.9 30.1688 39.975 24.4313 39.975C18.8657 39.975 15.0032 36.125 14.025 30.2688C13.9312 29.7038 13.8831 29.1322 13.8813 28.5594L13.9188 27.8438C14.0532 25.4344 15.1375 22.9157 16.7594 21.3219L17.8938 20.2032L17.9688 21.7938C18.0063 22.5313 18.3688 23.225 19.0219 23.8C19.3563 24.0938 20.1625 24.4094 21.1344 24.4094C21.6375 24.4094 22.1157 24.3219 22.5157 24.1594C22.864 24.0366 23.1679 23.8129 23.3888 23.5169C23.6098 23.2208 23.7377 22.8658 23.7563 22.4969C23.8282 21.4813 23.4219 20.9782 22.9063 20.3407C22.3313 19.6344 21.6157 18.7563 21.2375 16.8094C20.7688 14.3782 22.1344 12.0782 25.0813 10.3313L26.5875 9.44067L26.1313 11.1282C26.074 11.3458 26.0404 11.569 26.0313 11.7938C25.9688 13.5657 27.4188 15.7719 30.4594 18.5344C34.3407 22.0657 34.8938 25.2219 34.9063 27.8469L34.9282 28.5594Z" fill="#C23A3A"/>
</svg>
