<svg width="50" height="50" viewBox="0 0 50 50" fill="none" xmlns="http://www.w3.org/2000/svg">
<path d="M37.5 0H12.5C5.59644 0 0 5.59644 0 12.5V37.5C0 44.4036 5.59644 50 12.5 50H37.5C44.4036 50 50 44.4036 50 37.5V12.5C50 5.59644 44.4036 0 37.5 0Z" fill="black"/>
<path d="M35.5438 29.5719C35.2531 30.5344 35.075 38.9937 34.3125 39.5875C33.5438 40.1812 25.9469 37.7437 25 37.7437C24.0531 37.7437 16.4563 40.1812 15.6875 39.5875C14.9219 38.9937 14.7438 30.5344 14.4531 29.5719C14.1625 28.6125 9.64064 21.6562 9.93752 20.6969C10.2281 19.7375 17.7125 16.9437 18.4844 16.3531C19.2469 15.7594 24.0531 9.02185 25 9.02185C25.9438 9.02185 30.75 15.7562 31.5156 16.35C32.2844 16.9437 39.7719 19.7375 40.0625 20.6969C40.3594 21.6562 35.8375 28.6125 35.5438 29.5719" fill="#6A3AC2"/>
</svg>
