<svg width="50" height="50" viewBox="0 0 50 50" fill="none" xmlns="http://www.w3.org/2000/svg">
<path fill-rule="evenodd" clip-rule="evenodd" d="M12.5 0H37.5C44.4036 0 50 5.59644 50 12.5V37.5C50 44.4036 44.4036 50 37.5 50H12.5C5.59644 50 0 44.4036 0 37.5V12.5C0 5.59644 5.59644 0 12.5 0ZM35.2429 32.7841C35.3501 31.2223 35.4397 29.9164 35.5438 29.5718C35.6487 29.229 36.2936 28.1205 37.0656 26.7935C38.4539 24.4067 40.2533 21.3134 40.0625 20.6968C39.876 20.0809 36.7241 18.7094 34.2873 17.6489C32.9278 17.0574 31.791 16.5626 31.5157 16.35C31.241 16.137 30.4464 15.1338 29.4966 13.9347C27.7988 11.7913 25.6052 9.02185 25 9.02185C24.3914 9.02185 22.1886 11.8051 20.4897 13.9514C19.5454 15.1445 18.7568 16.1409 18.4844 16.353C18.2094 16.5635 17.0827 17.0535 15.7328 17.6405C13.2932 18.7014 10.1246 20.0792 9.93753 20.6968C9.7471 21.3121 11.5392 24.3947 12.9256 26.7794C13.7007 28.1127 14.3489 29.2278 14.4532 29.5718C14.5571 29.9159 14.6466 31.2183 14.7538 32.7769C14.9463 35.5778 15.1956 39.2059 15.6875 39.5874C16.1807 39.9683 19.4838 39.1017 22.0387 38.4314C23.4665 38.0569 24.6606 37.7437 25 37.7437C25.3395 37.7437 26.5336 38.0569 27.9613 38.4314C30.5162 39.1017 33.8194 39.9683 34.3125 39.5874C34.802 39.2063 35.0507 35.584 35.2429 32.7841Z" fill="#6A3AC2"/>
</svg>
