<svg width="50" height="50" viewBox="0 0 50 50" fill="none" xmlns="http://www.w3.org/2000/svg">
<path d="M41.7828 33.514C41.3089 35.0837 41.0184 48.8797 39.7748 49.848C38.5211 50.8163 26.1317 46.8411 24.5875 46.8411C23.0433 46.8411 10.6539 50.8163 9.40022 49.848C8.1516 48.8797 7.8611 35.0837 7.38714 33.514C6.91317 31.9494 -0.461337 20.6048 0.0228225 19.0402C0.496789 17.4756 12.7027 12.9194 13.9615 11.9562C15.205 10.9879 23.0433 0 24.5875 0C26.1266 0 33.9649 10.9828 35.2135 11.9511C36.4673 12.9194 48.6783 17.4756 49.1522 19.0402C49.6364 20.6048 42.2619 31.9494 41.7828 33.514" fill="#6A3AC2"/>
</svg>
