<svg width="50" height="50" viewBox="0 0 50 50" fill="none" xmlns="http://www.w3.org/2000/svg">
<path d="M37.5 0H12.5C5.59644 0 0 5.59644 0 12.5V37.5C0 44.4036 5.59644 50 12.5 50H37.5C44.4036 50 50 44.4036 50 37.5V12.5C50 5.59644 44.4036 0 37.5 0Z" fill="black"/>
<path d="M29.65 21.4062H32.65C33.15 21.4062 33.4406 21.9812 33.1406 22.3812L20.5 39.5812C20.1063 40.0781 19.3094 39.7281 19.4094 39.1L21.5875 26.725C21.6037 26.6366 21.6 26.5457 21.5769 26.4589C21.5538 26.372 21.5118 26.2914 21.4539 26.2227C21.3959 26.154 21.3235 26.099 21.2418 26.0615C21.1601 26.0241 21.0711 26.0052 20.9813 26.0062H18.4563C18.3666 26.0057 18.2782 25.9856 18.197 25.9475C18.1159 25.9094 18.044 25.8541 17.9863 25.7854C17.9286 25.7168 17.8866 25.6364 17.8631 25.5499C17.8395 25.4634 17.8351 25.3728 17.85 25.2843L20.8438 9.63123C20.8706 9.49082 20.9455 9.36414 21.0555 9.27291C21.1656 9.18168 21.304 9.13158 21.4469 9.13123H32.6531C33.075 9.13123 33.3719 9.54998 33.225 9.94998L29.0782 20.5656C29.0422 20.6587 29.0294 20.7591 29.0409 20.8582C29.0523 20.9574 29.0877 21.0522 29.144 21.1346C29.2003 21.217 29.2757 21.2845 29.3639 21.3313C29.452 21.3781 29.5502 21.4027 29.65 21.4031" fill="#F7AC0A"/>
</svg>
