<svg width="50" height="50" viewBox="0 0 50 50" fill="none" xmlns="http://www.w3.org/2000/svg">
<path fill-rule="evenodd" clip-rule="evenodd" d="M12.5 0H37.5C44.4036 0 50 5.59644 50 12.5V37.5C50 44.4036 44.4036 50 37.5 50H12.5C5.59644 50 0 44.4036 0 37.5V12.5C0 5.59644 5.59644 0 12.5 0ZM32.65 21.4062H29.65V21.4031C29.5502 21.4027 29.452 21.3781 29.3638 21.3313C29.2757 21.2845 29.2003 21.217 29.144 21.1346C29.0877 21.0522 29.0523 20.9574 29.0408 20.8583C29.0294 20.7592 29.0422 20.6587 29.0781 20.5657L33.225 9.94995C33.3719 9.55005 33.075 9.13123 32.6531 9.13123H21.4469C21.304 9.13159 21.1656 9.18164 21.0555 9.27295C20.9454 9.36414 20.8706 9.49084 20.8438 9.63123L17.85 25.2844C17.835 25.3728 17.8395 25.4634 17.863 25.5499C17.8736 25.5886 17.8879 25.6262 17.9056 25.6621C17.9274 25.7062 17.9545 25.7476 17.9863 25.7854C18.0439 25.8541 18.1158 25.9094 18.197 25.9475C18.2781 25.9856 18.3666 26.0057 18.4562 26.0062H20.9813C21.0359 26.0056 21.0904 26.0123 21.143 26.0261C21.1768 26.035 21.2098 26.0469 21.2418 26.0615C21.3235 26.099 21.3959 26.1541 21.4539 26.2227C21.5118 26.2914 21.5538 26.3721 21.5769 26.4589C21.6 26.5457 21.6036 26.6366 21.5875 26.725L19.4094 39.1C19.3094 39.7281 20.1063 40.0781 20.5 39.5813L33.1406 22.3812C33.4406 21.9812 33.15 21.4062 32.65 21.4062Z" fill="#F7AC0A"/>
</svg>
