<svg width="26" height="50" viewBox="0 0 26 50" fill="none" xmlns="http://www.w3.org/2000/svg">
<path d="M19.2413 20.0012H24.1296C24.9443 20.0012 25.4179 20.9381 24.929 21.5899L4.33208 49.616C3.69049 50.4256 2.39205 49.8553 2.55499 48.8318L6.10408 28.6677C6.13037 28.5236 6.12448 28.3756 6.08682 28.2341C6.04917 28.0926 5.98068 27.9612 5.88628 27.8492C5.79187 27.7373 5.67387 27.6476 5.54075 27.5867C5.40762 27.5257 5.26266 27.4949 5.11624 27.4965H1.00194C0.855854 27.4956 0.711706 27.463 0.579479 27.4009C0.447253 27.3387 0.330108 27.2486 0.236153 27.1368C0.142199 27.0249 0.0736781 26.8939 0.035338 26.7529C-0.00300205 26.612 -0.0102468 26.4644 0.0141049 26.3203L4.8922 0.814713C4.93594 0.585937 5.05794 0.379516 5.23725 0.230861C5.41657 0.0822063 5.64202 0.000584435 5.87494 0H24.1347C24.8221 0 25.3058 0.682322 25.0665 1.33409L18.3095 18.6315C18.2509 18.7831 18.23 18.9468 18.2487 19.1083C18.2674 19.2698 18.3251 19.4244 18.4168 19.5587C18.5085 19.6929 18.6314 19.8029 18.7751 19.8791C18.9187 19.9553 19.0787 19.9955 19.2413 19.9961" fill="#F7AC0A"/>
</svg>
